<?xml version="1.0" encoding="UTF-8" standalone="no"?>
<!DOCTYPE svg PUBLIC "-//W3C//DTD SVG 1.1//EN"
 "http://www.w3.org/Graphics/SVG/1.1/DTD/svg11.dtd">
<!-- Generated by graphviz version 2.40.1 (20161225.0304)
 -->
<!-- Title: %3 Pages: 1 -->
<svg width="920pt" height="757pt"
 viewBox="0.00 0.00 920.22 757.28" xmlns="http://www.w3.org/2000/svg" xmlns:xlink="http://www.w3.org/1999/xlink">
<g id="graph0" class="graph" transform="scale(1 1) rotate(0) translate(4 753.2757)">
<title>%3</title>
<polygon fill="#ffffff" stroke="transparent" points="-4,4 -4,-753.2757 916.218,-753.2757 916.218,4 -4,4"/>
<!-- p_tempSensor -->
<g id="node1" class="node">
<title>p_tempSensor</title>
<path fill="none" stroke="#000000" d="M267,-574.2814C267,-574.2814 25,-574.2814 25,-574.2814 19,-574.2814 13,-568.2814 13,-562.2814 13,-562.2814 13,-550.2814 13,-550.2814 13,-544.2814 19,-538.2814 25,-538.2814 25,-538.2814 267,-538.2814 267,-538.2814 273,-538.2814 279,-544.2814 279,-550.2814 279,-550.2814 279,-562.2814 279,-562.2814 279,-568.2814 273,-574.2814 267,-574.2814"/>
<text text-anchor="middle" x="146" y="-552.5814" font-family="Times,serif" font-size="14.00" fill="#000000">p_tempSensor::TempSensor_i_p_tempSensor</text>
</g>
<!-- p_tempControl -->
<g id="node2" class="node">
<title>p_tempControl</title>
<path fill="none" stroke="#000000" d="M268,-255C268,-255 12,-255 12,-255 6,-255 0,-249 0,-243 0,-243 0,-231 0,-231 0,-225 6,-219 12,-219 12,-219 268,-219 268,-219 274,-219 280,-225 280,-231 280,-231 280,-243 280,-243 280,-249 274,-255 268,-255"/>
<text text-anchor="middle" x="140" y="-233.3" font-family="Times,serif" font-size="14.00" fill="#000000">p_tempControl::TempControl_i_p_tempControl</text>
</g>
<!-- p_tempSensor&#45;&gt;p_tempControl -->
<g id="edge1" class="edge">
<title>p_tempSensor&#45;&gt;p_tempControl</title>
<path fill="none" stroke="#000000" d="M145.4688,-528.0129C144.3332,-467.5869 141.6803,-326.4163 140.5384,-265.6511"/>
<polygon fill="none" stroke="#000000" points="149.6595,-538.1255 141.6609,-538.2759 141.5105,-530.2773 149.5091,-530.1269 149.6595,-538.1255"/>
<polyline fill="none" stroke="#000000" points="145.5098,-530.2021 145.4722,-528.2024 "/>
<polygon fill="none" stroke="#000000" points="136.3442,-255.3534 144.3428,-255.203 144.4932,-263.2016 136.4946,-263.352 136.3442,-255.3534"/>
<polyline fill="none" stroke="#000000" points="140.4939,-263.2768 140.5315,-265.2764 "/>
<text text-anchor="middle" x="162" y="-392.9407" font-family="Times,serif" font-size="14.00" fill="#000000">conn1</text>
</g>
<!-- p_tempSensor&#45;&gt;p_tempControl -->
<g id="edge4" class="edge">
<title>p_tempSensor&#45;&gt;p_tempControl</title>
<path fill="none" stroke="#000000" d="M168.3926,-529.8137C174.3246,-521.2515 179.9275,-511.3532 183,-501.2814 210.1402,-412.3151 213.2969,-379.9414 183,-292 179.4098,-281.579 172.9444,-271.6215 166.0994,-263.1131"/>
<polygon fill="none" stroke="#000000" points="165.6507,-540.2631 159.2144,-535.5117 163.9657,-529.0755 170.402,-533.8268 165.6507,-540.2631"/>
<polyline fill="none" stroke="#000000" points="167.1839,-531.4511 168.3717,-529.8421 "/>
<polygon fill="none" stroke="#000000" points="156.4674,-258.038 162.5362,-252.8255 167.7487,-258.8943 161.68,-264.1068 156.4674,-258.038"/>
<polyline fill="none" stroke="#000000" points="164.7144,-261.5005 166.0175,-263.0177 "/>
<text text-anchor="middle" x="222" y="-392.9407" font-family="Times,serif" font-size="14.00" fill="#000000">conn3</text>
</g>
<!-- conn2 -->
<g id="node7" class="node">
<title>conn2</title>
<polygon fill="none" stroke="#000000" points="58,-414.6407 12.0842,-396.6407 58,-378.6407 103.9158,-396.6407 58,-414.6407"/>
<text text-anchor="middle" x="58" y="-392.9407" font-family="Times,serif" font-size="14.00" fill="#000000">conn2</text>
</g>
<!-- p_tempSensor&#45;&gt;conn2 -->
<g id="edge2" class="edge">
<title>p_tempSensor&#45;&gt;conn2</title>
<path fill="none" stroke="#000000" d="M135.8104,-537.9757C132.6602,-532.3068 129.1822,-526.0382 126,-520.2814 106.8536,-485.6439 84.7915,-445.4837 71.1189,-420.5657"/>
<polygon fill="#000000" stroke="#000000" points="74.0223,-418.581 66.144,-411.497 67.885,-421.9478 74.0223,-418.581"/>
</g>
<!-- p_fan -->
<g id="node3" class="node">
<title>p_fan</title>
<path fill="none" stroke="#000000" d="M198.5,-109C198.5,-109 99.5,-109 99.5,-109 93.5,-109 87.5,-103 87.5,-97 87.5,-97 87.5,-85 87.5,-85 87.5,-79 93.5,-73 99.5,-73 99.5,-73 198.5,-73 198.5,-73 204.5,-73 210.5,-79 210.5,-85 210.5,-85 210.5,-97 210.5,-97 210.5,-103 204.5,-109 198.5,-109"/>
<text text-anchor="middle" x="149" y="-87.3" font-family="Times,serif" font-size="14.00" fill="#000000">p_fan::Fan_i_p_fan</text>
</g>
<!-- p_tempControl&#45;&gt;p_fan -->
<g id="edge7" class="edge">
<title>p_tempControl&#45;&gt;p_fan</title>
<path fill="none" stroke="#000000" d="M115.8156,-210.7824C109.4035,-202.2296 103.3408,-192.2737 100,-182 95.0521,-166.7843 94.3055,-160.9523 100,-146 104.1468,-135.1115 111.5484,-125.0069 119.3628,-116.5074"/>
<polygon fill="none" stroke="#000000" points="125.3788,-216.3274 119.1336,-221.3272 114.1338,-215.082 120.3789,-210.0822 125.3788,-216.3274"/>
<polyline fill="none" stroke="#000000" points="117.2564,-212.5821 116.0064,-211.0208 "/>
<polygon fill="none" stroke="#000000" points="123.7222,-106.3716 129.4255,-111.9816 123.8154,-117.6849 118.1121,-112.0749 123.7222,-106.3716"/>
<polyline fill="none" stroke="#000000" points="120.9637,-114.8799 119.5612,-116.3057 "/>
<text text-anchor="middle" x="117" y="-160.3" font-family="Times,serif" font-size="14.00" fill="#000000">conn5</text>
</g>
<!-- conn4 -->
<g id="node8" class="node">
<title>conn4</title>
<polygon fill="none" stroke="#000000" points="189,-182 143.0842,-164 189,-146 234.9158,-164 189,-182"/>
<text text-anchor="middle" x="189" y="-160.3" font-family="Times,serif" font-size="14.00" fill="#000000">conn4</text>
</g>
<!-- p_tempControl&#45;&gt;conn4 -->
<g id="edge5" class="edge">
<title>p_tempControl&#45;&gt;conn4</title>
<path fill="none" stroke="#000000" d="M152.1124,-218.9551C158.6006,-209.289 166.6617,-197.2796 173.5918,-186.9551"/>
<polygon fill="#000000" stroke="#000000" points="176.6556,-188.6706 179.3228,-178.417 170.8435,-184.7693 176.6556,-188.6706"/>
</g>
<!-- p_fan&#45;&gt;p_tempControl -->
<g id="edge10" class="edge">
<title>p_fan&#45;&gt;p_tempControl</title>
<path fill="none" stroke="#000000" d="M210.5734,-114.1554C223.8834,-122.1558 236.2695,-132.5919 244,-146 251.9917,-159.8612 252.2559,-168.2945 244,-182 235.665,-195.8368 222.5543,-206.3734 208.4142,-214.3284"/>
<polygon fill="none" stroke="#000000" points="199.7902,-112.7394 203.6761,-105.7465 210.6689,-109.6324 206.7831,-116.6253 199.7902,-112.7394"/>
<polyline fill="none" stroke="#000000" points="208.726,-113.1289 210.4742,-114.1003 "/>
<polygon fill="none" stroke="#000000" points="201.3546,-222.5038 197.6663,-215.4048 204.7653,-211.7165 208.4537,-218.8155 201.3546,-222.5038"/>
<polyline fill="none" stroke="#000000" points="206.6095,-215.266 208.3843,-214.3439 "/>
<text text-anchor="middle" x="268" y="-160.3" font-family="Times,serif" font-size="14.00" fill="#000000">conn7</text>
</g>
<!-- conn6 -->
<g id="node9" class="node">
<title>conn6</title>
<polygon fill="none" stroke="#000000" points="57,-36 11.0842,-18 57,0 102.9158,-18 57,-36"/>
<text text-anchor="middle" x="57" y="-14.3" font-family="Times,serif" font-size="14.00" fill="#000000">conn6</text>
</g>
<!-- p_fan&#45;&gt;conn6 -->
<g id="edge8" class="edge">
<title>p_fan&#45;&gt;conn6</title>
<path fill="none" stroke="#000000" d="M126.2584,-72.9551C112.3339,-61.9062 94.5507,-47.7957 80.4908,-36.6395"/>
<polygon fill="#000000" stroke="#000000" points="82.2946,-33.6028 72.2855,-30.1287 77.9436,-39.0863 82.2946,-33.6028"/>
</g>
<!-- dispatch_periodic_inst -->
<g id="node4" class="node">
<title>dispatch_periodic_inst</title>
<path fill="none" stroke="#000000" d="M422,-749.2757C422,-749.2757 204,-749.2757 204,-749.2757 198,-749.2757 192,-743.2757 192,-737.2757 192,-737.2757 192,-725.2757 192,-725.2757 192,-719.2757 198,-713.2757 204,-713.2757 204,-713.2757 422,-713.2757 422,-713.2757 428,-713.2757 434,-719.2757 434,-725.2757 434,-725.2757 434,-737.2757 434,-737.2757 434,-743.2757 428,-749.2757 422,-749.2757"/>
<text text-anchor="middle" x="313" y="-727.5757" font-family="Times,serif" font-size="14.00" fill="#000000">dispatch_periodic_inst::dispatch_periodic</text>
</g>
<!-- conn8 -->
<g id="node10" class="node">
<title>conn8</title>
<polygon fill="none" stroke="#000000" points="211,-661.7785 165.0842,-643.7785 211,-625.7785 256.9158,-643.7785 211,-661.7785"/>
<text text-anchor="middle" x="211" y="-640.0785" font-family="Times,serif" font-size="14.00" fill="#000000">conn8</text>
</g>
<!-- dispatch_periodic_inst&#45;&gt;conn8 -->
<g id="edge11" class="edge">
<title>dispatch_periodic_inst&#45;&gt;conn8</title>
<path fill="none" stroke="#000000" d="M291.8655,-713.1462C274.8157,-698.5206 250.89,-677.9968 233.4889,-663.0699"/>
<polygon fill="#000000" stroke="#000000" points="235.3983,-660.0965 225.5295,-656.2421 230.8407,-665.4095 235.3983,-660.0965"/>
</g>
<!-- conn9 -->
<g id="node11" class="node">
<title>conn9</title>
<ellipse fill="none" stroke="#000000" cx="430" cy="-643.7785" rx="32.4942" ry="32.4942"/>
<text text-anchor="middle" x="430" y="-640.0785" font-family="Times,serif" font-size="14.00" fill="#000000">conn9</text>
</g>
<!-- dispatch_periodic_inst&#45;&gt;conn9 -->
<g id="edge13" class="edge">
<title>dispatch_periodic_inst&#45;&gt;conn9</title>
<path fill="none" stroke="#000000" d="M337.2425,-713.1462C354.1511,-700.5013 376.9551,-683.4476 395.7208,-669.4138"/>
<polygon fill="#000000" stroke="#000000" points="397.8421,-672.198 403.7543,-663.4061 393.6498,-666.5921 397.8421,-672.198"/>
</g>
<!-- time_server -->
<g id="node5" class="node">
<title>time_server</title>
<path fill="none" stroke="#000000" d="M551.5,-574.2814C551.5,-574.2814 422.5,-574.2814 422.5,-574.2814 416.5,-574.2814 410.5,-568.2814 410.5,-562.2814 410.5,-562.2814 410.5,-550.2814 410.5,-550.2814 410.5,-544.2814 416.5,-538.2814 422.5,-538.2814 422.5,-538.2814 551.5,-538.2814 551.5,-538.2814 557.5,-538.2814 563.5,-544.2814 563.5,-550.2814 563.5,-550.2814 563.5,-562.2814 563.5,-562.2814 563.5,-568.2814 557.5,-574.2814 551.5,-574.2814"/>
<text text-anchor="middle" x="487" y="-552.5814" font-family="Times,serif" font-size="14.00" fill="#000000">time_server::TimeServer</text>
</g>
<!-- conn10 -->
<g id="node12" class="node">
<title>conn10</title>
<polygon fill="none" stroke="#000000" points="313,-414.6407 261.5544,-396.6407 313,-378.6407 364.4456,-396.6407 313,-414.6407"/>
<text text-anchor="middle" x="313" y="-392.9407" font-family="Times,serif" font-size="14.00" fill="#000000">conn10</text>
</g>
<!-- time_server&#45;&gt;conn10 -->
<g id="edge15" class="edge">
<title>time_server&#45;&gt;conn10</title>
<path fill="none" stroke="#000000" d="M433.2958,-538.2363C412.7328,-529.429 390.1262,-517.2312 373,-501.2814 349.2382,-479.152 332.2496,-445.4418 322.5463,-422.2976"/>
<polygon fill="#000000" stroke="#000000" points="325.6998,-420.7585 318.7189,-412.7887 319.2061,-423.3724 325.6998,-420.7585"/>
</g>
<!-- time_server.pit_command -->
<g id="node13" class="node">
<title>time_server.pit_command</title>
<ellipse fill="none" stroke="#000000" cx="487" cy="-396.6407" rx="104.7816" ry="104.7816"/>
<text text-anchor="middle" x="487" y="-392.9407" font-family="Times,serif" font-size="14.00" fill="#000000">time_server.pit_command</text>
</g>
<!-- time_server&#45;&gt;time_server.pit_command -->
<g id="edge17" class="edge">
<title>time_server&#45;&gt;time_server.pit_command</title>
<path fill="none" stroke="#000000" d="M487,-538.2789C487,-530.8636 487,-521.6142 487,-511.4163"/>
<polygon fill="#000000" stroke="#000000" points="490.5001,-511.377 487,-501.3771 483.5001,-511.3771 490.5001,-511.377"/>
</g>
<!-- time_server.pit_channel0 -->
<g id="node14" class="node">
<title>time_server.pit_channel0</title>
<ellipse fill="none" stroke="#000000" cx="710" cy="-396.6407" rx="100.9827" ry="100.9827"/>
<text text-anchor="middle" x="710" y="-392.9407" font-family="Times,serif" font-size="14.00" fill="#000000">time_server.pit_channel0</text>
</g>
<!-- time_server&#45;&gt;time_server.pit_channel0 -->
<g id="edge19" class="edge">
<title>time_server&#45;&gt;time_server.pit_channel0</title>
<path fill="none" stroke="#000000" d="M532.6556,-538.2207C554.2597,-528.7012 579.8862,-515.9522 601,-501.2814 611.7291,-493.8264 622.4092,-485.3115 632.6531,-476.4313"/>
<polygon fill="#000000" stroke="#000000" points="635.2254,-478.8287 640.3953,-469.5808 630.5868,-473.5862 635.2254,-478.8287"/>
</g>
<!-- time_server.pit -->
<g id="node6" class="node">
<title>time_server.pit</title>
<path fill="none" stroke="#000000" d="M761.5,-255C761.5,-255 658.5,-255 658.5,-255 652.5,-255 646.5,-249 646.5,-243 646.5,-243 646.5,-231 646.5,-231 646.5,-225 652.5,-219 658.5,-219 658.5,-219 761.5,-219 761.5,-219 767.5,-219 773.5,-225 773.5,-231 773.5,-231 773.5,-243 773.5,-243 773.5,-249 767.5,-255 761.5,-255"/>
<text text-anchor="middle" x="710" y="-233.3" font-family="Times,serif" font-size="14.00" fill="#000000">time_server.pit::PIT</text>
</g>
<!-- time_server.pit_irq -->
<g id="node15" class="node">
<title>time_server.pit_irq</title>
<polygon fill="none" stroke="#000000" points="801,-182 689.5635,-164 801,-146 912.4365,-164 801,-182"/>
<text text-anchor="middle" x="801" y="-160.3" font-family="Times,serif" font-size="14.00" fill="#000000">time_server.pit_irq</text>
</g>
<!-- time_server.pit&#45;&gt;time_server.pit_irq -->
<g id="edge21" class="edge">
<title>time_server.pit&#45;&gt;time_server.pit_irq</title>
<path fill="none" stroke="#000000" d="M732.4944,-218.9551C745.1343,-208.8153 760.9887,-196.0969 774.2611,-185.4499"/>
<polygon fill="#000000" stroke="#000000" points="776.5293,-188.1174 782.1396,-179.1298 772.1491,-182.6571 776.5293,-188.1174"/>
</g>
<!-- conn2&#45;&gt;p_tempControl -->
<g id="edge3" class="edge">
<title>conn2&#45;&gt;p_tempControl</title>
<path fill="none" stroke="#000000" d="M65.7144,-381.6221C79.5033,-354.7772 108.5604,-298.2077 125.9662,-264.3216"/>
<polygon fill="#000000" stroke="#000000" points="129.2984,-265.4944 130.7542,-255.0001 123.0718,-262.2961 129.2984,-265.4944"/>
</g>
<!-- conn4&#45;&gt;p_fan -->
<g id="edge6" class="edge">
<title>conn4&#45;&gt;p_fan</title>
<path fill="none" stroke="#000000" d="M180.712,-148.8744C175.8271,-139.9595 169.503,-128.418 163.7889,-117.9898"/>
<polygon fill="#000000" stroke="#000000" points="166.8508,-116.2941 158.976,-109.2062 160.712,-119.6579 166.8508,-116.2941"/>
</g>
<!-- conn6&#45;&gt;p_tempControl -->
<g id="edge9" class="edge">
<title>conn6&#45;&gt;p_tempControl</title>
<path fill="none" stroke="#000000" d="M58.8058,-35.348C62.4219,-65.9344 72.0693,-131.037 93,-182 97.384,-192.6744 104.6749,-202.771 112.2215,-211.3296"/>
<polygon fill="#000000" stroke="#000000" points="109.759,-213.8206 119.1479,-218.7297 114.8696,-209.0371 109.759,-213.8206"/>
</g>
<!-- conn8&#45;&gt;p_tempSensor -->
<g id="edge12" class="edge">
<title>conn8&#45;&gt;p_tempSensor</title>
<path fill="none" stroke="#000000" d="M200.5566,-629.7206C191.17,-617.0852 177.1357,-598.1934 165.652,-582.7352"/>
<polygon fill="#000000" stroke="#000000" points="168.3534,-580.5023 159.5804,-574.5621 162.7342,-584.6767 168.3534,-580.5023"/>
</g>
<!-- conn9&#45;&gt;time_server -->
<g id="edge14" class="edge">
<title>conn9&#45;&gt;time_server</title>
<path fill="none" stroke="#000000" d="M448.0352,-616.0939C454.966,-605.4548 462.8557,-593.3439 469.7144,-582.8155"/>
<polygon fill="#000000" stroke="#000000" points="472.6637,-584.7002 475.1896,-574.4109 466.7985,-580.8793 472.6637,-584.7002"/>
</g>
<!-- conn10&#45;&gt;dispatch_periodic_inst -->
<g id="edge16" class="edge">
<title>conn10&#45;&gt;dispatch_periodic_inst</title>
<path fill="none" stroke="#000000" d="M313,-414.6433C313,-469.5727 313,-635.3619 313,-702.5409"/>
<polygon fill="#000000" stroke="#000000" points="309.5001,-702.8075 313,-712.8076 316.5001,-702.8076 309.5001,-702.8075"/>
</g>
<!-- time_server.pit_command&#45;&gt;time_server.pit -->
<g id="edge18" class="edge">
<title>time_server.pit_command&#45;&gt;time_server.pit</title>
<path fill="none" stroke="#000000" d="M561.089,-322.6031C573.5924,-311.7265 586.8079,-301.1287 600,-292 617.8799,-279.6273 638.9413,-268.395 657.8237,-259.3536"/>
<polygon fill="#000000" stroke="#000000" points="659.3296,-262.5132 666.8947,-255.0956 656.3551,-256.1765 659.3296,-262.5132"/>
</g>
<!-- time_server.pit_channel0&#45;&gt;time_server.pit -->
<g id="edge20" class="edge">
<title>time_server.pit_channel0&#45;&gt;time_server.pit</title>
<path fill="none" stroke="#000000" d="M710,-295.5378C710,-284.5399 710,-274.1235 710,-265.2102"/>
<polygon fill="#000000" stroke="#000000" points="713.5001,-265.1452 710,-255.1453 706.5001,-265.1453 713.5001,-265.1452"/>
</g>
<!-- time_server.pit_irq&#45;&gt;time_server -->
<g id="edge22" class="edge">
<title>time_server.pit_irq&#45;&gt;time_server</title>
<path fill="none" stroke="#000000" d="M809.0949,-180.9063C833.6813,-234.989 901.0055,-405.7992 820,-501.2814 804.1585,-519.954 667.0257,-537.6915 573.7539,-547.7537"/>
<polygon fill="#000000" stroke="#000000" points="573.3128,-544.2809 563.7409,-548.8228 574.056,-551.2413 573.3128,-544.2809"/>
</g>
</g>
</svg>
