<?xml version="1.0" encoding="UTF-8" standalone="no"?>
<!DOCTYPE svg PUBLIC "-//W3C//DTD SVG 1.1//EN"
 "http://www.w3.org/Graphics/SVG/1.1/DTD/svg11.dtd">
<!-- Generated by graphviz version 2.40.1 (20161225.0304)
 -->
<!-- Title: g Pages: 1 -->
<svg width="3419pt" height="502pt"
 viewBox="0.00 0.00 3419.00 502.38" xmlns="http://www.w3.org/2000/svg" xmlns:xlink="http://www.w3.org/1999/xlink">
<g id="graph0" class="graph" transform="scale(1 1) rotate(0) translate(4 498.3848)">
<title>g</title>
<polygon fill="#ffffff" stroke="transparent" points="-4,4 -4,-498.3848 3415,-498.3848 3415,4 -4,4"/>
<!-- p_tempSensor -->
<g id="node1" class="node">
<title>p_tempSensor</title>
<polygon fill="none" stroke="#000000" points="524,-130.3848 524,-154.3848 1012,-154.3848 1012,-130.3848 524,-130.3848"/>
<text text-anchor="start" x="719" y="-139.5848" font-family="Times,serif" font-weight="bold" font-size="16.00" fill="#000000">p_tempSensor</text>
<polygon fill="none" stroke="#000000" points="524,-106.3848 524,-130.3848 1012,-130.3848 1012,-106.3848 524,-106.3848"/>
<text text-anchor="start" x="527" y="-115.5848" font-family="Times,serif" font-size="16.00" fill="#ffa500">uses sb_Monitor_TemperatureControl__Temperature_i </text>
<text text-anchor="start" x="887" y="-115.5848" font-family="Times,serif" font-weight="bold" font-size="16.00" fill="#ffa500">sb_currentTemp0</text>
<polygon fill="none" stroke="#000000" points="524,-82.3848 524,-106.3848 1012,-106.3848 1012,-82.3848 524,-82.3848"/>
<text text-anchor="start" x="619.5" y="-91.5848" font-family="Times,serif" font-size="16.00" fill="#ffa500">uses AADLEvent_Sender </text>
<text text-anchor="start" x="788.5" y="-91.5848" font-family="Times,serif" font-weight="bold" font-size="16.00" fill="#ffa500">sb_tempChanged0</text>
<polygon fill="none" stroke="#000000" points="524,-58.3848 524,-82.3848 1012,-82.3848 1012,-58.3848 524,-58.3848"/>
<text text-anchor="start" x="578" y="-67.5848" font-family="Times,serif" font-size="16.00" fill="#0000ff">consumes Notification </text>
<text text-anchor="start" x="726" y="-67.5848" font-family="Times,serif" font-weight="bold" font-size="16.00" fill="#0000ff">sb_periodic_dispatch_notification</text>
</g>
<!-- sb_tempcontrol_currenttemp_monitor -->
<g id="node4" class="node">
<title>sb_tempcontrol_currenttemp_monitor</title>
<polygon fill="none" stroke="#000000" points="1064.5,-176.3848 1064.5,-200.3848 1489.5,-200.3848 1489.5,-176.3848 1064.5,-176.3848"/>
<text text-anchor="start" x="1145" y="-185.5848" font-family="Times,serif" font-weight="bold" font-size="16.00" fill="#000000">sb_tempcontrol_currenttemp_monitor</text>
<polygon fill="none" stroke="#000000" points="1064.5,-152.3848 1064.5,-176.3848 1489.5,-176.3848 1489.5,-152.3848 1064.5,-152.3848"/>
<text text-anchor="start" x="1185" y="-161.5848" font-family="Times,serif" font-size="16.00" fill="#0000ff">emits DataportWrite </text>
<text text-anchor="start" x="1319" y="-161.5848" font-family="Times,serif" font-weight="bold" font-size="16.00" fill="#0000ff">monsig</text>
<polygon fill="none" stroke="#000000" points="1064.5,-128.3848 1064.5,-152.3848 1489.5,-152.3848 1489.5,-128.3848 1064.5,-128.3848"/>
<text text-anchor="start" x="1067.5" y="-137.5848" font-family="Times,serif" font-size="16.00" fill="#ffa500">provides sb_Monitor_TemperatureControl__Temperature_i </text>
<text text-anchor="start" x="1455.5" y="-137.5848" font-family="Times,serif" font-weight="bold" font-size="16.00" fill="#ffa500">mon</text>
</g>
<!-- p_tempSensor&#45;&gt;sb_tempcontrol_currenttemp_monitor -->
<g id="conn1" class="edge">
<title>p_tempSensor:sb_currentTemp0&#45;&gt;sb_tempcontrol_currenttemp_monitor:mon</title>
<path fill="none" stroke="#ffa500" d="M1012,-118.3848C1033.3462,-118.3848 1038.0353,-134.0469 1054.1762,-138.9413"/>
<polygon fill="#ffa500" stroke="#ffa500" points="1054.1117,-142.4662 1064.5,-140.3848 1055.081,-135.5337 1054.1117,-142.4662"/>
</g>
<!-- sb_tempcontrol_tempchanged_monitor -->
<g id="node5" class="node">
<title>sb_tempcontrol_tempchanged_monitor</title>
<polygon fill="none" stroke="#000000" points="2125,-129.3848 2125,-153.3848 2425,-153.3848 2425,-129.3848 2125,-129.3848"/>
<text text-anchor="start" x="2139.5" y="-138.5848" font-family="Times,serif" font-weight="bold" font-size="16.00" fill="#000000">sb_tempcontrol_tempchanged_monitor</text>
<polygon fill="none" stroke="#000000" points="2125,-105.3848 2125,-129.3848 2425,-129.3848 2425,-105.3848 2125,-105.3848"/>
<text text-anchor="start" x="2185" y="-114.5848" font-family="Times,serif" font-size="16.00" fill="#0000ff">emits ReceiveEvent </text>
<text text-anchor="start" x="2315" y="-114.5848" font-family="Times,serif" font-weight="bold" font-size="16.00" fill="#0000ff">monsig</text>
<polygon fill="none" stroke="#000000" points="2125,-81.3848 2125,-105.3848 2425,-105.3848 2425,-81.3848 2125,-81.3848"/>
<text text-anchor="start" x="2128" y="-90.5848" font-family="Times,serif" font-size="16.00" fill="#ffa500">provides AADLEvent_Receiver </text>
<text text-anchor="start" x="2336" y="-90.5848" font-family="Times,serif" font-weight="bold" font-size="16.00" fill="#ffa500">mon_receive</text>
<polygon fill="none" stroke="#000000" points="2125,-57.3848 2125,-81.3848 2425,-81.3848 2425,-57.3848 2125,-57.3848"/>
<text text-anchor="start" x="2141.5" y="-66.5848" font-family="Times,serif" font-size="16.00" fill="#ffa500">provides AADLEvent_Sender </text>
<text text-anchor="start" x="2338.5" y="-66.5848" font-family="Times,serif" font-weight="bold" font-size="16.00" fill="#ffa500">mon_send</text>
</g>
<!-- p_tempSensor&#45;&gt;sb_tempcontrol_tempchanged_monitor -->
<g id="conn4" class="edge">
<title>p_tempSensor:sb_tempChanged0&#45;&gt;sb_tempcontrol_tempchanged_monitor:mon_send</title>
<path fill="none" stroke="#ffa500" d="M1012,-94.3848C1503.4091,-94.3848 1628.5039,-69.7254 2114.9047,-69.3883"/>
<polygon fill="#ffa500" stroke="#ffa500" points="2115.0012,-72.8883 2125,-69.3848 2114.9988,-65.8883 2115.0012,-72.8883"/>
</g>
<!-- p_tempControl -->
<g id="node2" class="node">
<title>p_tempControl</title>
<polygon fill="none" stroke="#000000" points="1541,-272.3848 1541,-296.3848 2021,-296.3848 2021,-272.3848 1541,-272.3848"/>
<text text-anchor="start" x="1728" y="-281.5848" font-family="Times,serif" font-weight="bold" font-size="16.00" fill="#000000">p_tempControl</text>
<polygon fill="none" stroke="#000000" points="1541,-248.3848 1541,-272.3848 2021,-272.3848 2021,-248.3848 1541,-248.3848"/>
<text text-anchor="start" x="1544" y="-257.5848" font-family="Times,serif" font-size="16.00" fill="#ffa500">uses sb_Monitor_TemperatureControl__Temperature_i </text>
<text text-anchor="start" x="1904" y="-257.5848" font-family="Times,serif" font-weight="bold" font-size="16.00" fill="#ffa500">sb_currentTemp</text>
<polygon fill="none" stroke="#000000" points="1541,-224.3848 1541,-248.3848 2021,-248.3848 2021,-224.3848 1541,-224.3848"/>
<text text-anchor="start" x="1578" y="-233.5848" font-family="Times,serif" font-size="16.00" fill="#ffa500">uses sb_Monitor_TemperatureControl__FanAck_1 </text>
<text text-anchor="start" x="1911" y="-233.5848" font-family="Times,serif" font-weight="bold" font-size="16.00" fill="#ffa500">sb_fanAck</text>
<polygon fill="none" stroke="#000000" points="1541,-200.3848 1541,-224.3848 2021,-224.3848 2021,-200.3848 1541,-200.3848"/>
<text text-anchor="start" x="1568" y="-209.5848" font-family="Times,serif" font-size="16.00" fill="#ffa500">uses sb_Monitor_TemperatureControl__FanCmd_1 </text>
<text text-anchor="start" x="1906" y="-209.5848" font-family="Times,serif" font-weight="bold" font-size="16.00" fill="#ffa500">sb_fanCmd0</text>
<polygon fill="none" stroke="#000000" points="1541,-176.3848 1541,-200.3848 2021,-200.3848 2021,-176.3848 1541,-176.3848"/>
<text text-anchor="start" x="1631" y="-185.5848" font-family="Times,serif" font-size="16.00" fill="#ffa500">uses AADLEvent_Receiver </text>
<text text-anchor="start" x="1811" y="-185.5848" font-family="Times,serif" font-weight="bold" font-size="16.00" fill="#ffa500">sb_tempChanged</text>
<polygon fill="none" stroke="#000000" points="1541,-152.3848 1541,-176.3848 2021,-176.3848 2021,-152.3848 1541,-152.3848"/>
<text text-anchor="start" x="1599" y="-161.5848" font-family="Times,serif" font-size="16.00" fill="#0000ff">consumes DataportWrite </text>
<text text-anchor="start" x="1762" y="-161.5848" font-family="Times,serif" font-weight="bold" font-size="16.00" fill="#0000ff">sb_currentTemp_notification</text>
<polygon fill="none" stroke="#000000" points="1541,-128.3848 1541,-152.3848 2021,-152.3848 2021,-128.3848 1541,-128.3848"/>
<text text-anchor="start" x="1626" y="-137.5848" font-family="Times,serif" font-size="16.00" fill="#0000ff">consumes QueuedData </text>
<text text-anchor="start" x="1776" y="-137.5848" font-family="Times,serif" font-weight="bold" font-size="16.00" fill="#0000ff">sb_fanAck_notification</text>
<polygon fill="none" stroke="#000000" points="1541,-104.3848 1541,-128.3848 2021,-128.3848 2021,-104.3848 1541,-104.3848"/>
<text text-anchor="start" x="1598" y="-113.5848" font-family="Times,serif" font-size="16.00" fill="#0000ff">consumes ReceiveEvent </text>
<text text-anchor="start" x="1757" y="-113.5848" font-family="Times,serif" font-weight="bold" font-size="16.00" fill="#0000ff">sb_tempChanged_notification</text>
</g>
<!-- p_tempControl&#45;&gt;sb_tempcontrol_currenttemp_monitor -->
<g id="conn2" class="edge">
<title>p_tempControl:sb_currentTemp&#45;&gt;sb_tempcontrol_currenttemp_monitor:mon</title>
<path fill="none" stroke="#ffa500" d="M1541,-260.3848C1486.8166,-260.3848 1539.5018,-155.7931 1499.5119,-141.902"/>
<polygon fill="#ffa500" stroke="#ffa500" points="1499.9116,-138.4227 1489.5,-140.3848 1498.8627,-145.3437 1499.9116,-138.4227"/>
</g>
<!-- p_tempControl&#45;&gt;sb_tempcontrol_tempchanged_monitor -->
<g id="conn5" class="edge">
<title>p_tempControl:sb_tempChanged&#45;&gt;sb_tempcontrol_tempchanged_monitor:mon_receive</title>
<path fill="none" stroke="#ffa500" d="M2021,-188.3848C2079.9354,-188.3848 2064.5939,-104.1914 2114.825,-94.325"/>
<polygon fill="#ffa500" stroke="#ffa500" points="2115.3645,-97.7902 2125,-93.3848 2114.7203,-90.8199 2115.3645,-97.7902"/>
</g>
<!-- sb_fan_fancmd_monitor -->
<g id="node6" class="node">
<title>sb_fan_fancmd_monitor</title>
<polygon fill="none" stroke="#000000" points="2073,-227.3848 2073,-251.3848 2477,-251.3848 2477,-227.3848 2073,-227.3848"/>
<text text-anchor="start" x="2190" y="-236.5848" font-family="Times,serif" font-weight="bold" font-size="16.00" fill="#000000">sb_fan_fancmd_monitor</text>
<polygon fill="none" stroke="#000000" points="2073,-203.3848 2073,-227.3848 2477,-227.3848 2477,-203.3848 2073,-203.3848"/>
<text text-anchor="start" x="2189.5" y="-212.5848" font-family="Times,serif" font-size="16.00" fill="#0000ff">emits QueuedData </text>
<text text-anchor="start" x="2310.5" y="-212.5848" font-family="Times,serif" font-weight="bold" font-size="16.00" fill="#0000ff">monsig</text>
<polygon fill="none" stroke="#000000" points="2073,-179.3848 2073,-203.3848 2477,-203.3848 2477,-179.3848 2073,-179.3848"/>
<text text-anchor="start" x="2076" y="-188.5848" font-family="Times,serif" font-size="16.00" fill="#ffa500">provides sb_Monitor_TemperatureControl__FanCmd_1 </text>
<text text-anchor="start" x="2443" y="-188.5848" font-family="Times,serif" font-weight="bold" font-size="16.00" fill="#ffa500">mon</text>
</g>
<!-- p_tempControl&#45;&gt;sb_fan_fancmd_monitor -->
<g id="conn7" class="edge">
<title>p_tempControl:sb_fanCmd0&#45;&gt;sb_fan_fancmd_monitor:mon</title>
<path fill="none" stroke="#ffa500" d="M2021,-212.3848C2042.0301,-212.3848 2046.8473,-197.4346 2062.8109,-192.7626"/>
<polygon fill="#ffa500" stroke="#ffa500" points="2063.5593,-196.1934 2073,-191.3848 2062.6211,-189.2565 2063.5593,-196.1934"/>
</g>
<!-- sb_tempcontrol_fanack_monitor -->
<g id="node7" class="node">
<title>sb_tempcontrol_fanack_monitor</title>
<polygon fill="none" stroke="#000000" points="3005,-295.3848 3005,-319.3848 3403,-319.3848 3403,-295.3848 3005,-295.3848"/>
<text text-anchor="start" x="3091" y="-304.5848" font-family="Times,serif" font-weight="bold" font-size="16.00" fill="#000000">sb_tempcontrol_fanack_monitor</text>
<polygon fill="none" stroke="#000000" points="3005,-271.3848 3005,-295.3848 3403,-295.3848 3403,-271.3848 3005,-271.3848"/>
<text text-anchor="start" x="3118.5" y="-280.5848" font-family="Times,serif" font-size="16.00" fill="#0000ff">emits QueuedData </text>
<text text-anchor="start" x="3239.5" y="-280.5848" font-family="Times,serif" font-weight="bold" font-size="16.00" fill="#0000ff">monsig</text>
<polygon fill="none" stroke="#000000" points="3005,-247.3848 3005,-271.3848 3403,-271.3848 3403,-247.3848 3005,-247.3848"/>
<text text-anchor="start" x="3008" y="-256.5848" font-family="Times,serif" font-size="16.00" fill="#ffa500">provides sb_Monitor_TemperatureControl__FanAck_1 </text>
<text text-anchor="start" x="3369" y="-256.5848" font-family="Times,serif" font-weight="bold" font-size="16.00" fill="#ffa500">mon</text>
</g>
<!-- p_tempControl&#45;&gt;sb_tempcontrol_fanack_monitor -->
<g id="conn11" class="edge">
<title>p_tempControl:sb_fanAck&#45;&gt;sb_tempcontrol_fanack_monitor:mon</title>
<path fill="none" stroke="#ffa500" d="M2021,-236.3848C2054.428,-236.3848 2035.2415,-282.1577 2065,-297.3848 2419.5078,-478.7825 2587.7718,-436.243 2961,-297.3848 2981.4333,-289.7826 2980.3145,-267.9564 2994.9869,-261.3213"/>
<polygon fill="#ffa500" stroke="#ffa500" points="2995.8465,-264.72 3005,-259.3848 2994.5173,-257.8473 2995.8465,-264.72"/>
</g>
<!-- p_fan -->
<g id="node3" class="node">
<title>p_fan</title>
<polygon fill="none" stroke="#000000" points="2529,-227.3848 2529,-251.3848 2953,-251.3848 2953,-227.3848 2529,-227.3848"/>
<text text-anchor="start" x="2721" y="-236.5848" font-family="Times,serif" font-weight="bold" font-size="16.00" fill="#000000">p_fan</text>
<polygon fill="none" stroke="#000000" points="2529,-203.3848 2529,-227.3848 2953,-227.3848 2953,-203.3848 2529,-203.3848"/>
<text text-anchor="start" x="2532" y="-212.5848" font-family="Times,serif" font-size="16.00" fill="#ffa500">uses sb_Monitor_TemperatureControl__FanCmd_1 </text>
<text text-anchor="start" x="2870" y="-212.5848" font-family="Times,serif" font-weight="bold" font-size="16.00" fill="#ffa500">sb_fanCmd</text>
<polygon fill="none" stroke="#000000" points="2529,-179.3848 2529,-203.3848 2953,-203.3848 2953,-179.3848 2529,-179.3848"/>
<text text-anchor="start" x="2533.5" y="-188.5848" font-family="Times,serif" font-size="16.00" fill="#ffa500">uses sb_Monitor_TemperatureControl__FanAck_1 </text>
<text text-anchor="start" x="2866.5" y="-188.5848" font-family="Times,serif" font-weight="bold" font-size="16.00" fill="#ffa500">sb_fanAck0</text>
<polygon fill="none" stroke="#000000" points="2529,-155.3848 2529,-179.3848 2953,-179.3848 2953,-155.3848 2529,-155.3848"/>
<text text-anchor="start" x="2582.5" y="-164.5848" font-family="Times,serif" font-size="16.00" fill="#0000ff">consumes QueuedData </text>
<text text-anchor="start" x="2732.5" y="-164.5848" font-family="Times,serif" font-weight="bold" font-size="16.00" fill="#0000ff">sb_fanCmd_notification</text>
</g>
<!-- p_fan&#45;&gt;sb_fan_fancmd_monitor -->
<g id="conn8" class="edge">
<title>p_fan:sb_fanCmd&#45;&gt;sb_fan_fancmd_monitor:mon</title>
<path fill="none" stroke="#ffa500" d="M2529,-215.3848C2507.5233,-215.3848 2503.39,-198.2988 2487.3331,-192.9595"/>
<polygon fill="#ffa500" stroke="#ffa500" points="2487.4132,-189.4314 2477,-191.3848 2486.3585,-196.3515 2487.4132,-189.4314"/>
</g>
<!-- p_fan&#45;&gt;sb_tempcontrol_fanack_monitor -->
<g id="conn10" class="edge">
<title>p_fan:sb_fanAck0&#45;&gt;sb_tempcontrol_fanack_monitor:mon</title>
<path fill="none" stroke="#ffa500" d="M2953,-191.3848C2987.0334,-191.3848 2971.3446,-245.7974 2994.8898,-257.2751"/>
<polygon fill="#ffa500" stroke="#ffa500" points="2994.4959,-260.7682 3005,-259.3848 2995.9258,-253.9158 2994.4959,-260.7682"/>
</g>
<!-- sb_tempcontrol_currenttemp_monitor&#45;&gt;p_tempControl -->
<g id="conn3" class="edge">
<title>sb_tempcontrol_currenttemp_monitor:monsig&#45;&gt;p_tempControl:sb_currentTemp_notification</title>
<path fill="none" stroke="#0000ff" d="M1489.5,-164.3848C1508.6337,-164.3848 1515.7714,-164.3848 1530.969,-164.3848"/>
<polygon fill="#0000ff" stroke="#0000ff" points="1531,-167.8849 1541,-164.3848 1531,-160.8849 1531,-167.8849"/>
</g>
<!-- sb_tempcontrol_tempchanged_monitor&#45;&gt;p_tempControl -->
<g id="conn6" class="edge">
<title>sb_tempcontrol_tempchanged_monitor:monsig&#45;&gt;p_tempControl:sb_tempChanged_notification</title>
<path fill="none" stroke="#0000ff" d="M2125,-117.3848C2082.3869,-117.3848 2069.2409,-116.5349 2031.232,-116.4021"/>
<polygon fill="#0000ff" stroke="#0000ff" points="2031.006,-112.9018 2021,-116.3848 2030.994,-119.9018 2031.006,-112.9018"/>
</g>
<!-- sb_fan_fancmd_monitor&#45;&gt;p_fan -->
<g id="conn9" class="edge">
<title>sb_fan_fancmd_monitor:monsig&#45;&gt;p_fan:sb_fanCmd_notification</title>
<path fill="none" stroke="#0000ff" d="M2477,-215.3848C2504.5206,-215.3848 2499.6121,-178.6348 2519.0255,-169.4473"/>
<polygon fill="#0000ff" stroke="#0000ff" points="2519.9159,-172.8373 2529,-167.3848 2518.4984,-165.9823 2519.9159,-172.8373"/>
</g>
<!-- sb_tempcontrol_fanack_monitor&#45;&gt;p_tempControl -->
<g id="conn12" class="edge">
<title>sb_tempcontrol_fanack_monitor:monsig&#45;&gt;p_tempControl:sb_fanAck_notification</title>
<path fill="none" stroke="#0000ff" d="M3005,-283.3848C2952.7671,-283.3848 2107.3585,-294.9467 2065,-264.3848 2020.7263,-232.4411 2071.7387,-152.0642 2031.1246,-141.53"/>
<polygon fill="#0000ff" stroke="#0000ff" points="2031.3301,-138.031 2021,-140.3848 2030.5432,-144.9866 2031.3301,-138.031"/>
</g>
<!-- dispatch_periodic_inst -->
<g id="node8" class="node">
<title>dispatch_periodic_inst</title>
<polygon fill="none" stroke="#000000" points="8,-78.3848 8,-102.3848 472,-102.3848 472,-78.3848 8,-78.3848"/>
<text text-anchor="start" x="162.5" y="-87.5848" font-family="Times,serif" font-weight="bold" font-size="16.00" fill="#000000">dispatch_periodic_inst</text>
<polygon fill="none" stroke="#000000" points="8,-54.3848 8,-78.3848 472,-78.3848 472,-54.3848 8,-54.3848"/>
<text text-anchor="start" x="11" y="-63.5848" font-family="Times,serif" font-size="16.00" fill="#0000ff">emits Notification </text>
<text text-anchor="start" x="131" y="-63.5848" font-family="Times,serif" font-weight="bold" font-size="16.00" fill="#0000ff">sb_p_tempSensor_periodic_dispatch_notification</text>
<polygon fill="none" stroke="#000000" points="8,-30.3848 8,-54.3848 472,-54.3848 472,-30.3848 8,-30.3848"/>
<text text-anchor="start" x="184.5" y="-39.5848" font-family="Times,serif" font-size="16.00" fill="#ffa500">uses Timer </text>
<text text-anchor="start" x="258.5" y="-39.5848" font-family="Times,serif" font-weight="bold" font-size="16.00" fill="#ffa500">timer</text>
<polygon fill="none" stroke="#000000" points="8,-6.3848 8,-30.3848 472,-30.3848 472,-6.3848 8,-6.3848"/>
<text text-anchor="start" x="113" y="-15.5848" font-family="Times,serif" font-size="16.00" fill="#0000ff">consumes Notification </text>
<text text-anchor="start" x="261" y="-15.5848" font-family="Times,serif" font-weight="bold" font-size="16.00" fill="#0000ff">timer_complete</text>
</g>
<!-- dispatch_periodic_inst&#45;&gt;p_tempSensor -->
<g id="conn13" class="edge">
<title>dispatch_periodic_inst:sb_p_tempSensor_periodic_dispatch_notification&#45;&gt;p_tempSensor:sb_periodic_dispatch_notification</title>
<path fill="none" stroke="#0000ff" d="M472,-66.3848C491.3765,-66.3848 498.4975,-69.1799 513.8527,-70.0971"/>
<polygon fill="#0000ff" stroke="#0000ff" points="513.9048,-73.5999 524,-70.3848 514.1032,-66.6027 513.9048,-73.5999"/>
</g>
<!-- time_server -->
<g id="node11" class="node">
<title>time_server</title>
<ellipse fill="none" stroke="#000000" cx="768" cy="-18.3848" rx="65.1077" ry="18.2703"/>
<text text-anchor="middle" x="768" y="-14.5848" font-family="Times,serif" font-size="16.00" fill="#000000">time_server</text>
</g>
<!-- dispatch_periodic_inst&#45;&gt;time_server -->
<g id="conn14" class="edge">
<title>dispatch_periodic_inst:timer&#45;&gt;time_server:the_timer</title>
<path fill="none" stroke="#00ff00" d="M472,-42.3848C549.7371,-42.3848 638.5835,-34.0594 698.4867,-27.2155"/>
<polygon fill="#00ff00" stroke="#00ff00" points="699.0546,-30.6732 708.5848,-26.0445 698.2482,-23.7198 699.0546,-30.6732"/>
</g>
<!-- connectiontypekey -->
<g id="node9" class="node">
<title>connectiontypekey</title>
<polygon fill="none" stroke="#000000" points="122,-296.3848 122,-320.3848 358,-320.3848 358,-296.3848 122,-296.3848"/>
<text text-anchor="start" x="160" y="-305.5848" font-family="Times,serif" font-weight="bold" font-size="16.00" fill="#000000">Key: Connection Types</text>
<polygon fill="none" stroke="#000000" points="122,-272.3848 122,-296.3848 308,-296.3848 308,-272.3848 122,-272.3848"/>
<text text-anchor="start" x="162.5" y="-280.5848" font-family="Times,serif" font-size="16.00" fill="#ff0000">seL4SharedData</text>
<polygon fill="#ff0000" stroke="transparent" points="308,-272.3848 308,-296.3848 358,-296.3848 358,-272.3848 308,-272.3848"/>
<polygon fill="none" stroke="#000000" points="308,-272.3848 308,-296.3848 358,-296.3848 358,-272.3848 308,-272.3848"/>
<text text-anchor="start" x="322.5" y="-280.5848" font-family="Times,serif" font-size="16.00" fill="#000000">red</text>
<polygon fill="none" stroke="#000000" points="122,-248.3848 122,-272.3848 308,-272.3848 308,-248.3848 122,-248.3848"/>
<text text-anchor="start" x="160.5" y="-256.5848" font-family="Times,serif" font-size="16.00" fill="#0000ff">seL4Notification</text>
<polygon fill="#0000ff" stroke="transparent" points="308,-248.3848 308,-272.3848 358,-272.3848 358,-248.3848 308,-248.3848"/>
<polygon fill="none" stroke="#000000" points="308,-248.3848 308,-272.3848 358,-272.3848 358,-248.3848 308,-248.3848"/>
<text text-anchor="start" x="319" y="-256.5848" font-family="Times,serif" font-size="16.00" fill="#000000">blue</text>
<polygon fill="none" stroke="#000000" points="122,-224.3848 122,-248.3848 308,-248.3848 308,-224.3848 122,-224.3848"/>
<text text-anchor="start" x="171" y="-232.5848" font-family="Times,serif" font-size="16.00" fill="#ffa500">seL4RPCCall</text>
<polygon fill="#ffa500" stroke="transparent" points="308,-224.3848 308,-248.3848 358,-248.3848 358,-224.3848 308,-224.3848"/>
<polygon fill="none" stroke="#000000" points="308,-224.3848 308,-248.3848 358,-248.3848 358,-224.3848 308,-224.3848"/>
<text text-anchor="start" x="311" y="-232.5848" font-family="Times,serif" font-size="16.00" fill="#000000">orange</text>
<polygon fill="none" stroke="#000000" points="122,-200.3848 122,-224.3848 308,-224.3848 308,-200.3848 122,-200.3848"/>
<text text-anchor="start" x="162" y="-208.5848" font-family="Times,serif" font-size="16.00" fill="#00ff00">seL4TimeServer</text>
<polygon fill="#00ff00" stroke="transparent" points="308,-200.3848 308,-224.3848 358,-224.3848 358,-200.3848 308,-200.3848"/>
<polygon fill="none" stroke="#000000" points="308,-200.3848 308,-224.3848 358,-224.3848 358,-200.3848 308,-200.3848"/>
<text text-anchor="start" x="315" y="-208.5848" font-family="Times,serif" font-size="16.00" fill="#000000">green</text>
<polygon fill="none" stroke="#000000" points="122,-176.3848 122,-200.3848 308,-200.3848 308,-176.3848 122,-176.3848"/>
<text text-anchor="start" x="125" y="-184.5848" font-family="Times,serif" font-size="16.00" fill="#a52a2a">seL4GlobalAsynchCallback</text>
<polygon fill="#a52a2a" stroke="transparent" points="308,-176.3848 308,-200.3848 358,-200.3848 358,-176.3848 308,-176.3848"/>
<polygon fill="none" stroke="#000000" points="308,-176.3848 308,-200.3848 358,-200.3848 358,-176.3848 308,-176.3848"/>
<text text-anchor="start" x="312" y="-184.5848" font-family="Times,serif" font-size="16.00" fill="#000000">brown</text>
<polygon fill="none" stroke="#000000" points="122,-152.3848 122,-176.3848 308,-176.3848 308,-152.3848 122,-152.3848"/>
<text text-anchor="start" x="131.5" y="-160.5848" font-family="Times,serif" font-size="16.00" fill="#ffff00">seL4VMDTBPassthrough</text>
<polygon fill="#ffff00" stroke="transparent" points="308,-152.3848 308,-176.3848 358,-176.3848 358,-152.3848 308,-152.3848"/>
<polygon fill="none" stroke="#000000" points="308,-152.3848 308,-176.3848 358,-176.3848 358,-152.3848 308,-152.3848"/>
<text text-anchor="start" x="311" y="-160.5848" font-family="Times,serif" font-size="16.00" fill="#000000">yellow</text>
<polygon fill="none" stroke="#000000" points="122,-128.3848 122,-152.3848 308,-152.3848 308,-128.3848 122,-128.3848"/>
<text text-anchor="start" x="130.5" y="-136.5848" font-family="Times,serif" font-size="16.00" fill="#ffc0cb">seL4SharedDataWithCaps</text>
<polygon fill="#ffc0cb" stroke="transparent" points="308,-128.3848 308,-152.3848 358,-152.3848 358,-128.3848 308,-128.3848"/>
<polygon fill="none" stroke="#000000" points="308,-128.3848 308,-152.3848 358,-152.3848 358,-128.3848 308,-128.3848"/>
<text text-anchor="start" x="318" y="-136.5848" font-family="Times,serif" font-size="16.00" fill="#000000">pink</text>
</g>
<!-- interfacetypekey -->
<g id="node10" class="node">
<title>interfacetypekey</title>
<polygon fill="none" stroke="#000000" points="166,-466.3848 166,-490.3848 314,-490.3848 314,-466.3848 166,-466.3848"/>
<text text-anchor="start" x="169" y="-475.5848" font-family="Times,serif" font-weight="bold" font-size="16.00" fill="#000000">Key: Interface Types</text>
<polygon fill="none" stroke="#000000" points="166,-442.3848 166,-466.3848 250,-466.3848 250,-442.3848 166,-442.3848"/>
<text text-anchor="start" x="181.5" y="-450.5848" font-family="Times,serif" font-size="16.00" fill="#ff0000">dataport</text>
<polygon fill="#ff0000" stroke="transparent" points="250,-442.3848 250,-466.3848 314,-466.3848 314,-442.3848 250,-442.3848"/>
<polygon fill="none" stroke="#000000" points="250,-442.3848 250,-466.3848 314,-466.3848 314,-442.3848 250,-442.3848"/>
<text text-anchor="start" x="271.5" y="-450.5848" font-family="Times,serif" font-size="16.00" fill="#000000">red</text>
<polygon fill="none" stroke="#000000" points="166,-418.3848 166,-442.3848 250,-442.3848 250,-418.3848 166,-418.3848"/>
<text text-anchor="start" x="190.5" y="-426.5848" font-family="Times,serif" font-size="16.00" fill="#0000ff">emits</text>
<polygon fill="#0000ff" stroke="transparent" points="250,-418.3848 250,-442.3848 314,-442.3848 314,-418.3848 250,-418.3848"/>
<polygon fill="none" stroke="#000000" points="250,-418.3848 250,-442.3848 314,-442.3848 314,-418.3848 250,-418.3848"/>
<text text-anchor="start" x="268" y="-426.5848" font-family="Times,serif" font-size="16.00" fill="#000000">blue</text>
<polygon fill="none" stroke="#000000" points="166,-394.3848 166,-418.3848 250,-418.3848 250,-394.3848 166,-394.3848"/>
<text text-anchor="start" x="176" y="-402.5848" font-family="Times,serif" font-size="16.00" fill="#0000ff">consumes</text>
<polygon fill="#0000ff" stroke="transparent" points="250,-394.3848 250,-418.3848 314,-418.3848 314,-394.3848 250,-394.3848"/>
<polygon fill="none" stroke="#000000" points="250,-394.3848 250,-418.3848 314,-418.3848 314,-394.3848 250,-394.3848"/>
<text text-anchor="start" x="268" y="-402.5848" font-family="Times,serif" font-size="16.00" fill="#000000">blue</text>
<polygon fill="none" stroke="#000000" points="166,-370.3848 166,-394.3848 250,-394.3848 250,-370.3848 166,-370.3848"/>
<text text-anchor="start" x="180" y="-378.5848" font-family="Times,serif" font-size="16.00" fill="#ffa500">provides</text>
<polygon fill="#ffa500" stroke="transparent" points="250,-370.3848 250,-394.3848 314,-394.3848 314,-370.3848 250,-370.3848"/>
<polygon fill="none" stroke="#000000" points="250,-370.3848 250,-394.3848 314,-394.3848 314,-370.3848 250,-370.3848"/>
<text text-anchor="start" x="260" y="-378.5848" font-family="Times,serif" font-size="16.00" fill="#000000">orange</text>
<polygon fill="none" stroke="#000000" points="166,-346.3848 166,-370.3848 250,-370.3848 250,-346.3848 166,-346.3848"/>
<text text-anchor="start" x="194" y="-354.5848" font-family="Times,serif" font-size="16.00" fill="#ffa500">uses</text>
<polygon fill="#ffa500" stroke="transparent" points="250,-346.3848 250,-370.3848 314,-370.3848 314,-346.3848 250,-346.3848"/>
<polygon fill="none" stroke="#000000" points="250,-346.3848 250,-370.3848 314,-370.3848 314,-346.3848 250,-346.3848"/>
<text text-anchor="start" x="260" y="-354.5848" font-family="Times,serif" font-size="16.00" fill="#000000">orange</text>
</g>
<!-- time_server&#45;&gt;dispatch_periodic_inst -->
<g id="conn15" class="edge">
<title>time_server:timer_notification&#45;&gt;dispatch_periodic_inst:timer_complete</title>
<path fill="none" stroke="#a52a2a" d="M702.7473,-18.3848C645.3479,-18.3848 559.1904,-18.3848 482.2975,-18.3848"/>
<polygon fill="#a52a2a" stroke="#a52a2a" points="482,-14.8849 472,-18.3848 482,-21.8849 482,-14.8849"/>
</g>
</g>
</svg>
