<?xml version="1.0" encoding="UTF-8" standalone="no"?>
<!DOCTYPE svg PUBLIC "-//W3C//DTD SVG 1.1//EN"
 "http://www.w3.org/Graphics/SVG/1.1/DTD/svg11.dtd">
<!-- Generated by graphviz version 2.40.1 (20161225.0304)
 -->
<!-- Title: g Pages: 1 -->
<svg width="1946pt" height="502pt"
 viewBox="0.00 0.00 1946.00 502.38" xmlns="http://www.w3.org/2000/svg" xmlns:xlink="http://www.w3.org/1999/xlink">
<g id="graph0" class="graph" transform="scale(1 1) rotate(0) translate(4 498.3848)">
<title>g</title>
<polygon fill="#ffffff" stroke="transparent" points="-4,4 -4,-498.3848 1942,-498.3848 1942,4 -4,4"/>
<!-- p_tempSensor -->
<g id="node1" class="node">
<title>p_tempSensor</title>
<polygon fill="none" stroke="#000000" points="524,-154.3848 524,-178.3848 910,-178.3848 910,-154.3848 524,-154.3848"/>
<text text-anchor="start" x="668" y="-163.5848" font-family="Times,serif" font-weight="bold" font-size="16.00" fill="#000000">p_tempSensor</text>
<polygon fill="none" stroke="#000000" points="524,-130.3848 524,-154.3848 910,-154.3848 910,-130.3848 524,-130.3848"/>
<text text-anchor="start" x="536.5" y="-139.5848" font-family="Times,serif" font-size="16.00" fill="#ff0000">dataport sp_union_art_DataContent_t </text>
<text text-anchor="start" x="783.5" y="-139.5848" font-family="Times,serif" font-weight="bold" font-size="16.00" fill="#ff0000">sb_currentTemp</text>
<polygon fill="none" stroke="#000000" points="524,-106.3848 524,-130.3848 910,-130.3848 910,-106.3848 524,-106.3848"/>
<text text-anchor="start" x="533.5" y="-115.5848" font-family="Times,serif" font-size="16.00" fill="#ff0000">dataport sb_event_counter_t </text>
<text text-anchor="start" x="720.5" y="-115.5848" font-family="Times,serif" font-weight="bold" font-size="16.00" fill="#ff0000">sb_tempChanged_counter</text>
<polygon fill="none" stroke="#000000" points="524,-82.3848 524,-106.3848 910,-106.3848 910,-82.3848 524,-82.3848"/>
<text text-anchor="start" x="592" y="-91.5848" font-family="Times,serif" font-size="16.00" fill="#0000ff">emits ReceiveEvent </text>
<text text-anchor="start" x="722" y="-91.5848" font-family="Times,serif" font-weight="bold" font-size="16.00" fill="#0000ff">sb_tempChanged</text>
<polygon fill="none" stroke="#000000" points="524,-58.3848 524,-82.3848 910,-82.3848 910,-58.3848 524,-58.3848"/>
<text text-anchor="start" x="527" y="-67.5848" font-family="Times,serif" font-size="16.00" fill="#0000ff">consumes Notification </text>
<text text-anchor="start" x="675" y="-67.5848" font-family="Times,serif" font-weight="bold" font-size="16.00" fill="#0000ff">sb_periodic_dispatch_notification</text>
</g>
<!-- p_tempControl -->
<g id="node2" class="node">
<title>p_tempControl</title>
<polygon fill="none" stroke="#000000" points="962.5,-202.3848 962.5,-226.3848 1423.5,-226.3848 1423.5,-202.3848 962.5,-202.3848"/>
<text text-anchor="start" x="1140" y="-211.5848" font-family="Times,serif" font-weight="bold" font-size="16.00" fill="#000000">p_tempControl</text>
<polygon fill="none" stroke="#000000" points="962.5,-178.3848 962.5,-202.3848 1423.5,-202.3848 1423.5,-178.3848 962.5,-178.3848"/>
<text text-anchor="start" x="1012.5" y="-187.5848" font-family="Times,serif" font-size="16.00" fill="#ff0000">dataport sp_union_art_DataContent_t </text>
<text text-anchor="start" x="1259.5" y="-187.5848" font-family="Times,serif" font-weight="bold" font-size="16.00" fill="#ff0000">sb_currentTemp</text>
<polygon fill="none" stroke="#000000" points="962.5,-154.3848 962.5,-178.3848 1423.5,-178.3848 1423.5,-154.3848 962.5,-154.3848"/>
<text text-anchor="start" x="977" y="-163.5848" font-family="Times,serif" font-size="16.00" fill="#ff0000">dataport sb_queue_union_art_DataContent_1_t </text>
<text text-anchor="start" x="1287" y="-163.5848" font-family="Times,serif" font-weight="bold" font-size="16.00" fill="#ff0000">sb_fanAck_queue</text>
<polygon fill="none" stroke="#000000" points="962.5,-130.3848 962.5,-154.3848 1423.5,-154.3848 1423.5,-130.3848 962.5,-130.3848"/>
<text text-anchor="start" x="965.5" y="-139.5848" font-family="Times,serif" font-size="16.00" fill="#ff0000">dataport sb_queue_union_art_DataContent_1_t </text>
<text text-anchor="start" x="1275.5" y="-139.5848" font-family="Times,serif" font-weight="bold" font-size="16.00" fill="#ff0000">sb_fanCmd_queue_1</text>
<polygon fill="none" stroke="#000000" points="962.5,-106.3848 962.5,-130.3848 1423.5,-130.3848 1423.5,-106.3848 962.5,-106.3848"/>
<text text-anchor="start" x="1009.5" y="-115.5848" font-family="Times,serif" font-size="16.00" fill="#ff0000">dataport sb_event_counter_t </text>
<text text-anchor="start" x="1196.5" y="-115.5848" font-family="Times,serif" font-weight="bold" font-size="16.00" fill="#ff0000">sb_tempChanged_counter</text>
<polygon fill="none" stroke="#000000" points="962.5,-82.3848 962.5,-106.3848 1423.5,-106.3848 1423.5,-82.3848 962.5,-82.3848"/>
<text text-anchor="start" x="1036" y="-91.5848" font-family="Times,serif" font-size="16.00" fill="#0000ff">emits ReceiveEvent </text>
<text text-anchor="start" x="1166" y="-91.5848" font-family="Times,serif" font-weight="bold" font-size="16.00" fill="#0000ff">sb_fanCmd_1_notification</text>
<polygon fill="none" stroke="#000000" points="962.5,-58.3848 962.5,-82.3848 1423.5,-82.3848 1423.5,-58.3848 962.5,-58.3848"/>
<text text-anchor="start" x="1033.5" y="-67.5848" font-family="Times,serif" font-size="16.00" fill="#0000ff">consumes ReceiveEvent </text>
<text text-anchor="start" x="1192.5" y="-67.5848" font-family="Times,serif" font-weight="bold" font-size="16.00" fill="#0000ff">sb_fanAck_notification</text>
<polygon fill="none" stroke="#000000" points="962.5,-34.3848 962.5,-58.3848 1423.5,-58.3848 1423.5,-34.3848 962.5,-34.3848"/>
<text text-anchor="start" x="1053.5" y="-43.5848" font-family="Times,serif" font-size="16.00" fill="#0000ff">consumes ReceiveEvent </text>
<text text-anchor="start" x="1212.5" y="-43.5848" font-family="Times,serif" font-weight="bold" font-size="16.00" fill="#0000ff">sb_tempChanged</text>
</g>
<!-- p_tempSensor&#45;&gt;p_tempControl -->
<g id="conn1" class="edge">
<title>p_tempSensor:sb_currentTemp&#45;&gt;p_tempControl:sb_currentTemp</title>
<path fill="none" stroke="#ff0000" d="M910,-142.3848C937.6638,-142.3848 932.9055,-179.1348 952.4637,-188.3223"/>
<polygon fill="#ff0000" stroke="#ff0000" points="952.0001,-191.8001 962.5,-190.3848 953.4093,-184.9434 952.0001,-191.8001"/>
</g>
<!-- p_tempSensor&#45;&gt;p_tempControl -->
<g id="conn2" class="edge">
<title>p_tempSensor:sb_tempChanged&#45;&gt;p_tempControl:sb_tempChanged</title>
<path fill="none" stroke="#0000ff" d="M910,-94.3848C937.6638,-94.3848 932.9055,-57.6348 952.4637,-48.4473"/>
<polygon fill="#0000ff" stroke="#0000ff" points="953.4093,-51.8262 962.5,-46.3848 952.0001,-44.9695 953.4093,-51.8262"/>
</g>
<!-- p_tempSensor&#45;&gt;p_tempControl -->
<g id="conn3" class="edge">
<title>p_tempSensor:sb_tempChanged_counter&#45;&gt;p_tempControl:sb_tempChanged_counter</title>
<path fill="none" stroke="#ff0000" d="M910,-118.3848C929.5052,-118.3848 936.7816,-118.3848 952.2742,-118.3848"/>
<polygon fill="#ff0000" stroke="#ff0000" points="952.5,-121.8849 962.5,-118.3848 952.5,-114.8849 952.5,-121.8849"/>
</g>
<!-- p_fan -->
<g id="node3" class="node">
<title>p_fan</title>
<polygon fill="none" stroke="#000000" points="1475.5,-166.3848 1475.5,-190.3848 1930.5,-190.3848 1930.5,-166.3848 1475.5,-166.3848"/>
<text text-anchor="start" x="1683" y="-175.5848" font-family="Times,serif" font-weight="bold" font-size="16.00" fill="#000000">p_fan</text>
<polygon fill="none" stroke="#000000" points="1475.5,-142.3848 1475.5,-166.3848 1930.5,-166.3848 1930.5,-142.3848 1475.5,-142.3848"/>
<text text-anchor="start" x="1483.5" y="-151.5848" font-family="Times,serif" font-size="16.00" fill="#ff0000">dataport sb_queue_union_art_DataContent_1_t </text>
<text text-anchor="start" x="1793.5" y="-151.5848" font-family="Times,serif" font-weight="bold" font-size="16.00" fill="#ff0000">sb_fanCmd_queue</text>
<polygon fill="none" stroke="#000000" points="1475.5,-118.3848 1475.5,-142.3848 1930.5,-142.3848 1930.5,-118.3848 1475.5,-118.3848"/>
<text text-anchor="start" x="1478.5" y="-127.5848" font-family="Times,serif" font-size="16.00" fill="#ff0000">dataport sb_queue_union_art_DataContent_1_t </text>
<text text-anchor="start" x="1788.5" y="-127.5848" font-family="Times,serif" font-weight="bold" font-size="16.00" fill="#ff0000">sb_fanAck_queue_1</text>
<polygon fill="none" stroke="#000000" points="1475.5,-94.3848 1475.5,-118.3848 1930.5,-118.3848 1930.5,-94.3848 1475.5,-94.3848"/>
<text text-anchor="start" x="1549.5" y="-103.5848" font-family="Times,serif" font-size="16.00" fill="#0000ff">emits ReceiveEvent </text>
<text text-anchor="start" x="1679.5" y="-103.5848" font-family="Times,serif" font-weight="bold" font-size="16.00" fill="#0000ff">sb_fanAck_1_notification</text>
<polygon fill="none" stroke="#000000" points="1475.5,-70.3848 1475.5,-94.3848 1930.5,-94.3848 1930.5,-70.3848 1475.5,-70.3848"/>
<text text-anchor="start" x="1540" y="-79.5848" font-family="Times,serif" font-size="16.00" fill="#0000ff">consumes ReceiveEvent </text>
<text text-anchor="start" x="1699" y="-79.5848" font-family="Times,serif" font-weight="bold" font-size="16.00" fill="#0000ff">sb_fanCmd_notification</text>
</g>
<!-- p_tempControl&#45;&gt;p_fan -->
<g id="conn4" class="edge">
<title>p_tempControl:sb_fanCmd_1_notification&#45;&gt;p_fan:sb_fanCmd_notification</title>
<path fill="none" stroke="#0000ff" d="M1423.5,-94.3848C1443.3272,-94.3848 1449.7687,-85.9993 1465.2037,-83.2478"/>
<polygon fill="#0000ff" stroke="#0000ff" points="1465.8273,-86.7079 1475.5,-82.3848 1465.2426,-79.7323 1465.8273,-86.7079"/>
</g>
<!-- p_tempControl&#45;&gt;p_fan -->
<g id="conn5" class="edge">
<title>p_tempControl:sb_fanCmd_queue_1&#45;&gt;p_fan:sb_fanCmd_queue</title>
<path fill="none" stroke="#ff0000" d="M1423.5,-142.3848C1443.3272,-142.3848 1449.7687,-150.7703 1465.2037,-153.5218"/>
<polygon fill="#ff0000" stroke="#ff0000" points="1465.2426,-157.0372 1475.5,-154.3848 1465.8273,-150.0617 1465.2426,-157.0372"/>
</g>
<!-- p_fan&#45;&gt;p_tempControl -->
<g id="conn6" class="edge">
<title>p_fan:sb_fanAck_1_notification&#45;&gt;p_tempControl:sb_fanAck_notification</title>
<path fill="none" stroke="#0000ff" d="M1475.5,-106.3848C1451.3437,-106.3848 1451.062,-79.7979 1433.6205,-72.3203"/>
<polygon fill="#0000ff" stroke="#0000ff" points="1433.9795,-68.8256 1423.5,-70.3848 1432.6645,-75.701 1433.9795,-68.8256"/>
</g>
<!-- p_fan&#45;&gt;p_tempControl -->
<g id="conn7" class="edge">
<title>p_fan:sb_fanAck_queue_1&#45;&gt;p_tempControl:sb_fanAck_queue</title>
<path fill="none" stroke="#ff0000" d="M1475.5,-130.3848C1451.3437,-130.3848 1451.062,-156.9717 1433.6205,-164.4493"/>
<polygon fill="#ff0000" stroke="#ff0000" points="1432.6645,-161.0686 1423.5,-166.3848 1433.9795,-167.944 1432.6645,-161.0686"/>
</g>
<!-- dispatch_periodic_inst -->
<g id="node4" class="node">
<title>dispatch_periodic_inst</title>
<polygon fill="none" stroke="#000000" points="8,-78.3848 8,-102.3848 472,-102.3848 472,-78.3848 8,-78.3848"/>
<text text-anchor="start" x="162.5" y="-87.5848" font-family="Times,serif" font-weight="bold" font-size="16.00" fill="#000000">dispatch_periodic_inst</text>
<polygon fill="none" stroke="#000000" points="8,-54.3848 8,-78.3848 472,-78.3848 472,-54.3848 8,-54.3848"/>
<text text-anchor="start" x="11" y="-63.5848" font-family="Times,serif" font-size="16.00" fill="#0000ff">emits Notification </text>
<text text-anchor="start" x="131" y="-63.5848" font-family="Times,serif" font-weight="bold" font-size="16.00" fill="#0000ff">sb_p_tempSensor_periodic_dispatch_notification</text>
<polygon fill="none" stroke="#000000" points="8,-30.3848 8,-54.3848 472,-54.3848 472,-30.3848 8,-30.3848"/>
<text text-anchor="start" x="184.5" y="-39.5848" font-family="Times,serif" font-size="16.00" fill="#ffa500">uses Timer </text>
<text text-anchor="start" x="258.5" y="-39.5848" font-family="Times,serif" font-weight="bold" font-size="16.00" fill="#ffa500">timer</text>
<polygon fill="none" stroke="#000000" points="8,-6.3848 8,-30.3848 472,-30.3848 472,-6.3848 8,-6.3848"/>
<text text-anchor="start" x="113" y="-15.5848" font-family="Times,serif" font-size="16.00" fill="#0000ff">consumes Notification </text>
<text text-anchor="start" x="261" y="-15.5848" font-family="Times,serif" font-weight="bold" font-size="16.00" fill="#0000ff">timer_complete</text>
</g>
<!-- dispatch_periodic_inst&#45;&gt;p_tempSensor -->
<g id="conn8" class="edge">
<title>dispatch_periodic_inst:sb_p_tempSensor_periodic_dispatch_notification&#45;&gt;p_tempSensor:sb_periodic_dispatch_notification</title>
<path fill="none" stroke="#0000ff" d="M472,-66.3848C491.3765,-66.3848 498.4975,-69.1799 513.8527,-70.0971"/>
<polygon fill="#0000ff" stroke="#0000ff" points="513.9048,-73.5999 524,-70.3848 514.1032,-66.6027 513.9048,-73.5999"/>
</g>
<!-- time_server -->
<g id="node7" class="node">
<title>time_server</title>
<ellipse fill="none" stroke="#000000" cx="717" cy="-18.3848" rx="65.1077" ry="18.2703"/>
<text text-anchor="middle" x="717" y="-14.5848" font-family="Times,serif" font-size="16.00" fill="#000000">time_server</text>
</g>
<!-- dispatch_periodic_inst&#45;&gt;time_server -->
<g id="conn9" class="edge">
<title>dispatch_periodic_inst:timer&#45;&gt;time_server:the_timer</title>
<path fill="none" stroke="#00ff00" d="M472,-42.3848C532.2493,-42.3848 600.4375,-35.107 649.5509,-28.5667"/>
<polygon fill="#00ff00" stroke="#00ff00" points="650.2934,-31.9982 659.732,-27.1852 649.3521,-25.0617 650.2934,-31.9982"/>
</g>
<!-- connectiontypekey -->
<g id="node5" class="node">
<title>connectiontypekey</title>
<polygon fill="none" stroke="#000000" points="122,-296.3848 122,-320.3848 358,-320.3848 358,-296.3848 122,-296.3848"/>
<text text-anchor="start" x="160" y="-305.5848" font-family="Times,serif" font-weight="bold" font-size="16.00" fill="#000000">Key: Connection Types</text>
<polygon fill="none" stroke="#000000" points="122,-272.3848 122,-296.3848 308,-296.3848 308,-272.3848 122,-272.3848"/>
<text text-anchor="start" x="162.5" y="-280.5848" font-family="Times,serif" font-size="16.00" fill="#ff0000">seL4SharedData</text>
<polygon fill="#ff0000" stroke="transparent" points="308,-272.3848 308,-296.3848 358,-296.3848 358,-272.3848 308,-272.3848"/>
<polygon fill="none" stroke="#000000" points="308,-272.3848 308,-296.3848 358,-296.3848 358,-272.3848 308,-272.3848"/>
<text text-anchor="start" x="322.5" y="-280.5848" font-family="Times,serif" font-size="16.00" fill="#000000">red</text>
<polygon fill="none" stroke="#000000" points="122,-248.3848 122,-272.3848 308,-272.3848 308,-248.3848 122,-248.3848"/>
<text text-anchor="start" x="160.5" y="-256.5848" font-family="Times,serif" font-size="16.00" fill="#0000ff">seL4Notification</text>
<polygon fill="#0000ff" stroke="transparent" points="308,-248.3848 308,-272.3848 358,-272.3848 358,-248.3848 308,-248.3848"/>
<polygon fill="none" stroke="#000000" points="308,-248.3848 308,-272.3848 358,-272.3848 358,-248.3848 308,-248.3848"/>
<text text-anchor="start" x="319" y="-256.5848" font-family="Times,serif" font-size="16.00" fill="#000000">blue</text>
<polygon fill="none" stroke="#000000" points="122,-224.3848 122,-248.3848 308,-248.3848 308,-224.3848 122,-224.3848"/>
<text text-anchor="start" x="171" y="-232.5848" font-family="Times,serif" font-size="16.00" fill="#ffa500">seL4RPCCall</text>
<polygon fill="#ffa500" stroke="transparent" points="308,-224.3848 308,-248.3848 358,-248.3848 358,-224.3848 308,-224.3848"/>
<polygon fill="none" stroke="#000000" points="308,-224.3848 308,-248.3848 358,-248.3848 358,-224.3848 308,-224.3848"/>
<text text-anchor="start" x="311" y="-232.5848" font-family="Times,serif" font-size="16.00" fill="#000000">orange</text>
<polygon fill="none" stroke="#000000" points="122,-200.3848 122,-224.3848 308,-224.3848 308,-200.3848 122,-200.3848"/>
<text text-anchor="start" x="162" y="-208.5848" font-family="Times,serif" font-size="16.00" fill="#00ff00">seL4TimeServer</text>
<polygon fill="#00ff00" stroke="transparent" points="308,-200.3848 308,-224.3848 358,-224.3848 358,-200.3848 308,-200.3848"/>
<polygon fill="none" stroke="#000000" points="308,-200.3848 308,-224.3848 358,-224.3848 358,-200.3848 308,-200.3848"/>
<text text-anchor="start" x="315" y="-208.5848" font-family="Times,serif" font-size="16.00" fill="#000000">green</text>
<polygon fill="none" stroke="#000000" points="122,-176.3848 122,-200.3848 308,-200.3848 308,-176.3848 122,-176.3848"/>
<text text-anchor="start" x="125" y="-184.5848" font-family="Times,serif" font-size="16.00" fill="#a52a2a">seL4GlobalAsynchCallback</text>
<polygon fill="#a52a2a" stroke="transparent" points="308,-176.3848 308,-200.3848 358,-200.3848 358,-176.3848 308,-176.3848"/>
<polygon fill="none" stroke="#000000" points="308,-176.3848 308,-200.3848 358,-200.3848 358,-176.3848 308,-176.3848"/>
<text text-anchor="start" x="312" y="-184.5848" font-family="Times,serif" font-size="16.00" fill="#000000">brown</text>
<polygon fill="none" stroke="#000000" points="122,-152.3848 122,-176.3848 308,-176.3848 308,-152.3848 122,-152.3848"/>
<text text-anchor="start" x="131.5" y="-160.5848" font-family="Times,serif" font-size="16.00" fill="#ffff00">seL4VMDTBPassthrough</text>
<polygon fill="#ffff00" stroke="transparent" points="308,-152.3848 308,-176.3848 358,-176.3848 358,-152.3848 308,-152.3848"/>
<polygon fill="none" stroke="#000000" points="308,-152.3848 308,-176.3848 358,-176.3848 358,-152.3848 308,-152.3848"/>
<text text-anchor="start" x="311" y="-160.5848" font-family="Times,serif" font-size="16.00" fill="#000000">yellow</text>
<polygon fill="none" stroke="#000000" points="122,-128.3848 122,-152.3848 308,-152.3848 308,-128.3848 122,-128.3848"/>
<text text-anchor="start" x="130.5" y="-136.5848" font-family="Times,serif" font-size="16.00" fill="#ffc0cb">seL4SharedDataWithCaps</text>
<polygon fill="#ffc0cb" stroke="transparent" points="308,-128.3848 308,-152.3848 358,-152.3848 358,-128.3848 308,-128.3848"/>
<polygon fill="none" stroke="#000000" points="308,-128.3848 308,-152.3848 358,-152.3848 358,-128.3848 308,-128.3848"/>
<text text-anchor="start" x="318" y="-136.5848" font-family="Times,serif" font-size="16.00" fill="#000000">pink</text>
</g>
<!-- interfacetypekey -->
<g id="node6" class="node">
<title>interfacetypekey</title>
<polygon fill="none" stroke="#000000" points="166,-466.3848 166,-490.3848 314,-490.3848 314,-466.3848 166,-466.3848"/>
<text text-anchor="start" x="169" y="-475.5848" font-family="Times,serif" font-weight="bold" font-size="16.00" fill="#000000">Key: Interface Types</text>
<polygon fill="none" stroke="#000000" points="166,-442.3848 166,-466.3848 250,-466.3848 250,-442.3848 166,-442.3848"/>
<text text-anchor="start" x="181.5" y="-450.5848" font-family="Times,serif" font-size="16.00" fill="#ff0000">dataport</text>
<polygon fill="#ff0000" stroke="transparent" points="250,-442.3848 250,-466.3848 314,-466.3848 314,-442.3848 250,-442.3848"/>
<polygon fill="none" stroke="#000000" points="250,-442.3848 250,-466.3848 314,-466.3848 314,-442.3848 250,-442.3848"/>
<text text-anchor="start" x="271.5" y="-450.5848" font-family="Times,serif" font-size="16.00" fill="#000000">red</text>
<polygon fill="none" stroke="#000000" points="166,-418.3848 166,-442.3848 250,-442.3848 250,-418.3848 166,-418.3848"/>
<text text-anchor="start" x="190.5" y="-426.5848" font-family="Times,serif" font-size="16.00" fill="#0000ff">emits</text>
<polygon fill="#0000ff" stroke="transparent" points="250,-418.3848 250,-442.3848 314,-442.3848 314,-418.3848 250,-418.3848"/>
<polygon fill="none" stroke="#000000" points="250,-418.3848 250,-442.3848 314,-442.3848 314,-418.3848 250,-418.3848"/>
<text text-anchor="start" x="268" y="-426.5848" font-family="Times,serif" font-size="16.00" fill="#000000">blue</text>
<polygon fill="none" stroke="#000000" points="166,-394.3848 166,-418.3848 250,-418.3848 250,-394.3848 166,-394.3848"/>
<text text-anchor="start" x="176" y="-402.5848" font-family="Times,serif" font-size="16.00" fill="#0000ff">consumes</text>
<polygon fill="#0000ff" stroke="transparent" points="250,-394.3848 250,-418.3848 314,-418.3848 314,-394.3848 250,-394.3848"/>
<polygon fill="none" stroke="#000000" points="250,-394.3848 250,-418.3848 314,-418.3848 314,-394.3848 250,-394.3848"/>
<text text-anchor="start" x="268" y="-402.5848" font-family="Times,serif" font-size="16.00" fill="#000000">blue</text>
<polygon fill="none" stroke="#000000" points="166,-370.3848 166,-394.3848 250,-394.3848 250,-370.3848 166,-370.3848"/>
<text text-anchor="start" x="180" y="-378.5848" font-family="Times,serif" font-size="16.00" fill="#ffa500">provides</text>
<polygon fill="#ffa500" stroke="transparent" points="250,-370.3848 250,-394.3848 314,-394.3848 314,-370.3848 250,-370.3848"/>
<polygon fill="none" stroke="#000000" points="250,-370.3848 250,-394.3848 314,-394.3848 314,-370.3848 250,-370.3848"/>
<text text-anchor="start" x="260" y="-378.5848" font-family="Times,serif" font-size="16.00" fill="#000000">orange</text>
<polygon fill="none" stroke="#000000" points="166,-346.3848 166,-370.3848 250,-370.3848 250,-346.3848 166,-346.3848"/>
<text text-anchor="start" x="194" y="-354.5848" font-family="Times,serif" font-size="16.00" fill="#ffa500">uses</text>
<polygon fill="#ffa500" stroke="transparent" points="250,-346.3848 250,-370.3848 314,-370.3848 314,-346.3848 250,-346.3848"/>
<polygon fill="none" stroke="#000000" points="250,-346.3848 250,-370.3848 314,-370.3848 314,-346.3848 250,-346.3848"/>
<text text-anchor="start" x="260" y="-354.5848" font-family="Times,serif" font-size="16.00" fill="#000000">orange</text>
</g>
<!-- time_server&#45;&gt;dispatch_periodic_inst -->
<g id="conn10" class="edge">
<title>time_server:timer_notification&#45;&gt;dispatch_periodic_inst:timer_complete</title>
<path fill="none" stroke="#a52a2a" d="M651.7464,-18.3848C605.0852,-18.3848 540.4675,-18.3848 482.0683,-18.3848"/>
<polygon fill="#a52a2a" stroke="#a52a2a" points="482,-14.8849 472,-18.3848 482,-21.8849 482,-14.8849"/>
</g>
</g>
</svg>
