<?xml version="1.0" encoding="UTF-8" standalone="no"?>
<!DOCTYPE svg PUBLIC "-//W3C//DTD SVG 1.1//EN"
 "http://www.w3.org/Graphics/SVG/1.1/DTD/svg11.dtd">
<!-- Generated by graphviz version 2.40.1 (20161225.0304)
 -->
<!-- Title: g Pages: 1 -->
<svg width="2114pt" height="502pt"
 viewBox="0.00 0.00 2114.00 502.38" xmlns="http://www.w3.org/2000/svg" xmlns:xlink="http://www.w3.org/1999/xlink">
<g id="graph0" class="graph" transform="scale(1 1) rotate(0) translate(4 498.3848)">
<title>g</title>
<polygon fill="#ffffff" stroke="transparent" points="-4,4 -4,-498.3848 2110,-498.3848 2110,4 -4,4"/>
<!-- p_tempSensor -->
<g id="node1" class="node">
<title>p_tempSensor</title>
<polygon fill="none" stroke="#000000" points="524.5,-154.3848 524.5,-178.3848 981.5,-178.3848 981.5,-154.3848 524.5,-154.3848"/>
<text text-anchor="start" x="704" y="-163.5848" font-family="Times,serif" font-weight="bold" font-size="16.00" fill="#000000">p_tempSensor</text>
<polygon fill="none" stroke="#000000" points="524.5,-130.3848 524.5,-154.3848 981.5,-154.3848 981.5,-130.3848 524.5,-130.3848"/>
<text text-anchor="start" x="527.5" y="-139.5848" font-family="Times,serif" font-size="16.00" fill="#ff0000">dataport sp_TemperatureControl__Temperature_i_t </text>
<text text-anchor="start" x="864.5" y="-139.5848" font-family="Times,serif" font-weight="bold" font-size="16.00" fill="#ff0000">sb_currentTemp</text>
<polygon fill="none" stroke="#000000" points="524.5,-106.3848 524.5,-130.3848 981.5,-130.3848 981.5,-106.3848 524.5,-106.3848"/>
<text text-anchor="start" x="569.5" y="-115.5848" font-family="Times,serif" font-size="16.00" fill="#ff0000">dataport sb_event_counter_t </text>
<text text-anchor="start" x="756.5" y="-115.5848" font-family="Times,serif" font-weight="bold" font-size="16.00" fill="#ff0000">sb_tempChanged_counter</text>
<polygon fill="none" stroke="#000000" points="524.5,-82.3848 524.5,-106.3848 981.5,-106.3848 981.5,-82.3848 524.5,-82.3848"/>
<text text-anchor="start" x="628" y="-91.5848" font-family="Times,serif" font-size="16.00" fill="#0000ff">emits ReceiveEvent </text>
<text text-anchor="start" x="758" y="-91.5848" font-family="Times,serif" font-weight="bold" font-size="16.00" fill="#0000ff">sb_tempChanged</text>
<polygon fill="none" stroke="#000000" points="524.5,-58.3848 524.5,-82.3848 981.5,-82.3848 981.5,-58.3848 524.5,-58.3848"/>
<text text-anchor="start" x="563" y="-67.5848" font-family="Times,serif" font-size="16.00" fill="#0000ff">consumes Notification </text>
<text text-anchor="start" x="711" y="-67.5848" font-family="Times,serif" font-weight="bold" font-size="16.00" fill="#0000ff">sb_periodic_dispatch_notification</text>
</g>
<!-- p_tempControl -->
<g id="node2" class="node">
<title>p_tempControl</title>
<polygon fill="none" stroke="#000000" points="1033,-202.3848 1033,-226.3848 1545,-226.3848 1545,-202.3848 1033,-202.3848"/>
<text text-anchor="start" x="1236" y="-211.5848" font-family="Times,serif" font-weight="bold" font-size="16.00" fill="#000000">p_tempControl</text>
<polygon fill="none" stroke="#000000" points="1033,-178.3848 1033,-202.3848 1545,-202.3848 1545,-178.3848 1033,-178.3848"/>
<text text-anchor="start" x="1063.5" y="-187.5848" font-family="Times,serif" font-size="16.00" fill="#ff0000">dataport sp_TemperatureControl__Temperature_i_t </text>
<text text-anchor="start" x="1400.5" y="-187.5848" font-family="Times,serif" font-weight="bold" font-size="16.00" fill="#ff0000">sb_currentTemp</text>
<polygon fill="none" stroke="#000000" points="1033,-154.3848 1033,-178.3848 1545,-178.3848 1545,-154.3848 1033,-154.3848"/>
<text text-anchor="start" x="1050" y="-163.5848" font-family="Times,serif" font-size="16.00" fill="#ff0000">dataport sb_queue_TemperatureControl__FanAck_1_t </text>
<text text-anchor="start" x="1406" y="-163.5848" font-family="Times,serif" font-weight="bold" font-size="16.00" fill="#ff0000">sb_fanAck_queue</text>
<polygon fill="none" stroke="#000000" points="1033,-130.3848 1033,-154.3848 1545,-154.3848 1545,-130.3848 1033,-130.3848"/>
<text text-anchor="start" x="1036" y="-139.5848" font-family="Times,serif" font-size="16.00" fill="#ff0000">dataport sb_queue_TemperatureControl__FanCmd_1_t </text>
<text text-anchor="start" x="1397" y="-139.5848" font-family="Times,serif" font-weight="bold" font-size="16.00" fill="#ff0000">sb_fanCmd_queue_1</text>
<polygon fill="none" stroke="#000000" points="1033,-106.3848 1033,-130.3848 1545,-130.3848 1545,-106.3848 1033,-106.3848"/>
<text text-anchor="start" x="1105.5" y="-115.5848" font-family="Times,serif" font-size="16.00" fill="#ff0000">dataport sb_event_counter_t </text>
<text text-anchor="start" x="1292.5" y="-115.5848" font-family="Times,serif" font-weight="bold" font-size="16.00" fill="#ff0000">sb_tempChanged_counter</text>
<polygon fill="none" stroke="#000000" points="1033,-82.3848 1033,-106.3848 1545,-106.3848 1545,-82.3848 1033,-82.3848"/>
<text text-anchor="start" x="1132" y="-91.5848" font-family="Times,serif" font-size="16.00" fill="#0000ff">emits ReceiveEvent </text>
<text text-anchor="start" x="1262" y="-91.5848" font-family="Times,serif" font-weight="bold" font-size="16.00" fill="#0000ff">sb_fanCmd_1_notification</text>
<polygon fill="none" stroke="#000000" points="1033,-58.3848 1033,-82.3848 1545,-82.3848 1545,-58.3848 1033,-58.3848"/>
<text text-anchor="start" x="1129.5" y="-67.5848" font-family="Times,serif" font-size="16.00" fill="#0000ff">consumes ReceiveEvent </text>
<text text-anchor="start" x="1288.5" y="-67.5848" font-family="Times,serif" font-weight="bold" font-size="16.00" fill="#0000ff">sb_fanAck_notification</text>
<polygon fill="none" stroke="#000000" points="1033,-34.3848 1033,-58.3848 1545,-58.3848 1545,-34.3848 1033,-34.3848"/>
<text text-anchor="start" x="1149.5" y="-43.5848" font-family="Times,serif" font-size="16.00" fill="#0000ff">consumes ReceiveEvent </text>
<text text-anchor="start" x="1308.5" y="-43.5848" font-family="Times,serif" font-weight="bold" font-size="16.00" fill="#0000ff">sb_tempChanged</text>
</g>
<!-- p_tempSensor&#45;&gt;p_tempControl -->
<g id="conn1" class="edge">
<title>p_tempSensor:sb_currentTemp&#45;&gt;p_tempControl:sb_currentTemp</title>
<path fill="none" stroke="#ff0000" d="M981.5,-142.3848C1008.878,-142.3848 1003.8184,-179.1348 1023.087,-188.3223"/>
<polygon fill="#ff0000" stroke="#ff0000" points="1022.4967,-191.7743 1033,-190.3848 1023.9226,-184.9211 1022.4967,-191.7743"/>
</g>
<!-- p_tempSensor&#45;&gt;p_tempControl -->
<g id="conn2" class="edge">
<title>p_tempSensor:sb_tempChanged&#45;&gt;p_tempControl:sb_tempChanged</title>
<path fill="none" stroke="#0000ff" d="M981.5,-94.3848C1008.878,-94.3848 1003.8184,-57.6348 1023.087,-48.4473"/>
<polygon fill="#0000ff" stroke="#0000ff" points="1023.9226,-51.8485 1033,-46.3848 1022.4967,-44.9952 1023.9226,-51.8485"/>
</g>
<!-- p_tempSensor&#45;&gt;p_tempControl -->
<g id="conn3" class="edge">
<title>p_tempSensor:sb_tempChanged_counter&#45;&gt;p_tempControl:sb_tempChanged_counter</title>
<path fill="none" stroke="#ff0000" d="M981.5,-118.3848C1000.6337,-118.3848 1007.7714,-118.3848 1022.969,-118.3848"/>
<polygon fill="#ff0000" stroke="#ff0000" points="1023,-121.8849 1033,-118.3848 1023,-114.8849 1023,-121.8849"/>
</g>
<!-- p_fan -->
<g id="node3" class="node">
<title>p_fan</title>
<polygon fill="none" stroke="#000000" points="1597.5,-166.3848 1597.5,-190.3848 2098.5,-190.3848 2098.5,-166.3848 1597.5,-166.3848"/>
<text text-anchor="start" x="1828" y="-175.5848" font-family="Times,serif" font-weight="bold" font-size="16.00" fill="#000000">p_fan</text>
<polygon fill="none" stroke="#000000" points="1597.5,-142.3848 1597.5,-166.3848 2098.5,-166.3848 2098.5,-142.3848 1597.5,-142.3848"/>
<text text-anchor="start" x="1603" y="-151.5848" font-family="Times,serif" font-size="16.00" fill="#ff0000">dataport sb_queue_TemperatureControl__FanCmd_1_t </text>
<text text-anchor="start" x="1964" y="-151.5848" font-family="Times,serif" font-weight="bold" font-size="16.00" fill="#ff0000">sb_fanCmd_queue</text>
<polygon fill="none" stroke="#000000" points="1597.5,-118.3848 1597.5,-142.3848 2098.5,-142.3848 2098.5,-118.3848 1597.5,-118.3848"/>
<text text-anchor="start" x="1600.5" y="-127.5848" font-family="Times,serif" font-size="16.00" fill="#ff0000">dataport sb_queue_TemperatureControl__FanAck_1_t </text>
<text text-anchor="start" x="1956.5" y="-127.5848" font-family="Times,serif" font-weight="bold" font-size="16.00" fill="#ff0000">sb_fanAck_queue_1</text>
<polygon fill="none" stroke="#000000" points="1597.5,-94.3848 1597.5,-118.3848 2098.5,-118.3848 2098.5,-94.3848 1597.5,-94.3848"/>
<text text-anchor="start" x="1694.5" y="-103.5848" font-family="Times,serif" font-size="16.00" fill="#0000ff">emits ReceiveEvent </text>
<text text-anchor="start" x="1824.5" y="-103.5848" font-family="Times,serif" font-weight="bold" font-size="16.00" fill="#0000ff">sb_fanAck_1_notification</text>
<polygon fill="none" stroke="#000000" points="1597.5,-70.3848 1597.5,-94.3848 2098.5,-94.3848 2098.5,-70.3848 1597.5,-70.3848"/>
<text text-anchor="start" x="1685" y="-79.5848" font-family="Times,serif" font-size="16.00" fill="#0000ff">consumes ReceiveEvent </text>
<text text-anchor="start" x="1844" y="-79.5848" font-family="Times,serif" font-weight="bold" font-size="16.00" fill="#0000ff">sb_fanCmd_notification</text>
</g>
<!-- p_tempControl&#45;&gt;p_fan -->
<g id="conn4" class="edge">
<title>p_tempControl:sb_fanCmd_1_notification&#45;&gt;p_fan:sb_fanCmd_notification</title>
<path fill="none" stroke="#0000ff" d="M1545,-94.3848C1565.0082,-94.3848 1571.5261,-85.9993 1587.1078,-83.2478"/>
<polygon fill="#0000ff" stroke="#0000ff" points="1587.824,-86.7005 1597.5,-82.3848 1587.2446,-79.7245 1587.824,-86.7005"/>
</g>
<!-- p_tempControl&#45;&gt;p_fan -->
<g id="conn5" class="edge">
<title>p_tempControl:sb_fanCmd_queue_1&#45;&gt;p_fan:sb_fanCmd_queue</title>
<path fill="none" stroke="#ff0000" d="M1545,-142.3848C1565.0082,-142.3848 1571.5261,-150.7703 1587.1078,-153.5218"/>
<polygon fill="#ff0000" stroke="#ff0000" points="1587.2446,-157.0451 1597.5,-154.3848 1587.824,-150.0691 1587.2446,-157.0451"/>
</g>
<!-- p_fan&#45;&gt;p_tempControl -->
<g id="conn6" class="edge">
<title>p_fan:sb_fanAck_1_notification&#45;&gt;p_tempControl:sb_fanAck_notification</title>
<path fill="none" stroke="#0000ff" d="M1597.5,-106.3848C1573.1865,-106.3848 1572.7837,-79.7979 1555.195,-72.3203"/>
<polygon fill="#0000ff" stroke="#0000ff" points="1555.4774,-68.8114 1545,-70.3848 1554.1717,-75.6886 1555.4774,-68.8114"/>
</g>
<!-- p_fan&#45;&gt;p_tempControl -->
<g id="conn7" class="edge">
<title>p_fan:sb_fanAck_queue_1&#45;&gt;p_tempControl:sb_fanAck_queue</title>
<path fill="none" stroke="#ff0000" d="M1597.5,-130.3848C1573.1865,-130.3848 1572.7837,-156.9717 1555.195,-164.4493"/>
<polygon fill="#ff0000" stroke="#ff0000" points="1554.1717,-161.0809 1545,-166.3848 1555.4774,-167.9581 1554.1717,-161.0809"/>
</g>
<!-- dispatch_periodic_inst -->
<g id="node4" class="node">
<title>dispatch_periodic_inst</title>
<polygon fill="none" stroke="#000000" points="8,-78.3848 8,-102.3848 472,-102.3848 472,-78.3848 8,-78.3848"/>
<text text-anchor="start" x="162.5" y="-87.5848" font-family="Times,serif" font-weight="bold" font-size="16.00" fill="#000000">dispatch_periodic_inst</text>
<polygon fill="none" stroke="#000000" points="8,-54.3848 8,-78.3848 472,-78.3848 472,-54.3848 8,-54.3848"/>
<text text-anchor="start" x="11" y="-63.5848" font-family="Times,serif" font-size="16.00" fill="#0000ff">emits Notification </text>
<text text-anchor="start" x="131" y="-63.5848" font-family="Times,serif" font-weight="bold" font-size="16.00" fill="#0000ff">sb_p_tempSensor_periodic_dispatch_notification</text>
<polygon fill="none" stroke="#000000" points="8,-30.3848 8,-54.3848 472,-54.3848 472,-30.3848 8,-30.3848"/>
<text text-anchor="start" x="184.5" y="-39.5848" font-family="Times,serif" font-size="16.00" fill="#ffa500">uses Timer </text>
<text text-anchor="start" x="258.5" y="-39.5848" font-family="Times,serif" font-weight="bold" font-size="16.00" fill="#ffa500">timer</text>
<polygon fill="none" stroke="#000000" points="8,-6.3848 8,-30.3848 472,-30.3848 472,-6.3848 8,-6.3848"/>
<text text-anchor="start" x="113" y="-15.5848" font-family="Times,serif" font-size="16.00" fill="#0000ff">consumes Notification </text>
<text text-anchor="start" x="261" y="-15.5848" font-family="Times,serif" font-weight="bold" font-size="16.00" fill="#0000ff">timer_complete</text>
</g>
<!-- dispatch_periodic_inst&#45;&gt;p_tempSensor -->
<g id="conn8" class="edge">
<title>dispatch_periodic_inst:sb_p_tempSensor_periodic_dispatch_notification&#45;&gt;p_tempSensor:sb_periodic_dispatch_notification</title>
<path fill="none" stroke="#0000ff" d="M472,-66.3848C491.5617,-66.3848 498.7529,-69.1799 514.2555,-70.0971"/>
<polygon fill="#0000ff" stroke="#0000ff" points="514.4057,-73.6026 524.5,-70.3848 514.6022,-66.6054 514.4057,-73.6026"/>
</g>
<!-- time_server -->
<g id="node7" class="node">
<title>time_server</title>
<ellipse fill="none" stroke="#000000" cx="752.5" cy="-18.3848" rx="65.1077" ry="18.2703"/>
<text text-anchor="middle" x="752.5" y="-14.5848" font-family="Times,serif" font-size="16.00" fill="#000000">time_server</text>
</g>
<!-- dispatch_periodic_inst&#45;&gt;time_server -->
<g id="conn9" class="edge">
<title>dispatch_periodic_inst:timer&#45;&gt;time_server:the_timer</title>
<path fill="none" stroke="#00ff00" d="M472,-42.3848C544.3539,-42.3848 626.8251,-34.3594 683.518,-27.5902"/>
<polygon fill="#00ff00" stroke="#00ff00" points="684.29,-31.0223 693.7956,-26.3431 683.4468,-24.0733 684.29,-31.0223"/>
</g>
<!-- connectiontypekey -->
<g id="node5" class="node">
<title>connectiontypekey</title>
<polygon fill="none" stroke="#000000" points="122,-296.3848 122,-320.3848 358,-320.3848 358,-296.3848 122,-296.3848"/>
<text text-anchor="start" x="160" y="-305.5848" font-family="Times,serif" font-weight="bold" font-size="16.00" fill="#000000">Key: Connection Types</text>
<polygon fill="none" stroke="#000000" points="122,-272.3848 122,-296.3848 308,-296.3848 308,-272.3848 122,-272.3848"/>
<text text-anchor="start" x="162.5" y="-280.5848" font-family="Times,serif" font-size="16.00" fill="#ff0000">seL4SharedData</text>
<polygon fill="#ff0000" stroke="transparent" points="308,-272.3848 308,-296.3848 358,-296.3848 358,-272.3848 308,-272.3848"/>
<polygon fill="none" stroke="#000000" points="308,-272.3848 308,-296.3848 358,-296.3848 358,-272.3848 308,-272.3848"/>
<text text-anchor="start" x="322.5" y="-280.5848" font-family="Times,serif" font-size="16.00" fill="#000000">red</text>
<polygon fill="none" stroke="#000000" points="122,-248.3848 122,-272.3848 308,-272.3848 308,-248.3848 122,-248.3848"/>
<text text-anchor="start" x="160.5" y="-256.5848" font-family="Times,serif" font-size="16.00" fill="#0000ff">seL4Notification</text>
<polygon fill="#0000ff" stroke="transparent" points="308,-248.3848 308,-272.3848 358,-272.3848 358,-248.3848 308,-248.3848"/>
<polygon fill="none" stroke="#000000" points="308,-248.3848 308,-272.3848 358,-272.3848 358,-248.3848 308,-248.3848"/>
<text text-anchor="start" x="319" y="-256.5848" font-family="Times,serif" font-size="16.00" fill="#000000">blue</text>
<polygon fill="none" stroke="#000000" points="122,-224.3848 122,-248.3848 308,-248.3848 308,-224.3848 122,-224.3848"/>
<text text-anchor="start" x="171" y="-232.5848" font-family="Times,serif" font-size="16.00" fill="#ffa500">seL4RPCCall</text>
<polygon fill="#ffa500" stroke="transparent" points="308,-224.3848 308,-248.3848 358,-248.3848 358,-224.3848 308,-224.3848"/>
<polygon fill="none" stroke="#000000" points="308,-224.3848 308,-248.3848 358,-248.3848 358,-224.3848 308,-224.3848"/>
<text text-anchor="start" x="311" y="-232.5848" font-family="Times,serif" font-size="16.00" fill="#000000">orange</text>
<polygon fill="none" stroke="#000000" points="122,-200.3848 122,-224.3848 308,-224.3848 308,-200.3848 122,-200.3848"/>
<text text-anchor="start" x="162" y="-208.5848" font-family="Times,serif" font-size="16.00" fill="#00ff00">seL4TimeServer</text>
<polygon fill="#00ff00" stroke="transparent" points="308,-200.3848 308,-224.3848 358,-224.3848 358,-200.3848 308,-200.3848"/>
<polygon fill="none" stroke="#000000" points="308,-200.3848 308,-224.3848 358,-224.3848 358,-200.3848 308,-200.3848"/>
<text text-anchor="start" x="315" y="-208.5848" font-family="Times,serif" font-size="16.00" fill="#000000">green</text>
<polygon fill="none" stroke="#000000" points="122,-176.3848 122,-200.3848 308,-200.3848 308,-176.3848 122,-176.3848"/>
<text text-anchor="start" x="125" y="-184.5848" font-family="Times,serif" font-size="16.00" fill="#a52a2a">seL4GlobalAsynchCallback</text>
<polygon fill="#a52a2a" stroke="transparent" points="308,-176.3848 308,-200.3848 358,-200.3848 358,-176.3848 308,-176.3848"/>
<polygon fill="none" stroke="#000000" points="308,-176.3848 308,-200.3848 358,-200.3848 358,-176.3848 308,-176.3848"/>
<text text-anchor="start" x="312" y="-184.5848" font-family="Times,serif" font-size="16.00" fill="#000000">brown</text>
<polygon fill="none" stroke="#000000" points="122,-152.3848 122,-176.3848 308,-176.3848 308,-152.3848 122,-152.3848"/>
<text text-anchor="start" x="131.5" y="-160.5848" font-family="Times,serif" font-size="16.00" fill="#ffff00">seL4VMDTBPassthrough</text>
<polygon fill="#ffff00" stroke="transparent" points="308,-152.3848 308,-176.3848 358,-176.3848 358,-152.3848 308,-152.3848"/>
<polygon fill="none" stroke="#000000" points="308,-152.3848 308,-176.3848 358,-176.3848 358,-152.3848 308,-152.3848"/>
<text text-anchor="start" x="311" y="-160.5848" font-family="Times,serif" font-size="16.00" fill="#000000">yellow</text>
<polygon fill="none" stroke="#000000" points="122,-128.3848 122,-152.3848 308,-152.3848 308,-128.3848 122,-128.3848"/>
<text text-anchor="start" x="130.5" y="-136.5848" font-family="Times,serif" font-size="16.00" fill="#ffc0cb">seL4SharedDataWithCaps</text>
<polygon fill="#ffc0cb" stroke="transparent" points="308,-128.3848 308,-152.3848 358,-152.3848 358,-128.3848 308,-128.3848"/>
<polygon fill="none" stroke="#000000" points="308,-128.3848 308,-152.3848 358,-152.3848 358,-128.3848 308,-128.3848"/>
<text text-anchor="start" x="318" y="-136.5848" font-family="Times,serif" font-size="16.00" fill="#000000">pink</text>
</g>
<!-- interfacetypekey -->
<g id="node6" class="node">
<title>interfacetypekey</title>
<polygon fill="none" stroke="#000000" points="166,-466.3848 166,-490.3848 314,-490.3848 314,-466.3848 166,-466.3848"/>
<text text-anchor="start" x="169" y="-475.5848" font-family="Times,serif" font-weight="bold" font-size="16.00" fill="#000000">Key: Interface Types</text>
<polygon fill="none" stroke="#000000" points="166,-442.3848 166,-466.3848 250,-466.3848 250,-442.3848 166,-442.3848"/>
<text text-anchor="start" x="181.5" y="-450.5848" font-family="Times,serif" font-size="16.00" fill="#ff0000">dataport</text>
<polygon fill="#ff0000" stroke="transparent" points="250,-442.3848 250,-466.3848 314,-466.3848 314,-442.3848 250,-442.3848"/>
<polygon fill="none" stroke="#000000" points="250,-442.3848 250,-466.3848 314,-466.3848 314,-442.3848 250,-442.3848"/>
<text text-anchor="start" x="271.5" y="-450.5848" font-family="Times,serif" font-size="16.00" fill="#000000">red</text>
<polygon fill="none" stroke="#000000" points="166,-418.3848 166,-442.3848 250,-442.3848 250,-418.3848 166,-418.3848"/>
<text text-anchor="start" x="190.5" y="-426.5848" font-family="Times,serif" font-size="16.00" fill="#0000ff">emits</text>
<polygon fill="#0000ff" stroke="transparent" points="250,-418.3848 250,-442.3848 314,-442.3848 314,-418.3848 250,-418.3848"/>
<polygon fill="none" stroke="#000000" points="250,-418.3848 250,-442.3848 314,-442.3848 314,-418.3848 250,-418.3848"/>
<text text-anchor="start" x="268" y="-426.5848" font-family="Times,serif" font-size="16.00" fill="#000000">blue</text>
<polygon fill="none" stroke="#000000" points="166,-394.3848 166,-418.3848 250,-418.3848 250,-394.3848 166,-394.3848"/>
<text text-anchor="start" x="176" y="-402.5848" font-family="Times,serif" font-size="16.00" fill="#0000ff">consumes</text>
<polygon fill="#0000ff" stroke="transparent" points="250,-394.3848 250,-418.3848 314,-418.3848 314,-394.3848 250,-394.3848"/>
<polygon fill="none" stroke="#000000" points="250,-394.3848 250,-418.3848 314,-418.3848 314,-394.3848 250,-394.3848"/>
<text text-anchor="start" x="268" y="-402.5848" font-family="Times,serif" font-size="16.00" fill="#000000">blue</text>
<polygon fill="none" stroke="#000000" points="166,-370.3848 166,-394.3848 250,-394.3848 250,-370.3848 166,-370.3848"/>
<text text-anchor="start" x="180" y="-378.5848" font-family="Times,serif" font-size="16.00" fill="#ffa500">provides</text>
<polygon fill="#ffa500" stroke="transparent" points="250,-370.3848 250,-394.3848 314,-394.3848 314,-370.3848 250,-370.3848"/>
<polygon fill="none" stroke="#000000" points="250,-370.3848 250,-394.3848 314,-394.3848 314,-370.3848 250,-370.3848"/>
<text text-anchor="start" x="260" y="-378.5848" font-family="Times,serif" font-size="16.00" fill="#000000">orange</text>
<polygon fill="none" stroke="#000000" points="166,-346.3848 166,-370.3848 250,-370.3848 250,-346.3848 166,-346.3848"/>
<text text-anchor="start" x="194" y="-354.5848" font-family="Times,serif" font-size="16.00" fill="#ffa500">uses</text>
<polygon fill="#ffa500" stroke="transparent" points="250,-346.3848 250,-370.3848 314,-370.3848 314,-346.3848 250,-346.3848"/>
<polygon fill="none" stroke="#000000" points="250,-346.3848 250,-370.3848 314,-370.3848 314,-346.3848 250,-346.3848"/>
<text text-anchor="start" x="260" y="-354.5848" font-family="Times,serif" font-size="16.00" fill="#000000">orange</text>
</g>
<!-- time_server&#45;&gt;dispatch_periodic_inst -->
<g id="conn10" class="edge">
<title>time_server:timer_notification&#45;&gt;dispatch_periodic_inst:timer_complete</title>
<path fill="none" stroke="#a52a2a" d="M687.3201,-18.3848C633.0238,-18.3848 553.3303,-18.3848 482.0052,-18.3848"/>
<polygon fill="#a52a2a" stroke="#a52a2a" points="482,-14.8849 472,-18.3848 482,-21.8849 482,-14.8849"/>
</g>
</g>
</svg>
