<?xml version="1.0" encoding="UTF-8" standalone="no"?>
<!DOCTYPE svg PUBLIC "-//W3C//DTD SVG 1.1//EN"
 "http://www.w3.org/Graphics/SVG/1.1/DTD/svg11.dtd">
<!-- Generated by graphviz version 2.40.1 (20161225.0304)
 -->
<!-- Title: %3 Pages: 1 -->
<svg width="1262pt" height="1360pt"
 viewBox="0.00 0.00 1261.72 1359.85" xmlns="http://www.w3.org/2000/svg" xmlns:xlink="http://www.w3.org/1999/xlink">
<g id="graph0" class="graph" transform="scale(1 1) rotate(0) translate(4 1355.8535)">
<title>%3</title>
<polygon fill="#ffffff" stroke="transparent" points="-4,4 -4,-1355.8535 1257.7151,-1355.8535 1257.7151,4 -4,4"/>
<!-- p_tempSensor -->
<g id="node1" class="node">
<title>p_tempSensor</title>
<path fill="none" stroke="#000000" d="M676.4971,-1171.06C676.4971,-1171.06 434.4971,-1171.06 434.4971,-1171.06 428.4971,-1171.06 422.4971,-1165.06 422.4971,-1159.06 422.4971,-1159.06 422.4971,-1147.06 422.4971,-1147.06 422.4971,-1141.06 428.4971,-1135.06 434.4971,-1135.06 434.4971,-1135.06 676.4971,-1135.06 676.4971,-1135.06 682.4971,-1135.06 688.4971,-1141.06 688.4971,-1147.06 688.4971,-1147.06 688.4971,-1159.06 688.4971,-1159.06 688.4971,-1165.06 682.4971,-1171.06 676.4971,-1171.06"/>
<text text-anchor="middle" x="555.4971" y="-1149.36" font-family="Times,serif" font-size="14.00" fill="#000000">p_tempSensor::TempSensor_i_p_tempSensor</text>
</g>
<!-- conn4 -->
<g id="node12" class="node">
<title>conn4</title>
<ellipse fill="none" stroke="#000000" cx="432.4971" cy="-994.4193" rx="32.4942" ry="32.4942"/>
<text text-anchor="middle" x="432.4971" y="-990.7193" font-family="Times,serif" font-size="14.00" fill="#000000">conn4</text>
</g>
<!-- p_tempSensor&#45;&gt;conn4 -->
<g id="edge3" class="edge">
<title>p_tempSensor&#45;&gt;conn4</title>
<path fill="none" stroke="#000000" d="M541.3875,-1134.8619C521.26,-1108.9022 483.9492,-1060.7802 458.6767,-1028.1847"/>
<polygon fill="#000000" stroke="#000000" points="461.4221,-1026.0135 452.5287,-1020.2552 455.8901,-1030.3027 461.4221,-1026.0135"/>
</g>
<!-- conn1.conn2 -->
<g id="node23" class="node">
<title>conn1.conn2</title>
<ellipse fill="none" stroke="#000000" cx="606.4971" cy="-581.8835" rx="55.7903" ry="55.7903"/>
<text text-anchor="middle" x="606.4971" y="-578.1835" font-family="Times,serif" font-size="14.00" fill="#000000">conn1.conn2</text>
</g>
<!-- p_tempSensor&#45;&gt;conn1.conn2 -->
<g id="edge26" class="edge">
<title>p_tempSensor&#45;&gt;conn1.conn2</title>
<path fill="none" stroke="#000000" d="M559.503,-1134.9244C569.8197,-1086.5778 596.4971,-950.4719 596.4971,-835.7785 596.4971,-835.7785 596.4971,-835.7785 596.4971,-763.7785 596.4971,-725.5152 598.7306,-682.7924 601.0865,-648.3712"/>
<polygon fill="#000000" stroke="#000000" points="604.6078,-648.1907 601.8192,-637.9694 597.6251,-647.6987 604.6078,-648.1907"/>
</g>
<!-- p_tempControl -->
<g id="node2" class="node">
<title>p_tempControl</title>
<path fill="none" stroke="#000000" d="M455.4971,-709.7785C455.4971,-709.7785 199.4971,-709.7785 199.4971,-709.7785 193.4971,-709.7785 187.4971,-703.7785 187.4971,-697.7785 187.4971,-697.7785 187.4971,-685.7785 187.4971,-685.7785 187.4971,-679.7785 193.4971,-673.7785 199.4971,-673.7785 199.4971,-673.7785 455.4971,-673.7785 455.4971,-673.7785 461.4971,-673.7785 467.4971,-679.7785 467.4971,-685.7785 467.4971,-685.7785 467.4971,-697.7785 467.4971,-697.7785 467.4971,-703.7785 461.4971,-709.7785 455.4971,-709.7785"/>
<text text-anchor="middle" x="327.4971" y="-688.0785" font-family="Times,serif" font-size="14.00" fill="#000000">p_tempControl::TempControl_i_p_tempControl</text>
</g>
<!-- conn5 -->
<g id="node13" class="node">
<title>conn5</title>
<ellipse fill="none" stroke="#000000" cx="32.4971" cy="-581.8835" rx="32.4942" ry="32.4942"/>
<text text-anchor="middle" x="32.4971" y="-578.1835" font-family="Times,serif" font-size="14.00" fill="#000000">conn5</text>
</g>
<!-- p_tempControl&#45;&gt;conn5 -->
<g id="edge5" class="edge">
<title>p_tempControl&#45;&gt;conn5</title>
<path fill="none" stroke="#000000" d="M209.5239,-673.7746C156.5804,-664.1731 101.0112,-651.5165 78.4971,-637.7785 70.146,-632.6827 62.6203,-625.5177 56.1903,-618.0131"/>
<polygon fill="#000000" stroke="#000000" points="58.6269,-615.4549 49.6558,-609.8183 53.1539,-619.8191 58.6269,-615.4549"/>
</g>
<!-- p_tempControl&#45;&gt;conn1.conn2 -->
<g id="edge25" class="edge">
<title>p_tempControl&#45;&gt;conn1.conn2</title>
<path fill="none" stroke="#000000" d="M432.3852,-673.7719C466.6814,-665.5321 504.2293,-653.8999 536.4971,-637.7785 543.4423,-634.3087 550.3407,-630.0665 556.9465,-625.4853"/>
<polygon fill="#000000" stroke="#000000" points="559.1056,-628.2429 565.1388,-619.5336 554.9912,-622.5796 559.1056,-628.2429"/>
</g>
<!-- conn7.conn8 -->
<g id="node24" class="node">
<title>conn7.conn8</title>
<ellipse fill="none" stroke="#000000" cx="307.4971" cy="-581.8835" rx="55.7903" ry="55.7903"/>
<text text-anchor="middle" x="307.4971" y="-578.1835" font-family="Times,serif" font-size="14.00" fill="#000000">conn7.conn8</text>
</g>
<!-- p_tempControl&#45;&gt;conn7.conn8 -->
<g id="edge28" class="edge">
<title>p_tempControl&#45;&gt;conn7.conn8</title>
<path fill="none" stroke="#000000" d="M324.1945,-673.6316C322.8132,-666.0417 321.1164,-656.718 319.3391,-646.9525"/>
<polygon fill="#000000" stroke="#000000" points="322.7778,-646.2993 317.5438,-637.0876 315.891,-647.5527 322.7778,-646.2993"/>
</g>
<!-- conn10.conn11 -->
<g id="node25" class="node">
<title>conn10.conn11</title>
<ellipse fill="none" stroke="#000000" cx="202.4971" cy="-208.9942" rx="64.9885" ry="64.9885"/>
<text text-anchor="middle" x="202.4971" y="-205.2942" font-family="Times,serif" font-size="14.00" fill="#000000">conn10.conn11</text>
</g>
<!-- p_tempControl&#45;&gt;conn10.conn11 -->
<g id="edge32" class="edge">
<title>p_tempControl&#45;&gt;conn10.conn11</title>
<path fill="none" stroke="#000000" d="M281.9081,-673.6681C213.5688,-643.1631 92.4971,-574.6348 92.4971,-471.9885 92.4971,-471.9885 92.4971,-471.9885 92.4971,-399.9885 92.4971,-349.117 122.1631,-299.5731 150.6829,-263.6974"/>
<polygon fill="#000000" stroke="#000000" points="153.5167,-265.7604 157.1208,-255.7974 148.0904,-261.3383 153.5167,-265.7604"/>
</g>
<!-- p_fan -->
<g id="node3" class="node">
<title>p_fan</title>
<path fill="none" stroke="#000000" d="M251.9971,-345.9885C251.9971,-345.9885 152.9971,-345.9885 152.9971,-345.9885 146.9971,-345.9885 140.9971,-339.9885 140.9971,-333.9885 140.9971,-333.9885 140.9971,-321.9885 140.9971,-321.9885 140.9971,-315.9885 146.9971,-309.9885 152.9971,-309.9885 152.9971,-309.9885 251.9971,-309.9885 251.9971,-309.9885 257.9971,-309.9885 263.9971,-315.9885 263.9971,-321.9885 263.9971,-321.9885 263.9971,-333.9885 263.9971,-333.9885 263.9971,-339.9885 257.9971,-345.9885 251.9971,-345.9885"/>
<text text-anchor="middle" x="202.4971" y="-324.2885" font-family="Times,serif" font-size="14.00" fill="#000000">p_fan::Fan_i_p_fan</text>
</g>
<!-- p_fan&#45;&gt;conn7.conn8 -->
<g id="edge29" class="edge">
<title>p_fan&#45;&gt;conn7.conn8</title>
<path fill="none" stroke="#000000" d="M187.3936,-345.9992C163.3438,-377.0019 121.7577,-441.7647 149.4971,-489.9885 169.8173,-525.3141 209.5129,-548.3234 244.0302,-562.4835"/>
<polygon fill="#000000" stroke="#000000" points="243.0208,-565.8473 253.6081,-566.2456 245.58,-559.3318 243.0208,-565.8473"/>
</g>
<!-- p_fan&#45;&gt;conn10.conn11 -->
<g id="edge31" class="edge">
<title>p_fan&#45;&gt;conn10.conn11</title>
<path fill="none" stroke="#000000" d="M202.4971,-309.9158C202.4971,-302.6294 202.4971,-293.6975 202.4971,-284.1896"/>
<polygon fill="#000000" stroke="#000000" points="205.9972,-284.1175 202.4971,-274.1176 198.9972,-284.1176 205.9972,-284.1175"/>
</g>
<!-- sb_tempcontrol_currenttemp_monitor -->
<g id="node4" class="node">
<title>sb_tempcontrol_currenttemp_monitor</title>
<path fill="none" stroke="#000000" d="M987.9971,-489.9885C987.9971,-489.9885 562.9971,-489.9885 562.9971,-489.9885 556.9971,-489.9885 550.9971,-483.9885 550.9971,-477.9885 550.9971,-477.9885 550.9971,-465.9885 550.9971,-465.9885 550.9971,-459.9885 556.9971,-453.9885 562.9971,-453.9885 562.9971,-453.9885 987.9971,-453.9885 987.9971,-453.9885 993.9971,-453.9885 999.9971,-459.9885 999.9971,-465.9885 999.9971,-465.9885 999.9971,-477.9885 999.9971,-477.9885 999.9971,-483.9885 993.9971,-489.9885 987.9971,-489.9885"/>
<text text-anchor="middle" x="775.4971" y="-468.2885" font-family="Times,serif" font-size="14.00" fill="#000000">sb_tempcontrol_currenttemp_monitor::sb_tempControl_currentTemp_Monitor</text>
</g>
<!-- conn3 -->
<g id="node11" class="node">
<title>conn3</title>
<polygon fill="none" stroke="#000000" points="666.4971,-417.9885 620.5814,-399.9885 666.4971,-381.9885 712.4129,-399.9885 666.4971,-417.9885"/>
<text text-anchor="middle" x="666.4971" y="-396.2885" font-family="Times,serif" font-size="14.00" fill="#000000">conn3</text>
</g>
<!-- sb_tempcontrol_currenttemp_monitor&#45;&gt;conn3 -->
<g id="edge1" class="edge">
<title>sb_tempcontrol_currenttemp_monitor&#45;&gt;conn3</title>
<path fill="none" stroke="#000000" d="M747.9918,-453.8198C730.9637,-442.5719 709.2319,-428.217 692.4928,-417.1599"/>
<polygon fill="#000000" stroke="#000000" points="694.0416,-413.9883 683.7685,-411.3971 690.1834,-419.8291 694.0416,-413.9883"/>
</g>
<!-- sb_tempcontrol_tempchanged_monitor -->
<g id="node5" class="node">
<title>sb_tempcontrol_tempchanged_monitor</title>
<path fill="none" stroke="#000000" d="M545.9971,-853.7785C545.9971,-853.7785 108.9971,-853.7785 108.9971,-853.7785 102.9971,-853.7785 96.9971,-847.7785 96.9971,-841.7785 96.9971,-841.7785 96.9971,-829.7785 96.9971,-829.7785 96.9971,-823.7785 102.9971,-817.7785 108.9971,-817.7785 108.9971,-817.7785 545.9971,-817.7785 545.9971,-817.7785 551.9971,-817.7785 557.9971,-823.7785 557.9971,-829.7785 557.9971,-829.7785 557.9971,-841.7785 557.9971,-841.7785 557.9971,-847.7785 551.9971,-853.7785 545.9971,-853.7785"/>
<text text-anchor="middle" x="327.4971" y="-832.0785" font-family="Times,serif" font-size="14.00" fill="#000000">sb_tempcontrol_tempchanged_monitor::sb_tempControl_tempChanged_Monitor</text>
</g>
<!-- conn6 -->
<g id="node14" class="node">
<title>conn6</title>
<polygon fill="none" stroke="#000000" points="327.4971,-781.7785 281.5814,-763.7785 327.4971,-745.7785 373.4129,-763.7785 327.4971,-781.7785"/>
<text text-anchor="middle" x="327.4971" y="-760.0785" font-family="Times,serif" font-size="14.00" fill="#000000">conn6</text>
</g>
<!-- sb_tempcontrol_tempchanged_monitor&#45;&gt;conn6 -->
<g id="edge7" class="edge">
<title>sb_tempcontrol_tempchanged_monitor&#45;&gt;conn6</title>
<path fill="none" stroke="#000000" d="M327.4971,-817.6099C327.4971,-809.9095 327.4971,-800.7529 327.4971,-792.1952"/>
<polygon fill="#000000" stroke="#000000" points="330.9972,-792.1918 327.4971,-782.1918 323.9972,-792.1918 330.9972,-792.1918"/>
</g>
<!-- sb_fan_fancmd_monitor -->
<g id="node6" class="node">
<title>sb_fan_fancmd_monitor</title>
<path fill="none" stroke="#000000" d="M443.9971,-489.9885C443.9971,-489.9885 170.9971,-489.9885 170.9971,-489.9885 164.9971,-489.9885 158.9971,-483.9885 158.9971,-477.9885 158.9971,-477.9885 158.9971,-465.9885 158.9971,-465.9885 158.9971,-459.9885 164.9971,-453.9885 170.9971,-453.9885 170.9971,-453.9885 443.9971,-453.9885 443.9971,-453.9885 449.9971,-453.9885 455.9971,-459.9885 455.9971,-465.9885 455.9971,-465.9885 455.9971,-477.9885 455.9971,-477.9885 455.9971,-483.9885 449.9971,-489.9885 443.9971,-489.9885"/>
<text text-anchor="middle" x="307.4971" y="-468.2885" font-family="Times,serif" font-size="14.00" fill="#000000">sb_fan_fancmd_monitor::sb_fan_fanCmd_Monitor</text>
</g>
<!-- conn9 -->
<g id="node15" class="node">
<title>conn9</title>
<polygon fill="none" stroke="#000000" points="256.4971,-417.9885 210.5814,-399.9885 256.4971,-381.9885 302.4129,-399.9885 256.4971,-417.9885"/>
<text text-anchor="middle" x="256.4971" y="-396.2885" font-family="Times,serif" font-size="14.00" fill="#000000">conn9</text>
</g>
<!-- sb_fan_fancmd_monitor&#45;&gt;conn9 -->
<g id="edge9" class="edge">
<title>sb_fan_fancmd_monitor&#45;&gt;conn9</title>
<path fill="none" stroke="#000000" d="M294.6277,-453.8198C287.9634,-444.4114 279.7593,-432.8291 272.6704,-422.8214"/>
<polygon fill="#000000" stroke="#000000" points="275.431,-420.6634 266.7947,-414.5262 269.7188,-424.7096 275.431,-420.6634"/>
</g>
<!-- sb_tempcontrol_fanack_monitor -->
<g id="node7" class="node">
<title>sb_tempcontrol_fanack_monitor</title>
<path fill="none" stroke="#000000" d="M404.4971,-108C404.4971,-108 40.4971,-108 40.4971,-108 34.4971,-108 28.4971,-102 28.4971,-96 28.4971,-96 28.4971,-84 28.4971,-84 28.4971,-78 34.4971,-72 40.4971,-72 40.4971,-72 404.4971,-72 404.4971,-72 410.4971,-72 416.4971,-78 416.4971,-84 416.4971,-84 416.4971,-96 416.4971,-96 416.4971,-102 410.4971,-108 404.4971,-108"/>
<text text-anchor="middle" x="222.4971" y="-86.3" font-family="Times,serif" font-size="14.00" fill="#000000">sb_tempcontrol_fanack_monitor::sb_tempControl_fanAck_Monitor</text>
</g>
<!-- conn12 -->
<g id="node16" class="node">
<title>conn12</title>
<polygon fill="none" stroke="#000000" points="333.4971,-36 282.0515,-18 333.4971,0 384.9427,-18 333.4971,-36"/>
<text text-anchor="middle" x="333.4971" y="-14.3" font-family="Times,serif" font-size="14.00" fill="#000000">conn12</text>
</g>
<!-- sb_tempcontrol_fanack_monitor&#45;&gt;conn12 -->
<g id="edge11" class="edge">
<title>sb_tempcontrol_fanack_monitor&#45;&gt;conn12</title>
<path fill="none" stroke="#000000" d="M250.5071,-71.8314C267.7895,-60.6212 289.8297,-46.3248 306.8526,-35.2829"/>
<polygon fill="#000000" stroke="#000000" points="308.7605,-38.2172 315.2454,-29.8389 304.9511,-32.3445 308.7605,-38.2172"/>
</g>
<!-- dispatch_periodic_inst -->
<g id="node8" class="node">
<title>dispatch_periodic_inst</title>
<path fill="none" stroke="#000000" d="M825.4971,-1351.8535C825.4971,-1351.8535 607.4971,-1351.8535 607.4971,-1351.8535 601.4971,-1351.8535 595.4971,-1345.8535 595.4971,-1339.8535 595.4971,-1339.8535 595.4971,-1327.8535 595.4971,-1327.8535 595.4971,-1321.8535 601.4971,-1315.8535 607.4971,-1315.8535 607.4971,-1315.8535 825.4971,-1315.8535 825.4971,-1315.8535 831.4971,-1315.8535 837.4971,-1321.8535 837.4971,-1327.8535 837.4971,-1327.8535 837.4971,-1339.8535 837.4971,-1339.8535 837.4971,-1345.8535 831.4971,-1351.8535 825.4971,-1351.8535"/>
<text text-anchor="middle" x="716.4971" y="-1330.1535" font-family="Times,serif" font-size="14.00" fill="#000000">dispatch_periodic_inst::dispatch_periodic</text>
</g>
<!-- conn13 -->
<g id="node17" class="node">
<title>conn13</title>
<polygon fill="none" stroke="#000000" points="596.4971,-1261.4567 545.0515,-1243.4567 596.4971,-1225.4567 647.9427,-1243.4567 596.4971,-1261.4567"/>
<text text-anchor="middle" x="596.4971" y="-1239.7567" font-family="Times,serif" font-size="14.00" fill="#000000">conn13</text>
</g>
<!-- dispatch_periodic_inst&#45;&gt;conn13 -->
<g id="edge13" class="edge">
<title>dispatch_periodic_inst&#45;&gt;conn13</title>
<path fill="none" stroke="#000000" d="M692.5017,-1315.7776C671.8225,-1300.1998 642.0884,-1277.801 621.2046,-1262.0691"/>
<polygon fill="#000000" stroke="#000000" points="623.2168,-1259.2029 613.1235,-1255.9815 619.0049,-1264.794 623.2168,-1259.2029"/>
</g>
<!-- conn14 -->
<g id="node18" class="node">
<title>conn14</title>
<ellipse fill="none" stroke="#000000" cx="817.4971" cy="-1243.4567" rx="36.2938" ry="36.2938"/>
<text text-anchor="middle" x="817.4971" y="-1239.7567" font-family="Times,serif" font-size="14.00" fill="#000000">conn14</text>
</g>
<!-- dispatch_periodic_inst&#45;&gt;conn14 -->
<g id="edge15" class="edge">
<title>dispatch_periodic_inst&#45;&gt;conn14</title>
<path fill="none" stroke="#000000" d="M736.936,-1315.5604C749.9927,-1303.8744 767.2647,-1288.4157 782.4666,-1274.8097"/>
<polygon fill="#000000" stroke="#000000" points="785.077,-1277.1705 790.1942,-1267.8934 780.4086,-1271.9545 785.077,-1277.1705"/>
</g>
<!-- time_server -->
<g id="node9" class="node">
<title>time_server</title>
<path fill="none" stroke="#000000" d="M919.9971,-1171.06C919.9971,-1171.06 790.9971,-1171.06 790.9971,-1171.06 784.9971,-1171.06 778.9971,-1165.06 778.9971,-1159.06 778.9971,-1159.06 778.9971,-1147.06 778.9971,-1147.06 778.9971,-1141.06 784.9971,-1135.06 790.9971,-1135.06 790.9971,-1135.06 919.9971,-1135.06 919.9971,-1135.06 925.9971,-1135.06 931.9971,-1141.06 931.9971,-1147.06 931.9971,-1147.06 931.9971,-1159.06 931.9971,-1159.06 931.9971,-1165.06 925.9971,-1171.06 919.9971,-1171.06"/>
<text text-anchor="middle" x="855.4971" y="-1149.36" font-family="Times,serif" font-size="14.00" fill="#000000">time_server::TimeServer</text>
</g>
<!-- conn15 -->
<g id="node19" class="node">
<title>conn15</title>
<polygon fill="none" stroke="#000000" points="681.4971,-1012.4193 630.0515,-994.4193 681.4971,-976.4193 732.9427,-994.4193 681.4971,-1012.4193"/>
<text text-anchor="middle" x="681.4971" y="-990.7193" font-family="Times,serif" font-size="14.00" fill="#000000">conn15</text>
</g>
<!-- time_server&#45;&gt;conn15 -->
<g id="edge17" class="edge">
<title>time_server&#45;&gt;conn15</title>
<path fill="none" stroke="#000000" d="M800.6306,-1135.0322C780.3807,-1126.4475 758.3,-1114.597 741.4971,-1099.06 717.6565,-1077.0155 700.6845,-1043.2874 691.0067,-1020.1158"/>
<polygon fill="#000000" stroke="#000000" points="694.1597,-1018.5747 687.1908,-1010.5944 687.6621,-1021.1788 694.1597,-1018.5747"/>
</g>
<!-- time_server.pit_command -->
<g id="node20" class="node">
<title>time_server.pit_command</title>
<ellipse fill="none" stroke="#000000" cx="855.4971" cy="-994.4193" rx="104.7816" ry="104.7816"/>
<text text-anchor="middle" x="855.4971" y="-990.7193" font-family="Times,serif" font-size="14.00" fill="#000000">time_server.pit_command</text>
</g>
<!-- time_server&#45;&gt;time_server.pit_command -->
<g id="edge19" class="edge">
<title>time_server&#45;&gt;time_server.pit_command</title>
<path fill="none" stroke="#000000" d="M855.4971,-1134.8619C855.4971,-1127.7946 855.4971,-1119.0848 855.4971,-1109.4929"/>
<polygon fill="#000000" stroke="#000000" points="858.9972,-1109.2096 855.4971,-1099.2097 851.9972,-1109.2097 858.9972,-1109.2096"/>
</g>
<!-- time_server.pit_channel0 -->
<g id="node21" class="node">
<title>time_server.pit_channel0</title>
<ellipse fill="none" stroke="#000000" cx="1078.4971" cy="-994.4193" rx="100.9827" ry="100.9827"/>
<text text-anchor="middle" x="1078.4971" y="-990.7193" font-family="Times,serif" font-size="14.00" fill="#000000">time_server.pit_channel0</text>
</g>
<!-- time_server&#45;&gt;time_server.pit_channel0 -->
<g id="edge21" class="edge">
<title>time_server&#45;&gt;time_server.pit_channel0</title>
<path fill="none" stroke="#000000" d="M902.2819,-1134.9721C923.6531,-1125.706 948.7638,-1113.3569 969.4971,-1099.06 980.2528,-1091.6433 990.9491,-1083.1518 1001.2019,-1074.2845"/>
<polygon fill="#000000" stroke="#000000" points="1003.7712,-1076.685 1008.9496,-1067.4419 999.1373,-1071.4383 1003.7712,-1076.685"/>
</g>
<!-- time_server.pit -->
<g id="node10" class="node">
<title>time_server.pit</title>
<path fill="none" stroke="#000000" d="M1129.9971,-853.7785C1129.9971,-853.7785 1026.9971,-853.7785 1026.9971,-853.7785 1020.9971,-853.7785 1014.9971,-847.7785 1014.9971,-841.7785 1014.9971,-841.7785 1014.9971,-829.7785 1014.9971,-829.7785 1014.9971,-823.7785 1020.9971,-817.7785 1026.9971,-817.7785 1026.9971,-817.7785 1129.9971,-817.7785 1129.9971,-817.7785 1135.9971,-817.7785 1141.9971,-823.7785 1141.9971,-829.7785 1141.9971,-829.7785 1141.9971,-841.7785 1141.9971,-841.7785 1141.9971,-847.7785 1135.9971,-853.7785 1129.9971,-853.7785"/>
<text text-anchor="middle" x="1078.4971" y="-832.0785" font-family="Times,serif" font-size="14.00" fill="#000000">time_server.pit::PIT</text>
</g>
<!-- time_server.pit_irq -->
<g id="node22" class="node">
<title>time_server.pit_irq</title>
<polygon fill="none" stroke="#000000" points="1142.4971,-781.7785 1031.0606,-763.7785 1142.4971,-745.7785 1253.9336,-763.7785 1142.4971,-781.7785"/>
<text text-anchor="middle" x="1142.4971" y="-760.0785" font-family="Times,serif" font-size="14.00" fill="#000000">time_server.pit_irq</text>
</g>
<!-- time_server.pit&#45;&gt;time_server.pit_irq -->
<g id="edge23" class="edge">
<title>time_server.pit&#45;&gt;time_server.pit_irq</title>
<path fill="none" stroke="#000000" d="M1094.647,-817.6099C1102.8284,-808.4059 1112.859,-797.1214 1121.6195,-787.2659"/>
<polygon fill="#000000" stroke="#000000" points="1124.2856,-789.5347 1128.3133,-779.7353 1119.0537,-784.8842 1124.2856,-789.5347"/>
</g>
<!-- conn3&#45;&gt;p_tempControl -->
<g id="edge2" class="edge">
<title>conn3&#45;&gt;p_tempControl</title>
<path fill="none" stroke="#000000" d="M634.4551,-405.4461C605.8679,-412.0124 565.0019,-425.879 541.4971,-453.9885 487.6835,-518.3444 555.5186,-576.2469 498.4971,-637.7785 486.9892,-650.1967 454.3935,-661.8101 420.7059,-671.0612"/>
<polygon fill="#000000" stroke="#000000" points="419.4746,-667.7673 410.717,-673.7302 421.2816,-674.5301 419.4746,-667.7673"/>
</g>
<!-- conn4&#45;&gt;sb_tempcontrol_tempchanged_monitor -->
<g id="edge4" class="edge">
<title>conn4&#45;&gt;sb_tempcontrol_tempchanged_monitor</title>
<path fill="none" stroke="#000000" d="M414.447,-967.148C394.9985,-937.764 364.2574,-891.3184 345.0172,-862.249"/>
<polygon fill="#000000" stroke="#000000" points="347.8785,-860.2306 339.4405,-853.8234 342.0412,-864.0941 347.8785,-860.2306"/>
</g>
<!-- conn5&#45;&gt;sb_tempcontrol_tempchanged_monitor -->
<g id="edge6" class="edge">
<title>conn5&#45;&gt;sb_tempcontrol_tempchanged_monitor</title>
<path fill="none" stroke="#000000" d="M52.0337,-607.907C59.8385,-617.6712 69.1777,-628.6144 78.4971,-637.7785 149.228,-707.3313 243.2775,-776.7515 293.1084,-811.9885"/>
<polygon fill="#000000" stroke="#000000" points="291.1077,-814.8603 301.2996,-817.7542 295.1368,-809.1361 291.1077,-814.8603"/>
</g>
<!-- conn6&#45;&gt;p_tempControl -->
<g id="edge8" class="edge">
<title>conn6&#45;&gt;p_tempControl</title>
<path fill="none" stroke="#000000" d="M327.4971,-745.6099C327.4971,-737.9095 327.4971,-728.7529 327.4971,-720.1952"/>
<polygon fill="#000000" stroke="#000000" points="330.9972,-720.1918 327.4971,-710.1918 323.9972,-720.1918 330.9972,-720.1918"/>
</g>
<!-- conn9&#45;&gt;p_fan -->
<g id="edge10" class="edge">
<title>conn9&#45;&gt;p_fan</title>
<path fill="none" stroke="#000000" d="M245.8285,-385.7636C239.086,-376.7737 230.1672,-364.8819 222.1745,-354.225"/>
<polygon fill="#000000" stroke="#000000" points="224.8224,-351.9221 216.0223,-346.0221 219.2224,-356.1221 224.8224,-351.9221"/>
</g>
<!-- conn12&#45;&gt;p_tempControl -->
<g id="edge12" class="edge">
<title>conn12&#45;&gt;p_tempControl</title>
<path fill="none" stroke="#000000" d="M358.2969,-27.3969C378.684,-36.2156 407.1093,-51.1759 425.4971,-72 469.3761,-121.6929 484.4971,-142.7013 484.4971,-208.9942 484.4971,-471.9885 484.4971,-471.9885 484.4971,-471.9885 484.4971,-556.2603 407.1286,-630.5268 361.0158,-667.3067"/>
<polygon fill="#000000" stroke="#000000" points="358.792,-664.6026 353.0713,-673.5203 363.1045,-670.1165 358.792,-664.6026"/>
</g>
<!-- conn13&#45;&gt;p_tempSensor -->
<g id="edge14" class="edge">
<title>conn13&#45;&gt;p_tempSensor</title>
<path fill="none" stroke="#000000" d="M589.3555,-1227.7108C583.4276,-1214.6411 574.8602,-1195.7517 567.8269,-1180.2447"/>
<polygon fill="#000000" stroke="#000000" points="571.0013,-1178.7701 563.6832,-1171.1088 564.6264,-1181.6615 571.0013,-1178.7701"/>
</g>
<!-- conn14&#45;&gt;time_server -->
<g id="edge16" class="edge">
<title>conn14&#45;&gt;time_server</title>
<path fill="none" stroke="#000000" d="M831.6469,-1209.7963C835.676,-1200.2118 840.0169,-1189.8853 843.8767,-1180.7033"/>
<polygon fill="#000000" stroke="#000000" points="847.1899,-1181.8533 847.8387,-1171.2783 840.7369,-1179.1406 847.1899,-1181.8533"/>
</g>
<!-- conn15&#45;&gt;dispatch_periodic_inst -->
<g id="edge18" class="edge">
<title>conn15&#45;&gt;dispatch_periodic_inst</title>
<path fill="none" stroke="#000000" d="M683.5679,-1011.7296C686.7187,-1038.2593 692.8415,-1090.5777 697.4971,-1135.06 703.8366,-1195.6306 710.4219,-1266.6759 713.9309,-1305.3024"/>
<polygon fill="#000000" stroke="#000000" points="710.4895,-1306.1085 714.8769,-1315.7522 717.461,-1305.4774 710.4895,-1306.1085"/>
</g>
<!-- time_server.pit_command&#45;&gt;time_server.pit -->
<g id="edge20" class="edge">
<title>time_server.pit_command&#45;&gt;time_server.pit</title>
<path fill="none" stroke="#000000" d="M929.5277,-920.2969C942.0386,-909.4312 955.2718,-898.8591 968.4971,-889.7785 986.0511,-877.7259 1006.6936,-866.8433 1025.3261,-858.0582"/>
<polygon fill="#000000" stroke="#000000" points="1026.9609,-861.1585 1034.5733,-853.7896 1024.027,-854.803 1026.9609,-861.1585"/>
</g>
<!-- time_server.pit_channel0&#45;&gt;time_server.pit -->
<g id="edge22" class="edge">
<title>time_server.pit_channel0&#45;&gt;time_server.pit</title>
<path fill="none" stroke="#000000" d="M1078.4971,-893.5003C1078.4971,-882.8445 1078.4971,-872.7517 1078.4971,-864.0743"/>
<polygon fill="#000000" stroke="#000000" points="1081.9972,-863.9042 1078.4971,-853.9042 1074.9972,-863.9042 1081.9972,-863.9042"/>
</g>
<!-- time_server.pit_irq&#45;&gt;time_server -->
<g id="edge24" class="edge">
<title>time_server.pit_irq&#45;&gt;time_server</title>
<path fill="none" stroke="#000000" d="M1152.601,-780.5334C1183.4938,-834.1412 1269.7878,-1003.5252 1188.4971,-1099.06 1172.636,-1117.7004 1035.5092,-1135.0214 942.2439,-1144.7984"/>
<polygon fill="#000000" stroke="#000000" points="941.8172,-1141.3238 932.2316,-1145.8368 942.5394,-1148.2864 941.8172,-1141.3238"/>
</g>
<!-- conn1.conn2&#45;&gt;sb_tempcontrol_currenttemp_monitor -->
<g id="edge27" class="edge">
<title>conn1.conn2&#45;&gt;sb_tempcontrol_currenttemp_monitor</title>
<path fill="none" stroke="#000000" d="M653.573,-551.2716C680.6567,-533.66 714.1682,-511.8686 739.2,-495.5912"/>
<polygon fill="#000000" stroke="#000000" points="741.2006,-498.4653 747.676,-490.0796 737.3846,-492.5969 741.2006,-498.4653"/>
</g>
<!-- conn7.conn8&#45;&gt;sb_fan_fancmd_monitor -->
<g id="edge30" class="edge">
<title>conn7.conn8&#45;&gt;sb_fan_fancmd_monitor</title>
<path fill="none" stroke="#000000" d="M307.4971,-525.9702C307.4971,-517.0755 307.4971,-508.2145 307.4971,-500.32"/>
<polygon fill="#000000" stroke="#000000" points="310.9972,-500.2414 307.4971,-490.2414 303.9972,-500.2414 310.9972,-500.2414"/>
</g>
<!-- conn10.conn11&#45;&gt;sb_tempcontrol_fanack_monitor -->
<g id="edge33" class="edge">
<title>conn10.conn11&#45;&gt;sb_tempcontrol_fanack_monitor</title>
<path fill="none" stroke="#000000" d="M213.3166,-144.6214C214.8781,-135.3308 216.4128,-126.1999 217.767,-118.143"/>
<polygon fill="#000000" stroke="#000000" points="221.2243,-118.6886 219.4303,-108.2468 214.3211,-117.5283 221.2243,-118.6886"/>
</g>
</g>
</svg>
