<?xml version="1.0" encoding="UTF-8" standalone="no"?>
<!DOCTYPE svg PUBLIC "-//W3C//DTD SVG 1.1//EN"
 "http://www.w3.org/Graphics/SVG/1.1/DTD/svg11.dtd">
<!-- Generated by graphviz version 2.40.1 (20161225.0304)
 -->
<!-- Title: %3 Pages: 1 -->
<svg width="419pt" height="409pt"
 viewBox="0.00 0.00 418.62 409.00" xmlns="http://www.w3.org/2000/svg" xmlns:xlink="http://www.w3.org/1999/xlink">
<g id="graph0" class="graph" transform="scale(1 1) rotate(0) translate(4 405)">
<title>%3</title>
<polygon fill="#ffffff" stroke="transparent" points="-4,4 -4,-405 414.6247,-405 414.6247,4 -4,4"/>
<!-- tsp_tempSensor -->
<g id="node1" class="node">
<title>tsp_tempSensor</title>
<path fill="none" stroke="#000000" d="M384.6669,-401C384.6669,-401 124.6669,-401 124.6669,-401 118.6669,-401 112.6669,-395 112.6669,-389 112.6669,-389 112.6669,-377 112.6669,-377 112.6669,-371 118.6669,-365 124.6669,-365 124.6669,-365 384.6669,-365 384.6669,-365 390.6669,-365 396.6669,-371 396.6669,-377 396.6669,-377 396.6669,-389 396.6669,-389 396.6669,-395 390.6669,-401 384.6669,-401"/>
<text text-anchor="middle" x="254.6669" y="-379.3" font-family="Times,serif" font-size="14.00" fill="#000000">tsp_tempSensor::TempSensor_i_tsp_tempSensor</text>
</g>
<!-- tcp_tempControl -->
<g id="node2" class="node">
<title>tcp_tempControl</title>
<path fill="none" stroke="#000000" d="M294.1669,-255C294.1669,-255 19.1669,-255 19.1669,-255 13.1669,-255 7.1669,-249 7.1669,-243 7.1669,-243 7.1669,-231 7.1669,-231 7.1669,-225 13.1669,-219 19.1669,-219 19.1669,-219 294.1669,-219 294.1669,-219 300.1669,-219 306.1669,-225 306.1669,-231 306.1669,-231 306.1669,-243 306.1669,-243 306.1669,-249 300.1669,-255 294.1669,-255"/>
<text text-anchor="middle" x="156.6669" y="-233.3" font-family="Times,serif" font-size="14.00" fill="#000000">tcp_tempControl::TempControl_i_tcp_tempControl</text>
</g>
<!-- tsp_tempSensor&#45;&gt;tcp_tempControl -->
<g id="edge1" class="edge">
<title>tsp_tempSensor&#45;&gt;tcp_tempControl</title>
<path fill="none" stroke="#000000" d="M167.957,-361.9798C137.5953,-352.6467 108.9651,-340.8619 100.6669,-328 91.9926,-314.5554 94.4774,-306.7543 100.6669,-292 105.4854,-280.5137 114.0023,-270.2181 122.9622,-261.7271"/>
<polygon fill="none" stroke="#000000" points="178.9921,-361.088 176.7118,-368.7562 169.0436,-366.476 171.3239,-358.8078 178.9921,-361.088"/>
<polyline fill="none" stroke="#000000" points="170.1838,-362.6419 168.2667,-362.0718 "/>
<polygon fill="none" stroke="#000000" points="127.8694,-252.0382 133.1733,-258.0272 127.1843,-263.3312 121.8803,-257.3422 127.8694,-252.0382"/>
<polyline fill="none" stroke="#000000" points="124.5323,-260.3367 123.035,-261.6627 "/>
<text text-anchor="middle" x="117.6669" y="-306.3" font-family="Times,serif" font-size="14.00" fill="#000000">conn1</text>
</g>
<!-- tsp_tempSensor&#45;&gt;tcp_tempControl -->
<g id="edge4" class="edge">
<title>tsp_tempSensor&#45;&gt;tcp_tempControl</title>
<path fill="none" stroke="#000000" d="M199.6725,-359.7857C186.4908,-351.6384 173.8708,-341.1461 165.6669,-328 154.0903,-309.4496 152.3655,-284.5185 153.2425,-265.4425"/>
<polygon fill="none" stroke="#000000" points="210.3737,-361.3404 206.3765,-368.2703 199.4466,-364.2731 203.4438,-357.3432 210.3737,-361.3404"/>
<polyline fill="none" stroke="#000000" points="201.4452,-360.8082 199.7128,-359.8089 "/>
<polygon fill="none" stroke="#000000" points="149.9882,-254.9649 157.9674,-255.5408 157.3915,-263.52 149.4123,-262.9441 149.9882,-254.9649"/>
<polyline fill="none" stroke="#000000" points="153.4019,-263.2321 153.2579,-265.2269 "/>
<text text-anchor="middle" x="182.6669" y="-306.3" font-family="Times,serif" font-size="14.00" fill="#000000">conn3</text>
</g>
<!-- conn2 -->
<g id="node4" class="node">
<title>conn2</title>
<polygon fill="none" stroke="#000000" points="254.6669,-328 208.7511,-310 254.6669,-292 300.5826,-310 254.6669,-328"/>
<text text-anchor="middle" x="254.6669" y="-306.3" font-family="Times,serif" font-size="14.00" fill="#000000">conn2</text>
</g>
<!-- tsp_tempSensor&#45;&gt;conn2 -->
<g id="edge2" class="edge">
<title>tsp_tempSensor&#45;&gt;conn2</title>
<path fill="none" stroke="#000000" d="M254.6669,-364.9551C254.6669,-356.8828 254.6669,-347.1764 254.6669,-338.1817"/>
<polygon fill="#000000" stroke="#000000" points="258.167,-338.0903 254.6669,-328.0904 251.167,-338.0904 258.167,-338.0903"/>
</g>
<!-- conn8 -->
<g id="node7" class="node">
<title>conn8</title>
<polygon fill="none" stroke="#000000" points="364.6669,-328 318.7511,-310 364.6669,-292 410.5826,-310 364.6669,-328"/>
<text text-anchor="middle" x="364.6669" y="-306.3" font-family="Times,serif" font-size="14.00" fill="#000000">conn8</text>
</g>
<!-- tsp_tempSensor&#45;&gt;conn8 -->
<g id="edge11" class="edge">
<title>tsp_tempSensor&#45;&gt;conn8</title>
<path fill="none" stroke="#000000" d="M275.9421,-364.9551C293.0048,-352.8362 316.9096,-337.0338 335.6941,-325.4867"/>
<polygon fill="#000000" stroke="#000000" points="337.7032,-328.3621 344.4518,-320.1947 334.0829,-322.371 337.7032,-328.3621"/>
</g>
<!-- fp_fan -->
<g id="node3" class="node">
<title>fp_fan</title>
<path fill="none" stroke="#000000" d="M174.6669,-109C174.6669,-109 66.6669,-109 66.6669,-109 60.6669,-109 54.6669,-103 54.6669,-97 54.6669,-97 54.6669,-85 54.6669,-85 54.6669,-79 60.6669,-73 66.6669,-73 66.6669,-73 174.6669,-73 174.6669,-73 180.6669,-73 186.6669,-79 186.6669,-85 186.6669,-85 186.6669,-97 186.6669,-97 186.6669,-103 180.6669,-109 174.6669,-109"/>
<text text-anchor="middle" x="120.6669" y="-87.3" font-family="Times,serif" font-size="14.00" fill="#000000">fp_fan::Fan_i_fp_fan</text>
</g>
<!-- tcp_tempControl&#45;&gt;fp_fan -->
<g id="edge7" class="edge">
<title>tcp_tempControl&#45;&gt;fp_fan</title>
<path fill="none" stroke="#000000" d="M74.5451,-215.9636C44.3704,-206.439 15.4089,-194.5166 6.6669,-182 -2.4948,-168.8827 -1.8408,-159.5506 6.6669,-146 15.7995,-131.4539 29.9822,-120.6631 45.2799,-112.6905"/>
<polygon fill="none" stroke="#000000" points="85.5319,-215.1448 83.1893,-222.7941 75.54,-220.4516 77.8825,-212.8022 85.5319,-215.1448"/>
<polyline fill="none" stroke="#000000" points="76.7112,-216.6269 74.7989,-216.0412 "/>
<polygon fill="none" stroke="#000000" points="52.6536,-104.7096 56.1185,-111.9203 48.9077,-115.3852 45.4428,-108.1744 52.6536,-104.7096"/>
<polyline fill="none" stroke="#000000" points="47.1753,-111.7798 45.3726,-112.646 "/>
<text text-anchor="middle" x="23.6669" y="-160.3" font-family="Times,serif" font-size="14.00" fill="#000000">conn5</text>
</g>
<!-- conn4 -->
<g id="node5" class="node">
<title>conn4</title>
<polygon fill="none" stroke="#000000" points="95.6669,-182 49.7511,-164 95.6669,-146 141.5826,-164 95.6669,-182"/>
<text text-anchor="middle" x="95.6669" y="-160.3" font-family="Times,serif" font-size="14.00" fill="#000000">conn4</text>
</g>
<!-- tcp_tempControl&#45;&gt;conn4 -->
<g id="edge5" class="edge">
<title>tcp_tempControl&#45;&gt;conn4</title>
<path fill="none" stroke="#000000" d="M141.5882,-218.9551C133.2365,-208.9604 122.7914,-196.4605 113.9738,-185.9083"/>
<polygon fill="#000000" stroke="#000000" points="116.4203,-183.3777 107.3223,-177.9483 111.0488,-187.8662 116.4203,-183.3777"/>
</g>
<!-- fp_fan&#45;&gt;tcp_tempControl -->
<g id="edge10" class="edge">
<title>fp_fan&#45;&gt;tcp_tempControl</title>
<path fill="none" stroke="#000000" d="M138.5401,-118.2281C143.312,-126.7842 147.905,-136.4883 150.6669,-146 156.6088,-166.4637 157.9614,-190.5621 157.9078,-208.8176"/>
<polygon fill="none" stroke="#000000" points="129.9243,-111.4892 136.8159,-107.4266 140.8786,-114.3182 133.9869,-118.3809 129.9243,-111.4892"/>
<polyline fill="none" stroke="#000000" points="137.4328,-116.3496 138.4484,-118.0725 "/>
<polygon fill="none" stroke="#000000" points="161.7373,-218.8873 153.7385,-218.7513 153.8745,-210.7524 161.8733,-210.8884 161.7373,-218.8873"/>
<polyline fill="none" stroke="#000000" points="157.8739,-210.8204 157.9079,-208.8207 "/>
<text text-anchor="middle" x="174.6669" y="-160.3" font-family="Times,serif" font-size="14.00" fill="#000000">conn7</text>
</g>
<!-- conn6 -->
<g id="node6" class="node">
<title>conn6</title>
<polygon fill="none" stroke="#000000" points="192.6669,-36 146.7511,-18 192.6669,0 238.5826,-18 192.6669,-36"/>
<text text-anchor="middle" x="192.6669" y="-14.3" font-family="Times,serif" font-size="14.00" fill="#000000">conn6</text>
</g>
<!-- fp_fan&#45;&gt;conn6 -->
<g id="edge8" class="edge">
<title>fp_fan&#45;&gt;conn6</title>
<path fill="none" stroke="#000000" d="M138.4646,-72.9551C148.7856,-62.4907 161.8153,-49.2801 172.5128,-38.4339"/>
<polygon fill="#000000" stroke="#000000" points="175.2878,-40.6047 179.8181,-31.0273 170.304,-35.6892 175.2878,-40.6047"/>
</g>
<!-- conn2&#45;&gt;tcp_tempControl -->
<g id="edge3" class="edge">
<title>conn2&#45;&gt;tcp_tempControl</title>
<path fill="none" stroke="#000000" d="M238.4842,-297.9455C225.1512,-288.0138 205.8188,-273.6132 189.2936,-261.3036"/>
<polygon fill="#000000" stroke="#000000" points="191.065,-258.2588 180.9545,-255.0918 186.8833,-263.8725 191.065,-258.2588"/>
</g>
<!-- conn4&#45;&gt;fp_fan -->
<g id="edge6" class="edge">
<title>conn4&#45;&gt;fp_fan</title>
<path fill="none" stroke="#000000" d="M101.2152,-147.7989C104.1192,-139.3192 107.7572,-128.6963 111.0989,-118.9385"/>
<polygon fill="#000000" stroke="#000000" points="114.5021,-119.8038 114.4308,-109.2092 107.8796,-117.5358 114.5021,-119.8038"/>
</g>
<!-- conn6&#45;&gt;tcp_tempControl -->
<g id="edge9" class="edge">
<title>conn6&#45;&gt;tcp_tempControl</title>
<path fill="none" stroke="#000000" d="M196.4371,-34.8014C202.4825,-65.0796 212.09,-130.4464 195.6669,-182 192.4158,-192.2053 186.5065,-202.1416 180.2545,-210.6976"/>
<polygon fill="#000000" stroke="#000000" points="177.3629,-208.714 173.974,-218.7523 182.8832,-213.0184 177.3629,-208.714"/>
</g>
<!-- conn8&#45;&gt;tsp_tempSensor -->
<g id="edge12" class="edge">
<title>conn8&#45;&gt;tsp_tempSensor</title>
<path fill="none" stroke="#000000" d="M350.6578,-322.8005C336.885,-332.9298 315.5149,-347.3491 296.3752,-359.5361"/>
<polygon fill="#000000" stroke="#000000" points="294.3689,-356.6633 287.7736,-364.9551 298.1002,-362.586 294.3689,-356.6633"/>
</g>
</g>
</svg>
