<?xml version="1.0" encoding="UTF-8" standalone="no"?>
<!DOCTYPE svg PUBLIC "-//W3C//DTD SVG 1.1//EN"
 "http://www.w3.org/Graphics/SVG/1.1/DTD/svg11.dtd">
<!-- Generated by graphviz version 2.40.1 (20161225.0304)
 -->
<!-- Title: g Pages: 1 -->
<svg width="1651pt" height="548pt"
 viewBox="0.00 0.00 1651.00 548.00" xmlns="http://www.w3.org/2000/svg" xmlns:xlink="http://www.w3.org/1999/xlink">
<g id="graph0" class="graph" transform="scale(1 1) rotate(0) translate(4 544)">
<title>g</title>
<polygon fill="#ffffff" stroke="transparent" points="-4,4 -4,-544 1647,-544 1647,4 -4,4"/>
<!-- tsp_tempSensor -->
<g id="node1" class="node">
<title>tsp_tempSensor</title>
<polygon fill="none" stroke="#000000" points="242.5,-124 242.5,-148 615.5,-148 615.5,-124 242.5,-124"/>
<text text-anchor="start" x="374.5" y="-133.2" font-family="Times,serif" font-weight="bold" font-size="16.00" fill="#000000">tsp_tempSensor</text>
<polygon fill="none" stroke="#000000" points="242.5,-100 242.5,-124 615.5,-124 615.5,-100 242.5,-100"/>
<text text-anchor="start" x="248.5" y="-109.2" font-family="Times,serif" font-size="16.00" fill="#ff0000">dataport sp_union_art_DataContent_t </text>
<text text-anchor="start" x="495.5" y="-109.2" font-family="Times,serif" font-weight="bold" font-size="16.00" fill="#ff0000">sb_currentTemp</text>
<polygon fill="none" stroke="#000000" points="242.5,-76 242.5,-100 615.5,-100 615.5,-76 242.5,-76"/>
<text text-anchor="start" x="245.5" y="-85.2" font-family="Times,serif" font-size="16.00" fill="#ff0000">dataport sb_event_counter_t </text>
<text text-anchor="start" x="432.5" y="-85.2" font-family="Times,serif" font-weight="bold" font-size="16.00" fill="#ff0000">sb_tempChanged_counter</text>
<polygon fill="none" stroke="#000000" points="242.5,-52 242.5,-76 615.5,-76 615.5,-52 242.5,-52"/>
<text text-anchor="start" x="304" y="-61.2" font-family="Times,serif" font-size="16.00" fill="#0000ff">emits ReceiveEvent </text>
<text text-anchor="start" x="434" y="-61.2" font-family="Times,serif" font-weight="bold" font-size="16.00" fill="#0000ff">sb_tempChanged</text>
<polygon fill="none" stroke="#000000" points="242.5,-28 242.5,-52 615.5,-52 615.5,-28 242.5,-28"/>
<text text-anchor="start" x="313.5" y="-37.2" font-family="Times,serif" font-size="16.00" fill="#0000ff">emits TickTock </text>
<text text-anchor="start" x="418.5" y="-37.2" font-family="Times,serif" font-weight="bold" font-size="16.00" fill="#0000ff">sb_self_pacer_tick</text>
<polygon fill="none" stroke="#000000" points="242.5,-4 242.5,-28 615.5,-28 615.5,-4 242.5,-4"/>
<text text-anchor="start" x="297.5" y="-13.2" font-family="Times,serif" font-size="16.00" fill="#0000ff">consumes TickTock </text>
<text text-anchor="start" x="430.5" y="-13.2" font-family="Times,serif" font-weight="bold" font-size="16.00" fill="#0000ff">sb_self_pacer_tock</text>
</g>
<!-- tsp_tempSensor&#45;&gt;tsp_tempSensor -->
<g id="conn8" class="edge">
<title>tsp_tempSensor:sb_self_pacer_tick&#45;&gt;tsp_tempSensor:sb_self_pacer_tock</title>
<path fill="none" stroke="#0000ff" d="M242.274,-45.6454C119.2677,-46.3538 0,-41.5454 0,-28 0,-14.825 112.8344,-9.9157 232.1944,-10.3089"/>
<polygon fill="#0000ff" stroke="#0000ff" points="232.2582,-13.8092 242.274,-10.3546 232.29,-6.8092 232.2582,-13.8092"/>
</g>
<!-- tcp_tempControl -->
<g id="node2" class="node">
<title>tcp_tempControl</title>
<polygon fill="none" stroke="#000000" points="667.5,-172 667.5,-196 1128.5,-196 1128.5,-172 667.5,-172"/>
<text text-anchor="start" x="839" y="-181.2" font-family="Times,serif" font-weight="bold" font-size="16.00" fill="#000000">tcp_tempControl</text>
<polygon fill="none" stroke="#000000" points="667.5,-148 667.5,-172 1128.5,-172 1128.5,-148 667.5,-148"/>
<text text-anchor="start" x="717.5" y="-157.2" font-family="Times,serif" font-size="16.00" fill="#ff0000">dataport sp_union_art_DataContent_t </text>
<text text-anchor="start" x="964.5" y="-157.2" font-family="Times,serif" font-weight="bold" font-size="16.00" fill="#ff0000">sb_currentTemp</text>
<polygon fill="none" stroke="#000000" points="667.5,-124 667.5,-148 1128.5,-148 1128.5,-124 667.5,-124"/>
<text text-anchor="start" x="682" y="-133.2" font-family="Times,serif" font-size="16.00" fill="#ff0000">dataport sb_queue_union_art_DataContent_1_t </text>
<text text-anchor="start" x="992" y="-133.2" font-family="Times,serif" font-weight="bold" font-size="16.00" fill="#ff0000">sb_fanAck_queue</text>
<polygon fill="none" stroke="#000000" points="667.5,-100 667.5,-124 1128.5,-124 1128.5,-100 667.5,-100"/>
<text text-anchor="start" x="670.5" y="-109.2" font-family="Times,serif" font-size="16.00" fill="#ff0000">dataport sb_queue_union_art_DataContent_1_t </text>
<text text-anchor="start" x="980.5" y="-109.2" font-family="Times,serif" font-weight="bold" font-size="16.00" fill="#ff0000">sb_fanCmd_queue_1</text>
<polygon fill="none" stroke="#000000" points="667.5,-76 667.5,-100 1128.5,-100 1128.5,-76 667.5,-76"/>
<text text-anchor="start" x="714.5" y="-85.2" font-family="Times,serif" font-size="16.00" fill="#ff0000">dataport sb_event_counter_t </text>
<text text-anchor="start" x="901.5" y="-85.2" font-family="Times,serif" font-weight="bold" font-size="16.00" fill="#ff0000">sb_tempChanged_counter</text>
<polygon fill="none" stroke="#000000" points="667.5,-52 667.5,-76 1128.5,-76 1128.5,-52 667.5,-52"/>
<text text-anchor="start" x="741" y="-61.2" font-family="Times,serif" font-size="16.00" fill="#0000ff">emits ReceiveEvent </text>
<text text-anchor="start" x="871" y="-61.2" font-family="Times,serif" font-weight="bold" font-size="16.00" fill="#0000ff">sb_fanCmd_1_notification</text>
<polygon fill="none" stroke="#000000" points="667.5,-28 667.5,-52 1128.5,-52 1128.5,-28 667.5,-28"/>
<text text-anchor="start" x="738.5" y="-37.2" font-family="Times,serif" font-size="16.00" fill="#0000ff">consumes ReceiveEvent </text>
<text text-anchor="start" x="897.5" y="-37.2" font-family="Times,serif" font-weight="bold" font-size="16.00" fill="#0000ff">sb_fanAck_notification</text>
<polygon fill="none" stroke="#000000" points="667.5,-4 667.5,-28 1128.5,-28 1128.5,-4 667.5,-4"/>
<text text-anchor="start" x="758.5" y="-13.2" font-family="Times,serif" font-size="16.00" fill="#0000ff">consumes ReceiveEvent </text>
<text text-anchor="start" x="917.5" y="-13.2" font-family="Times,serif" font-weight="bold" font-size="16.00" fill="#0000ff">sb_tempChanged</text>
</g>
<!-- tsp_tempSensor&#45;&gt;tcp_tempControl -->
<g id="conn1" class="edge">
<title>tsp_tempSensor:sb_currentTemp&#45;&gt;tcp_tempControl:sb_currentTemp</title>
<path fill="none" stroke="#ff0000" d="M615.5,-112C643.0206,-112 638.1121,-148.75 657.5255,-157.9375"/>
<polygon fill="#ff0000" stroke="#ff0000" points="656.9984,-161.4025 667.5,-160 658.4159,-154.5475 656.9984,-161.4025"/>
</g>
<!-- tsp_tempSensor&#45;&gt;tcp_tempControl -->
<g id="conn2" class="edge">
<title>tsp_tempSensor:sb_tempChanged&#45;&gt;tcp_tempControl:sb_tempChanged</title>
<path fill="none" stroke="#0000ff" d="M615.5,-64C643.0206,-64 638.1121,-27.25 657.5255,-18.0625"/>
<polygon fill="#0000ff" stroke="#0000ff" points="658.4159,-21.4525 667.5,-16 656.9984,-14.5975 658.4159,-21.4525"/>
</g>
<!-- tsp_tempSensor&#45;&gt;tcp_tempControl -->
<g id="conn3" class="edge">
<title>tsp_tempSensor:sb_tempChanged_counter&#45;&gt;tcp_tempControl:sb_tempChanged_counter</title>
<path fill="none" stroke="#ff0000" d="M615.5,-88C634.8194,-88 642.0265,-88 657.3716,-88"/>
<polygon fill="#ff0000" stroke="#ff0000" points="657.5,-91.5001 667.5,-88 657.5,-84.5001 657.5,-91.5001"/>
</g>
<!-- fp_fan -->
<g id="node3" class="node">
<title>fp_fan</title>
<polygon fill="none" stroke="#000000" points="1180.5,-136 1180.5,-160 1635.5,-160 1635.5,-136 1180.5,-136"/>
<text text-anchor="start" x="1385" y="-145.2" font-family="Times,serif" font-weight="bold" font-size="16.00" fill="#000000">fp_fan</text>
<polygon fill="none" stroke="#000000" points="1180.5,-112 1180.5,-136 1635.5,-136 1635.5,-112 1180.5,-112"/>
<text text-anchor="start" x="1188.5" y="-121.2" font-family="Times,serif" font-size="16.00" fill="#ff0000">dataport sb_queue_union_art_DataContent_1_t </text>
<text text-anchor="start" x="1498.5" y="-121.2" font-family="Times,serif" font-weight="bold" font-size="16.00" fill="#ff0000">sb_fanCmd_queue</text>
<polygon fill="none" stroke="#000000" points="1180.5,-88 1180.5,-112 1635.5,-112 1635.5,-88 1180.5,-88"/>
<text text-anchor="start" x="1183.5" y="-97.2" font-family="Times,serif" font-size="16.00" fill="#ff0000">dataport sb_queue_union_art_DataContent_1_t </text>
<text text-anchor="start" x="1493.5" y="-97.2" font-family="Times,serif" font-weight="bold" font-size="16.00" fill="#ff0000">sb_fanAck_queue_1</text>
<polygon fill="none" stroke="#000000" points="1180.5,-64 1180.5,-88 1635.5,-88 1635.5,-64 1180.5,-64"/>
<text text-anchor="start" x="1254.5" y="-73.2" font-family="Times,serif" font-size="16.00" fill="#0000ff">emits ReceiveEvent </text>
<text text-anchor="start" x="1384.5" y="-73.2" font-family="Times,serif" font-weight="bold" font-size="16.00" fill="#0000ff">sb_fanAck_1_notification</text>
<polygon fill="none" stroke="#000000" points="1180.5,-40 1180.5,-64 1635.5,-64 1635.5,-40 1180.5,-40"/>
<text text-anchor="start" x="1245" y="-49.2" font-family="Times,serif" font-size="16.00" fill="#0000ff">consumes ReceiveEvent </text>
<text text-anchor="start" x="1404" y="-49.2" font-family="Times,serif" font-weight="bold" font-size="16.00" fill="#0000ff">sb_fanCmd_notification</text>
</g>
<!-- tcp_tempControl&#45;&gt;fp_fan -->
<g id="conn4" class="edge">
<title>tcp_tempControl:sb_fanCmd_1_notification&#45;&gt;fp_fan:sb_fanCmd_notification</title>
<path fill="none" stroke="#0000ff" d="M1128.5,-64C1148.3272,-64 1154.7687,-55.6145 1170.2037,-52.863"/>
<polygon fill="#0000ff" stroke="#0000ff" points="1170.8273,-56.3231 1180.5,-52 1170.2426,-49.3476 1170.8273,-56.3231"/>
</g>
<!-- tcp_tempControl&#45;&gt;fp_fan -->
<g id="conn5" class="edge">
<title>tcp_tempControl:sb_fanCmd_queue_1&#45;&gt;fp_fan:sb_fanCmd_queue</title>
<path fill="none" stroke="#ff0000" d="M1128.5,-112C1148.3272,-112 1154.7687,-120.3855 1170.2037,-123.137"/>
<polygon fill="#ff0000" stroke="#ff0000" points="1170.2426,-126.6524 1180.5,-124 1170.8273,-119.6769 1170.2426,-126.6524"/>
</g>
<!-- fp_fan&#45;&gt;tcp_tempControl -->
<g id="conn6" class="edge">
<title>fp_fan:sb_fanAck_1_notification&#45;&gt;tcp_tempControl:sb_fanAck_notification</title>
<path fill="none" stroke="#0000ff" d="M1180.5,-76C1156.3437,-76 1156.062,-49.4131 1138.6205,-41.9355"/>
<polygon fill="#0000ff" stroke="#0000ff" points="1138.9795,-38.4408 1128.5,-40 1137.6645,-45.3162 1138.9795,-38.4408"/>
</g>
<!-- fp_fan&#45;&gt;tcp_tempControl -->
<g id="conn7" class="edge">
<title>fp_fan:sb_fanAck_queue_1&#45;&gt;tcp_tempControl:sb_fanAck_queue</title>
<path fill="none" stroke="#ff0000" d="M1180.5,-100C1156.3437,-100 1156.062,-126.5869 1138.6205,-134.0645"/>
<polygon fill="#ff0000" stroke="#ff0000" points="1137.6645,-130.6838 1128.5,-136 1138.9795,-137.5592 1137.6645,-130.6838"/>
</g>
<!-- connectiontypekey -->
<g id="node4" class="node">
<title>connectiontypekey</title>
<polygon fill="none" stroke="#000000" points="310.5,-342 310.5,-366 546.5,-366 546.5,-342 310.5,-342"/>
<text text-anchor="start" x="348.5" y="-351.2" font-family="Times,serif" font-weight="bold" font-size="16.00" fill="#000000">Key: Connection Types</text>
<polygon fill="none" stroke="#000000" points="310.5,-318 310.5,-342 496.5,-342 496.5,-318 310.5,-318"/>
<text text-anchor="start" x="351" y="-326.2" font-family="Times,serif" font-size="16.00" fill="#ff0000">seL4SharedData</text>
<polygon fill="#ff0000" stroke="transparent" points="496.5,-318 496.5,-342 546.5,-342 546.5,-318 496.5,-318"/>
<polygon fill="none" stroke="#000000" points="496.5,-318 496.5,-342 546.5,-342 546.5,-318 496.5,-318"/>
<text text-anchor="start" x="511" y="-326.2" font-family="Times,serif" font-size="16.00" fill="#000000">red</text>
<polygon fill="none" stroke="#000000" points="310.5,-294 310.5,-318 496.5,-318 496.5,-294 310.5,-294"/>
<text text-anchor="start" x="349" y="-302.2" font-family="Times,serif" font-size="16.00" fill="#0000ff">seL4Notification</text>
<polygon fill="#0000ff" stroke="transparent" points="496.5,-294 496.5,-318 546.5,-318 546.5,-294 496.5,-294"/>
<polygon fill="none" stroke="#000000" points="496.5,-294 496.5,-318 546.5,-318 546.5,-294 496.5,-294"/>
<text text-anchor="start" x="507.5" y="-302.2" font-family="Times,serif" font-size="16.00" fill="#000000">blue</text>
<polygon fill="none" stroke="#000000" points="310.5,-270 310.5,-294 496.5,-294 496.5,-270 310.5,-270"/>
<text text-anchor="start" x="359.5" y="-278.2" font-family="Times,serif" font-size="16.00" fill="#ffa500">seL4RPCCall</text>
<polygon fill="#ffa500" stroke="transparent" points="496.5,-270 496.5,-294 546.5,-294 546.5,-270 496.5,-270"/>
<polygon fill="none" stroke="#000000" points="496.5,-270 496.5,-294 546.5,-294 546.5,-270 496.5,-270"/>
<text text-anchor="start" x="499.5" y="-278.2" font-family="Times,serif" font-size="16.00" fill="#000000">orange</text>
<polygon fill="none" stroke="#000000" points="310.5,-246 310.5,-270 496.5,-270 496.5,-246 310.5,-246"/>
<text text-anchor="start" x="350.5" y="-254.2" font-family="Times,serif" font-size="16.00" fill="#00ff00">seL4TimeServer</text>
<polygon fill="#00ff00" stroke="transparent" points="496.5,-246 496.5,-270 546.5,-270 546.5,-246 496.5,-246"/>
<polygon fill="none" stroke="#000000" points="496.5,-246 496.5,-270 546.5,-270 546.5,-246 496.5,-246"/>
<text text-anchor="start" x="503.5" y="-254.2" font-family="Times,serif" font-size="16.00" fill="#000000">green</text>
<polygon fill="none" stroke="#000000" points="310.5,-222 310.5,-246 496.5,-246 496.5,-222 310.5,-222"/>
<text text-anchor="start" x="313.5" y="-230.2" font-family="Times,serif" font-size="16.00" fill="#a52a2a">seL4GlobalAsynchCallback</text>
<polygon fill="#a52a2a" stroke="transparent" points="496.5,-222 496.5,-246 546.5,-246 546.5,-222 496.5,-222"/>
<polygon fill="none" stroke="#000000" points="496.5,-222 496.5,-246 546.5,-246 546.5,-222 496.5,-222"/>
<text text-anchor="start" x="500.5" y="-230.2" font-family="Times,serif" font-size="16.00" fill="#000000">brown</text>
<polygon fill="none" stroke="#000000" points="310.5,-198 310.5,-222 496.5,-222 496.5,-198 310.5,-198"/>
<text text-anchor="start" x="320" y="-206.2" font-family="Times,serif" font-size="16.00" fill="#ffff00">seL4VMDTBPassthrough</text>
<polygon fill="#ffff00" stroke="transparent" points="496.5,-198 496.5,-222 546.5,-222 546.5,-198 496.5,-198"/>
<polygon fill="none" stroke="#000000" points="496.5,-198 496.5,-222 546.5,-222 546.5,-198 496.5,-198"/>
<text text-anchor="start" x="499.5" y="-206.2" font-family="Times,serif" font-size="16.00" fill="#000000">yellow</text>
<polygon fill="none" stroke="#000000" points="310.5,-174 310.5,-198 496.5,-198 496.5,-174 310.5,-174"/>
<text text-anchor="start" x="319" y="-182.2" font-family="Times,serif" font-size="16.00" fill="#ffc0cb">seL4SharedDataWithCaps</text>
<polygon fill="#ffc0cb" stroke="transparent" points="496.5,-174 496.5,-198 546.5,-198 546.5,-174 496.5,-174"/>
<polygon fill="none" stroke="#000000" points="496.5,-174 496.5,-198 546.5,-198 546.5,-174 496.5,-174"/>
<text text-anchor="start" x="506.5" y="-182.2" font-family="Times,serif" font-size="16.00" fill="#000000">pink</text>
</g>
<!-- interfacetypekey -->
<g id="node5" class="node">
<title>interfacetypekey</title>
<polygon fill="none" stroke="#000000" points="354.5,-512 354.5,-536 502.5,-536 502.5,-512 354.5,-512"/>
<text text-anchor="start" x="357.5" y="-521.2" font-family="Times,serif" font-weight="bold" font-size="16.00" fill="#000000">Key: Interface Types</text>
<polygon fill="none" stroke="#000000" points="354.5,-488 354.5,-512 438.5,-512 438.5,-488 354.5,-488"/>
<text text-anchor="start" x="370" y="-496.2" font-family="Times,serif" font-size="16.00" fill="#ff0000">dataport</text>
<polygon fill="#ff0000" stroke="transparent" points="438.5,-488 438.5,-512 502.5,-512 502.5,-488 438.5,-488"/>
<polygon fill="none" stroke="#000000" points="438.5,-488 438.5,-512 502.5,-512 502.5,-488 438.5,-488"/>
<text text-anchor="start" x="460" y="-496.2" font-family="Times,serif" font-size="16.00" fill="#000000">red</text>
<polygon fill="none" stroke="#000000" points="354.5,-464 354.5,-488 438.5,-488 438.5,-464 354.5,-464"/>
<text text-anchor="start" x="379" y="-472.2" font-family="Times,serif" font-size="16.00" fill="#0000ff">emits</text>
<polygon fill="#0000ff" stroke="transparent" points="438.5,-464 438.5,-488 502.5,-488 502.5,-464 438.5,-464"/>
<polygon fill="none" stroke="#000000" points="438.5,-464 438.5,-488 502.5,-488 502.5,-464 438.5,-464"/>
<text text-anchor="start" x="456.5" y="-472.2" font-family="Times,serif" font-size="16.00" fill="#000000">blue</text>
<polygon fill="none" stroke="#000000" points="354.5,-440 354.5,-464 438.5,-464 438.5,-440 354.5,-440"/>
<text text-anchor="start" x="364.5" y="-448.2" font-family="Times,serif" font-size="16.00" fill="#0000ff">consumes</text>
<polygon fill="#0000ff" stroke="transparent" points="438.5,-440 438.5,-464 502.5,-464 502.5,-440 438.5,-440"/>
<polygon fill="none" stroke="#000000" points="438.5,-440 438.5,-464 502.5,-464 502.5,-440 438.5,-440"/>
<text text-anchor="start" x="456.5" y="-448.2" font-family="Times,serif" font-size="16.00" fill="#000000">blue</text>
<polygon fill="none" stroke="#000000" points="354.5,-416 354.5,-440 438.5,-440 438.5,-416 354.5,-416"/>
<text text-anchor="start" x="368.5" y="-424.2" font-family="Times,serif" font-size="16.00" fill="#ffa500">provides</text>
<polygon fill="#ffa500" stroke="transparent" points="438.5,-416 438.5,-440 502.5,-440 502.5,-416 438.5,-416"/>
<polygon fill="none" stroke="#000000" points="438.5,-416 438.5,-440 502.5,-440 502.5,-416 438.5,-416"/>
<text text-anchor="start" x="448.5" y="-424.2" font-family="Times,serif" font-size="16.00" fill="#000000">orange</text>
<polygon fill="none" stroke="#000000" points="354.5,-392 354.5,-416 438.5,-416 438.5,-392 354.5,-392"/>
<text text-anchor="start" x="382.5" y="-400.2" font-family="Times,serif" font-size="16.00" fill="#ffa500">uses</text>
<polygon fill="#ffa500" stroke="transparent" points="438.5,-392 438.5,-416 502.5,-416 502.5,-392 438.5,-392"/>
<polygon fill="none" stroke="#000000" points="438.5,-392 438.5,-416 502.5,-416 502.5,-392 438.5,-392"/>
<text text-anchor="start" x="448.5" y="-400.2" font-family="Times,serif" font-size="16.00" fill="#000000">orange</text>
</g>
</g>
</svg>
