<?xml version="1.0" encoding="UTF-8" standalone="no"?>
<!DOCTYPE svg PUBLIC "-//W3C//DTD SVG 1.1//EN"
 "http://www.w3.org/Graphics/SVG/1.1/DTD/svg11.dtd">
<!-- Generated by graphviz version 2.40.1 (20161225.0304)
 -->
<!-- Title: %3 Pages: 1 -->
<svg width="930pt" height="757pt"
 viewBox="0.00 0.00 929.72 757.28" xmlns="http://www.w3.org/2000/svg" xmlns:xlink="http://www.w3.org/1999/xlink">
<g id="graph0" class="graph" transform="scale(1 1) rotate(0) translate(4 753.2757)">
<title>%3</title>
<polygon fill="#ffffff" stroke="transparent" points="-4,4 -4,-753.2757 925.718,-753.2757 925.718,4 -4,4"/>
<!-- tsp_tempSensor -->
<g id="node1" class="node">
<title>tsp_tempSensor</title>
<path fill="none" stroke="#000000" d="M281.5,-574.2814C281.5,-574.2814 21.5,-574.2814 21.5,-574.2814 15.5,-574.2814 9.5,-568.2814 9.5,-562.2814 9.5,-562.2814 9.5,-550.2814 9.5,-550.2814 9.5,-544.2814 15.5,-538.2814 21.5,-538.2814 21.5,-538.2814 281.5,-538.2814 281.5,-538.2814 287.5,-538.2814 293.5,-544.2814 293.5,-550.2814 293.5,-550.2814 293.5,-562.2814 293.5,-562.2814 293.5,-568.2814 287.5,-574.2814 281.5,-574.2814"/>
<text text-anchor="middle" x="151.5" y="-552.5814" font-family="Times,serif" font-size="14.00" fill="#000000">tsp_tempSensor::TempSensor_i_tsp_tempSensor</text>
</g>
<!-- tcp_tempControl -->
<g id="node2" class="node">
<title>tcp_tempControl</title>
<path fill="none" stroke="#000000" d="M287,-255C287,-255 12,-255 12,-255 6,-255 0,-249 0,-243 0,-243 0,-231 0,-231 0,-225 6,-219 12,-219 12,-219 287,-219 287,-219 293,-219 299,-225 299,-231 299,-231 299,-243 299,-243 299,-249 293,-255 287,-255"/>
<text text-anchor="middle" x="149.5" y="-233.3" font-family="Times,serif" font-size="14.00" fill="#000000">tcp_tempControl::TempControl_i_tcp_tempControl</text>
</g>
<!-- tsp_tempSensor&#45;&gt;tcp_tempControl -->
<g id="edge1" class="edge">
<title>tsp_tempSensor&#45;&gt;tcp_tempControl</title>
<path fill="none" stroke="#000000" d="M151.3229,-528.0129C150.9444,-467.5869 150.0601,-326.4163 149.6795,-265.6511"/>
<polygon fill="none" stroke="#000000" points="155.3867,-538.1756 147.3868,-538.2258 147.3366,-530.2259 155.3365,-530.1757 155.3867,-538.1756"/>
<polyline fill="none" stroke="#000000" points="151.3366,-530.2008 151.324,-528.2009 "/>
<polygon fill="none" stroke="#000000" points="145.6146,-255.3033 153.6144,-255.2531 153.6646,-263.253 145.6648,-263.3031 145.6146,-255.3033"/>
<polyline fill="none" stroke="#000000" points="149.6647,-263.278 149.6772,-265.278 "/>
<text text-anchor="middle" x="168.5" y="-392.9407" font-family="Times,serif" font-size="14.00" fill="#000000">conn1</text>
</g>
<!-- tsp_tempSensor&#45;&gt;tcp_tempControl -->
<g id="edge4" class="edge">
<title>tsp_tempSensor&#45;&gt;tcp_tempControl</title>
<path fill="none" stroke="#000000" d="M174.4903,-529.8956C180.5823,-521.3365 186.3384,-511.4194 189.5,-501.2814 217.1917,-412.4852 218.264,-380.4547 189.5,-292 186.1592,-281.7263 180.0965,-271.7704 173.6844,-263.2176"/>
<polygon fill="none" stroke="#000000" points="171.5563,-540.3781 165.1837,-535.5417 170.0202,-529.1691 176.3927,-534.0056 171.5563,-540.3781"/>
<polyline fill="none" stroke="#000000" points="173.2064,-531.5874 174.4156,-529.9942 "/>
<polygon fill="none" stroke="#000000" points="164.1212,-257.6726 170.3664,-252.6728 175.3662,-258.918 169.1211,-263.9178 164.1212,-257.6726"/>
<polyline fill="none" stroke="#000000" points="172.2436,-261.4179 173.4936,-262.9792 "/>
<text text-anchor="middle" x="228.5" y="-392.9407" font-family="Times,serif" font-size="14.00" fill="#000000">conn3</text>
</g>
<!-- conn2 -->
<g id="node7" class="node">
<title>conn2</title>
<polygon fill="none" stroke="#000000" points="67.5,-414.6407 21.5842,-396.6407 67.5,-378.6407 113.4158,-396.6407 67.5,-414.6407"/>
<text text-anchor="middle" x="67.5" y="-392.9407" font-family="Times,serif" font-size="14.00" fill="#000000">conn2</text>
</g>
<!-- tsp_tempSensor&#45;&gt;conn2 -->
<g id="edge2" class="edge">
<title>tsp_tempSensor&#45;&gt;conn2</title>
<path fill="none" stroke="#000000" d="M142.0274,-538.2789C126.9404,-509.6063 97.4251,-453.5129 80.4151,-421.1856"/>
<polygon fill="#000000" stroke="#000000" points="83.3213,-419.1925 75.5674,-411.9726 77.1266,-422.4521 83.3213,-419.1925"/>
</g>
<!-- fp_fan -->
<g id="node3" class="node">
<title>fp_fan</title>
<path fill="none" stroke="#000000" d="M215.5,-109C215.5,-109 107.5,-109 107.5,-109 101.5,-109 95.5,-103 95.5,-97 95.5,-97 95.5,-85 95.5,-85 95.5,-79 101.5,-73 107.5,-73 107.5,-73 215.5,-73 215.5,-73 221.5,-73 227.5,-79 227.5,-85 227.5,-85 227.5,-97 227.5,-97 227.5,-103 221.5,-109 215.5,-109"/>
<text text-anchor="middle" x="161.5" y="-87.3" font-family="Times,serif" font-size="14.00" fill="#000000">fp_fan::Fan_i_fp_fan</text>
</g>
<!-- tcp_tempControl&#45;&gt;fp_fan -->
<g id="edge7" class="edge">
<title>tcp_tempControl&#45;&gt;fp_fan</title>
<path fill="none" stroke="#000000" d="M125.3156,-210.7824C118.9035,-202.2296 112.8408,-192.2737 109.5,-182 104.5521,-166.7843 103.5848,-160.8664 109.5,-146 113.9338,-134.8568 121.8152,-124.6685 130.1226,-116.1705"/>
<polygon fill="none" stroke="#000000" points="134.8788,-216.3274 128.6336,-221.3272 123.6338,-215.082 129.8789,-210.0822 134.8788,-216.3274"/>
<polyline fill="none" stroke="#000000" points="126.7564,-212.5821 125.5064,-211.0208 "/>
<polygon fill="none" stroke="#000000" points="134.692,-106.2655 140.2214,-112.047 134.4399,-117.5764 128.9105,-111.7949 134.692,-106.2655"/>
<polyline fill="none" stroke="#000000" points="131.6752,-114.6856 130.2298,-116.068 "/>
<text text-anchor="middle" x="126.5" y="-160.3" font-family="Times,serif" font-size="14.00" fill="#000000">conn5</text>
</g>
<!-- conn4 -->
<g id="node8" class="node">
<title>conn4</title>
<polygon fill="none" stroke="#000000" points="198.5,-182 152.5842,-164 198.5,-146 244.4158,-164 198.5,-182"/>
<text text-anchor="middle" x="198.5" y="-160.3" font-family="Times,serif" font-size="14.00" fill="#000000">conn4</text>
</g>
<!-- tcp_tempControl&#45;&gt;conn4 -->
<g id="edge5" class="edge">
<title>tcp_tempControl&#45;&gt;conn4</title>
<path fill="none" stroke="#000000" d="M161.6124,-218.9551C168.1006,-209.289 176.1617,-197.2796 183.0918,-186.9551"/>
<polygon fill="#000000" stroke="#000000" points="186.1556,-188.6706 188.8228,-178.417 180.3435,-184.7693 186.1556,-188.6706"/>
</g>
<!-- fp_fan&#45;&gt;tcp_tempControl -->
<g id="edge10" class="edge">
<title>fp_fan&#45;&gt;tcp_tempControl</title>
<path fill="none" stroke="#000000" d="M220.3887,-114.0421C233.5736,-122.0986 245.893,-132.5896 253.5,-146 261.3943,-159.9169 261.7559,-168.2945 253.5,-182 245.165,-195.8368 232.0543,-206.3734 217.9142,-214.3284"/>
<polygon fill="none" stroke="#000000" points="209.6707,-112.5746 213.6098,-105.6115 220.5728,-109.5506 216.6338,-116.5136 209.6707,-112.5746"/>
<polyline fill="none" stroke="#000000" points="218.6033,-113.0321 220.3441,-114.0169 "/>
<polygon fill="none" stroke="#000000" points="210.8546,-222.5038 207.1663,-215.4048 214.2653,-211.7165 217.9537,-218.8155 210.8546,-222.5038"/>
<polyline fill="none" stroke="#000000" points="216.1095,-215.266 217.8843,-214.3439 "/>
<text text-anchor="middle" x="277.5" y="-160.3" font-family="Times,serif" font-size="14.00" fill="#000000">conn7</text>
</g>
<!-- conn6 -->
<g id="node9" class="node">
<title>conn6</title>
<polygon fill="none" stroke="#000000" points="66.5,-36 20.5842,-18 66.5,0 112.4158,-18 66.5,-36"/>
<text text-anchor="middle" x="66.5" y="-14.3" font-family="Times,serif" font-size="14.00" fill="#000000">conn6</text>
</g>
<!-- fp_fan&#45;&gt;conn6 -->
<g id="edge8" class="edge">
<title>fp_fan&#45;&gt;conn6</title>
<path fill="none" stroke="#000000" d="M138.0168,-72.9551C123.5026,-61.802 104.9284,-47.5292 90.347,-36.3245"/>
<polygon fill="#000000" stroke="#000000" points="92.3459,-33.4466 82.284,-30.1287 88.0807,-38.9971 92.3459,-33.4466"/>
</g>
<!-- dispatch_periodic_inst -->
<g id="node4" class="node">
<title>dispatch_periodic_inst</title>
<path fill="none" stroke="#000000" d="M431.5,-749.2757C431.5,-749.2757 213.5,-749.2757 213.5,-749.2757 207.5,-749.2757 201.5,-743.2757 201.5,-737.2757 201.5,-737.2757 201.5,-725.2757 201.5,-725.2757 201.5,-719.2757 207.5,-713.2757 213.5,-713.2757 213.5,-713.2757 431.5,-713.2757 431.5,-713.2757 437.5,-713.2757 443.5,-719.2757 443.5,-725.2757 443.5,-725.2757 443.5,-737.2757 443.5,-737.2757 443.5,-743.2757 437.5,-749.2757 431.5,-749.2757"/>
<text text-anchor="middle" x="322.5" y="-727.5757" font-family="Times,serif" font-size="14.00" fill="#000000">dispatch_periodic_inst::dispatch_periodic</text>
</g>
<!-- conn8 -->
<g id="node10" class="node">
<title>conn8</title>
<polygon fill="none" stroke="#000000" points="223.5,-661.7785 177.5842,-643.7785 223.5,-625.7785 269.4158,-643.7785 223.5,-661.7785"/>
<text text-anchor="middle" x="223.5" y="-640.0785" font-family="Times,serif" font-size="14.00" fill="#000000">conn8</text>
</g>
<!-- dispatch_periodic_inst&#45;&gt;conn8 -->
<g id="edge11" class="edge">
<title>dispatch_periodic_inst&#45;&gt;conn8</title>
<path fill="none" stroke="#000000" d="M301.9871,-713.1462C285.5361,-698.6066 262.4897,-678.238 245.6262,-663.3339"/>
<polygon fill="#000000" stroke="#000000" points="247.7112,-660.5056 237.9004,-656.5058 243.0756,-665.7507 247.7112,-660.5056"/>
</g>
<!-- conn9 -->
<g id="node11" class="node">
<title>conn9</title>
<ellipse fill="none" stroke="#000000" cx="439.5" cy="-643.7785" rx="32.4942" ry="32.4942"/>
<text text-anchor="middle" x="439.5" y="-640.0785" font-family="Times,serif" font-size="14.00" fill="#000000">conn9</text>
</g>
<!-- dispatch_periodic_inst&#45;&gt;conn9 -->
<g id="edge13" class="edge">
<title>dispatch_periodic_inst&#45;&gt;conn9</title>
<path fill="none" stroke="#000000" d="M346.7425,-713.1462C363.6511,-700.5013 386.4551,-683.4476 405.2208,-669.4138"/>
<polygon fill="#000000" stroke="#000000" points="407.3421,-672.198 413.2543,-663.4061 403.1498,-666.5921 407.3421,-672.198"/>
</g>
<!-- time_server -->
<g id="node5" class="node">
<title>time_server</title>
<path fill="none" stroke="#000000" d="M561,-574.2814C561,-574.2814 432,-574.2814 432,-574.2814 426,-574.2814 420,-568.2814 420,-562.2814 420,-562.2814 420,-550.2814 420,-550.2814 420,-544.2814 426,-538.2814 432,-538.2814 432,-538.2814 561,-538.2814 561,-538.2814 567,-538.2814 573,-544.2814 573,-550.2814 573,-550.2814 573,-562.2814 573,-562.2814 573,-568.2814 567,-574.2814 561,-574.2814"/>
<text text-anchor="middle" x="496.5" y="-552.5814" font-family="Times,serif" font-size="14.00" fill="#000000">time_server::TimeServer</text>
</g>
<!-- conn10 -->
<g id="node12" class="node">
<title>conn10</title>
<polygon fill="none" stroke="#000000" points="322.5,-414.6407 271.0544,-396.6407 322.5,-378.6407 373.9456,-396.6407 322.5,-414.6407"/>
<text text-anchor="middle" x="322.5" y="-392.9407" font-family="Times,serif" font-size="14.00" fill="#000000">conn10</text>
</g>
<!-- time_server&#45;&gt;conn10 -->
<g id="edge15" class="edge">
<title>time_server&#45;&gt;conn10</title>
<path fill="none" stroke="#000000" d="M442.7958,-538.2363C422.2328,-529.429 399.6262,-517.2312 382.5,-501.2814 358.7382,-479.152 341.7496,-445.4418 332.0463,-422.2976"/>
<polygon fill="#000000" stroke="#000000" points="335.1998,-420.7585 328.2189,-412.7887 328.7061,-423.3724 335.1998,-420.7585"/>
</g>
<!-- time_server.pit_command -->
<g id="node13" class="node">
<title>time_server.pit_command</title>
<ellipse fill="none" stroke="#000000" cx="496.5" cy="-396.6407" rx="104.7816" ry="104.7816"/>
<text text-anchor="middle" x="496.5" y="-392.9407" font-family="Times,serif" font-size="14.00" fill="#000000">time_server.pit_command</text>
</g>
<!-- time_server&#45;&gt;time_server.pit_command -->
<g id="edge17" class="edge">
<title>time_server&#45;&gt;time_server.pit_command</title>
<path fill="none" stroke="#000000" d="M496.5,-538.2789C496.5,-530.8636 496.5,-521.6142 496.5,-511.4163"/>
<polygon fill="#000000" stroke="#000000" points="500.0001,-511.377 496.5,-501.3771 493.0001,-511.3771 500.0001,-511.377"/>
</g>
<!-- time_server.pit_channel0 -->
<g id="node14" class="node">
<title>time_server.pit_channel0</title>
<ellipse fill="none" stroke="#000000" cx="719.5" cy="-396.6407" rx="100.9827" ry="100.9827"/>
<text text-anchor="middle" x="719.5" y="-392.9407" font-family="Times,serif" font-size="14.00" fill="#000000">time_server.pit_channel0</text>
</g>
<!-- time_server&#45;&gt;time_server.pit_channel0 -->
<g id="edge19" class="edge">
<title>time_server&#45;&gt;time_server.pit_channel0</title>
<path fill="none" stroke="#000000" d="M542.1556,-538.2207C563.7597,-528.7012 589.3862,-515.9522 610.5,-501.2814 621.2291,-493.8264 631.9092,-485.3115 642.1531,-476.4313"/>
<polygon fill="#000000" stroke="#000000" points="644.7254,-478.8287 649.8953,-469.5808 640.0868,-473.5862 644.7254,-478.8287"/>
</g>
<!-- time_server.pit -->
<g id="node6" class="node">
<title>time_server.pit</title>
<path fill="none" stroke="#000000" d="M771,-255C771,-255 668,-255 668,-255 662,-255 656,-249 656,-243 656,-243 656,-231 656,-231 656,-225 662,-219 668,-219 668,-219 771,-219 771,-219 777,-219 783,-225 783,-231 783,-231 783,-243 783,-243 783,-249 777,-255 771,-255"/>
<text text-anchor="middle" x="719.5" y="-233.3" font-family="Times,serif" font-size="14.00" fill="#000000">time_server.pit::PIT</text>
</g>
<!-- time_server.pit_irq -->
<g id="node15" class="node">
<title>time_server.pit_irq</title>
<polygon fill="none" stroke="#000000" points="810.5,-182 699.0635,-164 810.5,-146 921.9365,-164 810.5,-182"/>
<text text-anchor="middle" x="810.5" y="-160.3" font-family="Times,serif" font-size="14.00" fill="#000000">time_server.pit_irq</text>
</g>
<!-- time_server.pit&#45;&gt;time_server.pit_irq -->
<g id="edge21" class="edge">
<title>time_server.pit&#45;&gt;time_server.pit_irq</title>
<path fill="none" stroke="#000000" d="M741.9944,-218.9551C754.6343,-208.8153 770.4887,-196.0969 783.7611,-185.4499"/>
<polygon fill="#000000" stroke="#000000" points="786.0293,-188.1174 791.6396,-179.1298 781.6491,-182.6571 786.0293,-188.1174"/>
</g>
<!-- conn2&#45;&gt;tcp_tempControl -->
<g id="edge3" class="edge">
<title>conn2&#45;&gt;tcp_tempControl</title>
<path fill="none" stroke="#000000" d="M75.2144,-381.6221C89.0033,-354.7772 118.0604,-298.2077 135.4662,-264.3216"/>
<polygon fill="#000000" stroke="#000000" points="138.7984,-265.4944 140.2542,-255.0001 132.5718,-262.2961 138.7984,-265.4944"/>
</g>
<!-- conn4&#45;&gt;fp_fan -->
<g id="edge6" class="edge">
<title>conn4&#45;&gt;fp_fan</title>
<path fill="none" stroke="#000000" d="M190.8336,-148.8744C186.3607,-140.0495 180.5833,-128.6509 175.3401,-118.3061"/>
<polygon fill="#000000" stroke="#000000" points="178.3707,-116.5436 170.7278,-109.2062 172.1269,-119.7083 178.3707,-116.5436"/>
</g>
<!-- conn6&#45;&gt;tcp_tempControl -->
<g id="edge9" class="edge">
<title>conn6&#45;&gt;tcp_tempControl</title>
<path fill="none" stroke="#000000" d="M67.9805,-35.4288C71.0704,-66.1403 79.8115,-131.4304 101.5,-182 106.0896,-192.7012 113.5673,-202.8054 121.2689,-211.3627"/>
<polygon fill="#000000" stroke="#000000" points="118.8922,-213.9418 128.3284,-218.7593 123.956,-209.1088 118.8922,-213.9418"/>
</g>
<!-- conn8&#45;&gt;tsp_tempSensor -->
<g id="edge12" class="edge">
<title>conn8&#45;&gt;tsp_tempSensor</title>
<path fill="none" stroke="#000000" d="M212.25,-630.1071C201.7419,-617.3372 185.7808,-597.9408 172.8557,-582.2337"/>
<polygon fill="#000000" stroke="#000000" points="175.4752,-579.9087 166.4184,-574.4109 170.07,-584.3566 175.4752,-579.9087"/>
</g>
<!-- conn9&#45;&gt;time_server -->
<g id="edge14" class="edge">
<title>conn9&#45;&gt;time_server</title>
<path fill="none" stroke="#000000" d="M457.5352,-616.0939C464.466,-605.4548 472.3557,-593.3439 479.2144,-582.8155"/>
<polygon fill="#000000" stroke="#000000" points="482.1637,-584.7002 484.6896,-574.4109 476.2985,-580.8793 482.1637,-584.7002"/>
</g>
<!-- conn10&#45;&gt;dispatch_periodic_inst -->
<g id="edge16" class="edge">
<title>conn10&#45;&gt;dispatch_periodic_inst</title>
<path fill="none" stroke="#000000" d="M322.5,-414.6433C322.5,-469.5727 322.5,-635.3619 322.5,-702.5409"/>
<polygon fill="#000000" stroke="#000000" points="319.0001,-702.8075 322.5,-712.8076 326.0001,-702.8076 319.0001,-702.8075"/>
</g>
<!-- time_server.pit_command&#45;&gt;time_server.pit -->
<g id="edge18" class="edge">
<title>time_server.pit_command&#45;&gt;time_server.pit</title>
<path fill="none" stroke="#000000" d="M570.589,-322.6031C583.0924,-311.7265 596.3079,-301.1287 609.5,-292 627.3799,-279.6273 648.4413,-268.395 667.3237,-259.3536"/>
<polygon fill="#000000" stroke="#000000" points="668.8296,-262.5132 676.3947,-255.0956 665.8551,-256.1765 668.8296,-262.5132"/>
</g>
<!-- time_server.pit_channel0&#45;&gt;time_server.pit -->
<g id="edge20" class="edge">
<title>time_server.pit_channel0&#45;&gt;time_server.pit</title>
<path fill="none" stroke="#000000" d="M719.5,-295.5378C719.5,-284.5399 719.5,-274.1235 719.5,-265.2102"/>
<polygon fill="#000000" stroke="#000000" points="723.0001,-265.1452 719.5,-255.1453 716.0001,-265.1453 723.0001,-265.1452"/>
</g>
<!-- time_server.pit_irq&#45;&gt;time_server -->
<g id="edge22" class="edge">
<title>time_server.pit_irq&#45;&gt;time_server</title>
<path fill="none" stroke="#000000" d="M818.5949,-180.9063C843.1813,-234.989 910.5055,-405.7992 829.5,-501.2814 813.6585,-519.954 676.5257,-537.6915 583.2539,-547.7537"/>
<polygon fill="#000000" stroke="#000000" points="582.8128,-544.2809 573.2409,-548.8228 583.556,-551.2413 582.8128,-544.2809"/>
</g>
</g>
</svg>
