<?xml version="1.0" encoding="UTF-8" standalone="no"?>
<!DOCTYPE svg PUBLIC "-//W3C//DTD SVG 1.1//EN"
 "http://www.w3.org/Graphics/SVG/1.1/DTD/svg11.dtd">
<!-- Generated by graphviz version 2.40.1 (20161225.0304)
 -->
<!-- Title: g Pages: 1 -->
<svg width="1957pt" height="502pt"
 viewBox="0.00 0.00 1957.00 502.38" xmlns="http://www.w3.org/2000/svg" xmlns:xlink="http://www.w3.org/1999/xlink">
<g id="graph0" class="graph" transform="scale(1 1) rotate(0) translate(4 498.3848)">
<title>g</title>
<polygon fill="#ffffff" stroke="transparent" points="-4,4 -4,-498.3848 1953,-498.3848 1953,4 -4,4"/>
<!-- tsp_tempSensor -->
<g id="node1" class="node">
<title>tsp_tempSensor</title>
<polygon fill="none" stroke="#000000" points="535,-154.3848 535,-178.3848 921,-178.3848 921,-154.3848 535,-154.3848"/>
<text text-anchor="start" x="673.5" y="-163.5848" font-family="Times,serif" font-weight="bold" font-size="16.00" fill="#000000">tsp_tempSensor</text>
<polygon fill="none" stroke="#000000" points="535,-130.3848 535,-154.3848 921,-154.3848 921,-130.3848 535,-130.3848"/>
<text text-anchor="start" x="547.5" y="-139.5848" font-family="Times,serif" font-size="16.00" fill="#ff0000">dataport sp_union_art_DataContent_t </text>
<text text-anchor="start" x="794.5" y="-139.5848" font-family="Times,serif" font-weight="bold" font-size="16.00" fill="#ff0000">sb_currentTemp</text>
<polygon fill="none" stroke="#000000" points="535,-106.3848 535,-130.3848 921,-130.3848 921,-106.3848 535,-106.3848"/>
<text text-anchor="start" x="544.5" y="-115.5848" font-family="Times,serif" font-size="16.00" fill="#ff0000">dataport sb_event_counter_t </text>
<text text-anchor="start" x="731.5" y="-115.5848" font-family="Times,serif" font-weight="bold" font-size="16.00" fill="#ff0000">sb_tempChanged_counter</text>
<polygon fill="none" stroke="#000000" points="535,-82.3848 535,-106.3848 921,-106.3848 921,-82.3848 535,-82.3848"/>
<text text-anchor="start" x="603" y="-91.5848" font-family="Times,serif" font-size="16.00" fill="#0000ff">emits ReceiveEvent </text>
<text text-anchor="start" x="733" y="-91.5848" font-family="Times,serif" font-weight="bold" font-size="16.00" fill="#0000ff">sb_tempChanged</text>
<polygon fill="none" stroke="#000000" points="535,-58.3848 535,-82.3848 921,-82.3848 921,-58.3848 535,-58.3848"/>
<text text-anchor="start" x="538" y="-67.5848" font-family="Times,serif" font-size="16.00" fill="#0000ff">consumes Notification </text>
<text text-anchor="start" x="686" y="-67.5848" font-family="Times,serif" font-weight="bold" font-size="16.00" fill="#0000ff">sb_periodic_dispatch_notification</text>
</g>
<!-- tcp_tempControl -->
<g id="node2" class="node">
<title>tcp_tempControl</title>
<polygon fill="none" stroke="#000000" points="973.5,-202.3848 973.5,-226.3848 1434.5,-226.3848 1434.5,-202.3848 973.5,-202.3848"/>
<text text-anchor="start" x="1145" y="-211.5848" font-family="Times,serif" font-weight="bold" font-size="16.00" fill="#000000">tcp_tempControl</text>
<polygon fill="none" stroke="#000000" points="973.5,-178.3848 973.5,-202.3848 1434.5,-202.3848 1434.5,-178.3848 973.5,-178.3848"/>
<text text-anchor="start" x="1023.5" y="-187.5848" font-family="Times,serif" font-size="16.00" fill="#ff0000">dataport sp_union_art_DataContent_t </text>
<text text-anchor="start" x="1270.5" y="-187.5848" font-family="Times,serif" font-weight="bold" font-size="16.00" fill="#ff0000">sb_currentTemp</text>
<polygon fill="none" stroke="#000000" points="973.5,-154.3848 973.5,-178.3848 1434.5,-178.3848 1434.5,-154.3848 973.5,-154.3848"/>
<text text-anchor="start" x="988" y="-163.5848" font-family="Times,serif" font-size="16.00" fill="#ff0000">dataport sb_queue_union_art_DataContent_1_t </text>
<text text-anchor="start" x="1298" y="-163.5848" font-family="Times,serif" font-weight="bold" font-size="16.00" fill="#ff0000">sb_fanAck_queue</text>
<polygon fill="none" stroke="#000000" points="973.5,-130.3848 973.5,-154.3848 1434.5,-154.3848 1434.5,-130.3848 973.5,-130.3848"/>
<text text-anchor="start" x="976.5" y="-139.5848" font-family="Times,serif" font-size="16.00" fill="#ff0000">dataport sb_queue_union_art_DataContent_1_t </text>
<text text-anchor="start" x="1286.5" y="-139.5848" font-family="Times,serif" font-weight="bold" font-size="16.00" fill="#ff0000">sb_fanCmd_queue_1</text>
<polygon fill="none" stroke="#000000" points="973.5,-106.3848 973.5,-130.3848 1434.5,-130.3848 1434.5,-106.3848 973.5,-106.3848"/>
<text text-anchor="start" x="1020.5" y="-115.5848" font-family="Times,serif" font-size="16.00" fill="#ff0000">dataport sb_event_counter_t </text>
<text text-anchor="start" x="1207.5" y="-115.5848" font-family="Times,serif" font-weight="bold" font-size="16.00" fill="#ff0000">sb_tempChanged_counter</text>
<polygon fill="none" stroke="#000000" points="973.5,-82.3848 973.5,-106.3848 1434.5,-106.3848 1434.5,-82.3848 973.5,-82.3848"/>
<text text-anchor="start" x="1047" y="-91.5848" font-family="Times,serif" font-size="16.00" fill="#0000ff">emits ReceiveEvent </text>
<text text-anchor="start" x="1177" y="-91.5848" font-family="Times,serif" font-weight="bold" font-size="16.00" fill="#0000ff">sb_fanCmd_1_notification</text>
<polygon fill="none" stroke="#000000" points="973.5,-58.3848 973.5,-82.3848 1434.5,-82.3848 1434.5,-58.3848 973.5,-58.3848"/>
<text text-anchor="start" x="1044.5" y="-67.5848" font-family="Times,serif" font-size="16.00" fill="#0000ff">consumes ReceiveEvent </text>
<text text-anchor="start" x="1203.5" y="-67.5848" font-family="Times,serif" font-weight="bold" font-size="16.00" fill="#0000ff">sb_fanAck_notification</text>
<polygon fill="none" stroke="#000000" points="973.5,-34.3848 973.5,-58.3848 1434.5,-58.3848 1434.5,-34.3848 973.5,-34.3848"/>
<text text-anchor="start" x="1064.5" y="-43.5848" font-family="Times,serif" font-size="16.00" fill="#0000ff">consumes ReceiveEvent </text>
<text text-anchor="start" x="1223.5" y="-43.5848" font-family="Times,serif" font-weight="bold" font-size="16.00" fill="#0000ff">sb_tempChanged</text>
</g>
<!-- tsp_tempSensor&#45;&gt;tcp_tempControl -->
<g id="conn1" class="edge">
<title>tsp_tempSensor:sb_currentTemp&#45;&gt;tcp_tempControl:sb_currentTemp</title>
<path fill="none" stroke="#ff0000" d="M921,-142.3848C948.6638,-142.3848 943.9055,-179.1348 963.4637,-188.3223"/>
<polygon fill="#ff0000" stroke="#ff0000" points="963.0001,-191.8001 973.5,-190.3848 964.4093,-184.9434 963.0001,-191.8001"/>
</g>
<!-- tsp_tempSensor&#45;&gt;tcp_tempControl -->
<g id="conn2" class="edge">
<title>tsp_tempSensor:sb_tempChanged&#45;&gt;tcp_tempControl:sb_tempChanged</title>
<path fill="none" stroke="#0000ff" d="M921,-94.3848C948.6638,-94.3848 943.9055,-57.6348 963.4637,-48.4473"/>
<polygon fill="#0000ff" stroke="#0000ff" points="964.4093,-51.8262 973.5,-46.3848 963.0001,-44.9695 964.4093,-51.8262"/>
</g>
<!-- tsp_tempSensor&#45;&gt;tcp_tempControl -->
<g id="conn3" class="edge">
<title>tsp_tempSensor:sb_tempChanged_counter&#45;&gt;tcp_tempControl:sb_tempChanged_counter</title>
<path fill="none" stroke="#ff0000" d="M921,-118.3848C940.5052,-118.3848 947.7816,-118.3848 963.2742,-118.3848"/>
<polygon fill="#ff0000" stroke="#ff0000" points="963.5,-121.8849 973.5,-118.3848 963.5,-114.8849 963.5,-121.8849"/>
</g>
<!-- fp_fan -->
<g id="node3" class="node">
<title>fp_fan</title>
<polygon fill="none" stroke="#000000" points="1486.5,-166.3848 1486.5,-190.3848 1941.5,-190.3848 1941.5,-166.3848 1486.5,-166.3848"/>
<text text-anchor="start" x="1691" y="-175.5848" font-family="Times,serif" font-weight="bold" font-size="16.00" fill="#000000">fp_fan</text>
<polygon fill="none" stroke="#000000" points="1486.5,-142.3848 1486.5,-166.3848 1941.5,-166.3848 1941.5,-142.3848 1486.5,-142.3848"/>
<text text-anchor="start" x="1494.5" y="-151.5848" font-family="Times,serif" font-size="16.00" fill="#ff0000">dataport sb_queue_union_art_DataContent_1_t </text>
<text text-anchor="start" x="1804.5" y="-151.5848" font-family="Times,serif" font-weight="bold" font-size="16.00" fill="#ff0000">sb_fanCmd_queue</text>
<polygon fill="none" stroke="#000000" points="1486.5,-118.3848 1486.5,-142.3848 1941.5,-142.3848 1941.5,-118.3848 1486.5,-118.3848"/>
<text text-anchor="start" x="1489.5" y="-127.5848" font-family="Times,serif" font-size="16.00" fill="#ff0000">dataport sb_queue_union_art_DataContent_1_t </text>
<text text-anchor="start" x="1799.5" y="-127.5848" font-family="Times,serif" font-weight="bold" font-size="16.00" fill="#ff0000">sb_fanAck_queue_1</text>
<polygon fill="none" stroke="#000000" points="1486.5,-94.3848 1486.5,-118.3848 1941.5,-118.3848 1941.5,-94.3848 1486.5,-94.3848"/>
<text text-anchor="start" x="1560.5" y="-103.5848" font-family="Times,serif" font-size="16.00" fill="#0000ff">emits ReceiveEvent </text>
<text text-anchor="start" x="1690.5" y="-103.5848" font-family="Times,serif" font-weight="bold" font-size="16.00" fill="#0000ff">sb_fanAck_1_notification</text>
<polygon fill="none" stroke="#000000" points="1486.5,-70.3848 1486.5,-94.3848 1941.5,-94.3848 1941.5,-70.3848 1486.5,-70.3848"/>
<text text-anchor="start" x="1551" y="-79.5848" font-family="Times,serif" font-size="16.00" fill="#0000ff">consumes ReceiveEvent </text>
<text text-anchor="start" x="1710" y="-79.5848" font-family="Times,serif" font-weight="bold" font-size="16.00" fill="#0000ff">sb_fanCmd_notification</text>
</g>
<!-- tcp_tempControl&#45;&gt;fp_fan -->
<g id="conn4" class="edge">
<title>tcp_tempControl:sb_fanCmd_1_notification&#45;&gt;fp_fan:sb_fanCmd_notification</title>
<path fill="none" stroke="#0000ff" d="M1434.5,-94.3848C1454.3272,-94.3848 1460.7687,-85.9993 1476.2037,-83.2478"/>
<polygon fill="#0000ff" stroke="#0000ff" points="1476.8273,-86.7079 1486.5,-82.3848 1476.2426,-79.7323 1476.8273,-86.7079"/>
</g>
<!-- tcp_tempControl&#45;&gt;fp_fan -->
<g id="conn5" class="edge">
<title>tcp_tempControl:sb_fanCmd_queue_1&#45;&gt;fp_fan:sb_fanCmd_queue</title>
<path fill="none" stroke="#ff0000" d="M1434.5,-142.3848C1454.3272,-142.3848 1460.7687,-150.7703 1476.2037,-153.5218"/>
<polygon fill="#ff0000" stroke="#ff0000" points="1476.2426,-157.0372 1486.5,-154.3848 1476.8273,-150.0617 1476.2426,-157.0372"/>
</g>
<!-- fp_fan&#45;&gt;tcp_tempControl -->
<g id="conn6" class="edge">
<title>fp_fan:sb_fanAck_1_notification&#45;&gt;tcp_tempControl:sb_fanAck_notification</title>
<path fill="none" stroke="#0000ff" d="M1486.5,-106.3848C1462.3437,-106.3848 1462.062,-79.7979 1444.6205,-72.3203"/>
<polygon fill="#0000ff" stroke="#0000ff" points="1444.9795,-68.8256 1434.5,-70.3848 1443.6645,-75.701 1444.9795,-68.8256"/>
</g>
<!-- fp_fan&#45;&gt;tcp_tempControl -->
<g id="conn7" class="edge">
<title>fp_fan:sb_fanAck_queue_1&#45;&gt;tcp_tempControl:sb_fanAck_queue</title>
<path fill="none" stroke="#ff0000" d="M1486.5,-130.3848C1462.3437,-130.3848 1462.062,-156.9717 1444.6205,-164.4493"/>
<polygon fill="#ff0000" stroke="#ff0000" points="1443.6645,-161.0686 1434.5,-166.3848 1444.9795,-167.944 1443.6645,-161.0686"/>
</g>
<!-- dispatch_periodic_inst -->
<g id="node4" class="node">
<title>dispatch_periodic_inst</title>
<polygon fill="none" stroke="#000000" points="8.5,-78.3848 8.5,-102.3848 483.5,-102.3848 483.5,-78.3848 8.5,-78.3848"/>
<text text-anchor="start" x="168.5" y="-87.5848" font-family="Times,serif" font-weight="bold" font-size="16.00" fill="#000000">dispatch_periodic_inst</text>
<polygon fill="none" stroke="#000000" points="8.5,-54.3848 8.5,-78.3848 483.5,-78.3848 483.5,-54.3848 8.5,-54.3848"/>
<text text-anchor="start" x="11.5" y="-63.5848" font-family="Times,serif" font-size="16.00" fill="#0000ff">emits Notification </text>
<text text-anchor="start" x="131.5" y="-63.5848" font-family="Times,serif" font-weight="bold" font-size="16.00" fill="#0000ff">sb_tsp_tempSensor_periodic_dispatch_notification</text>
<polygon fill="none" stroke="#000000" points="8.5,-30.3848 8.5,-54.3848 483.5,-54.3848 483.5,-30.3848 8.5,-30.3848"/>
<text text-anchor="start" x="190.5" y="-39.5848" font-family="Times,serif" font-size="16.00" fill="#ffa500">uses Timer </text>
<text text-anchor="start" x="264.5" y="-39.5848" font-family="Times,serif" font-weight="bold" font-size="16.00" fill="#ffa500">timer</text>
<polygon fill="none" stroke="#000000" points="8.5,-6.3848 8.5,-30.3848 483.5,-30.3848 483.5,-6.3848 8.5,-6.3848"/>
<text text-anchor="start" x="119" y="-15.5848" font-family="Times,serif" font-size="16.00" fill="#0000ff">consumes Notification </text>
<text text-anchor="start" x="267" y="-15.5848" font-family="Times,serif" font-weight="bold" font-size="16.00" fill="#0000ff">timer_complete</text>
</g>
<!-- dispatch_periodic_inst&#45;&gt;tsp_tempSensor -->
<g id="conn8" class="edge">
<title>dispatch_periodic_inst:sb_tsp_tempSensor_periodic_dispatch_notification&#45;&gt;tsp_tempSensor:sb_periodic_dispatch_notification</title>
<path fill="none" stroke="#0000ff" d="M483.5,-66.3848C502.6913,-66.3848 509.7422,-69.1799 524.9499,-70.0971"/>
<polygon fill="#0000ff" stroke="#0000ff" points="524.9039,-73.5971 535,-70.3848 525.1043,-66.6 524.9039,-73.5971"/>
</g>
<!-- time_server -->
<g id="node7" class="node">
<title>time_server</title>
<ellipse fill="none" stroke="#000000" cx="728" cy="-18.3848" rx="65.1077" ry="18.2703"/>
<text text-anchor="middle" x="728" y="-14.5848" font-family="Times,serif" font-size="16.00" fill="#000000">time_server</text>
</g>
<!-- dispatch_periodic_inst&#45;&gt;time_server -->
<g id="conn9" class="edge">
<title>dispatch_periodic_inst:timer&#45;&gt;time_server:the_timer</title>
<path fill="none" stroke="#00ff00" d="M483.5,-42.3848C543.6276,-42.3848 611.6764,-35.107 660.6893,-28.5667"/>
<polygon fill="#00ff00" stroke="#00ff00" points="661.4123,-32.0007 670.8495,-27.1852 660.4691,-25.0646 661.4123,-32.0007"/>
</g>
<!-- connectiontypekey -->
<g id="node5" class="node">
<title>connectiontypekey</title>
<polygon fill="none" stroke="#000000" points="127.5,-296.3848 127.5,-320.3848 363.5,-320.3848 363.5,-296.3848 127.5,-296.3848"/>
<text text-anchor="start" x="165.5" y="-305.5848" font-family="Times,serif" font-weight="bold" font-size="16.00" fill="#000000">Key: Connection Types</text>
<polygon fill="none" stroke="#000000" points="127.5,-272.3848 127.5,-296.3848 313.5,-296.3848 313.5,-272.3848 127.5,-272.3848"/>
<text text-anchor="start" x="168" y="-280.5848" font-family="Times,serif" font-size="16.00" fill="#ff0000">seL4SharedData</text>
<polygon fill="#ff0000" stroke="transparent" points="313.5,-272.3848 313.5,-296.3848 363.5,-296.3848 363.5,-272.3848 313.5,-272.3848"/>
<polygon fill="none" stroke="#000000" points="313.5,-272.3848 313.5,-296.3848 363.5,-296.3848 363.5,-272.3848 313.5,-272.3848"/>
<text text-anchor="start" x="328" y="-280.5848" font-family="Times,serif" font-size="16.00" fill="#000000">red</text>
<polygon fill="none" stroke="#000000" points="127.5,-248.3848 127.5,-272.3848 313.5,-272.3848 313.5,-248.3848 127.5,-248.3848"/>
<text text-anchor="start" x="166" y="-256.5848" font-family="Times,serif" font-size="16.00" fill="#0000ff">seL4Notification</text>
<polygon fill="#0000ff" stroke="transparent" points="313.5,-248.3848 313.5,-272.3848 363.5,-272.3848 363.5,-248.3848 313.5,-248.3848"/>
<polygon fill="none" stroke="#000000" points="313.5,-248.3848 313.5,-272.3848 363.5,-272.3848 363.5,-248.3848 313.5,-248.3848"/>
<text text-anchor="start" x="324.5" y="-256.5848" font-family="Times,serif" font-size="16.00" fill="#000000">blue</text>
<polygon fill="none" stroke="#000000" points="127.5,-224.3848 127.5,-248.3848 313.5,-248.3848 313.5,-224.3848 127.5,-224.3848"/>
<text text-anchor="start" x="176.5" y="-232.5848" font-family="Times,serif" font-size="16.00" fill="#ffa500">seL4RPCCall</text>
<polygon fill="#ffa500" stroke="transparent" points="313.5,-224.3848 313.5,-248.3848 363.5,-248.3848 363.5,-224.3848 313.5,-224.3848"/>
<polygon fill="none" stroke="#000000" points="313.5,-224.3848 313.5,-248.3848 363.5,-248.3848 363.5,-224.3848 313.5,-224.3848"/>
<text text-anchor="start" x="316.5" y="-232.5848" font-family="Times,serif" font-size="16.00" fill="#000000">orange</text>
<polygon fill="none" stroke="#000000" points="127.5,-200.3848 127.5,-224.3848 313.5,-224.3848 313.5,-200.3848 127.5,-200.3848"/>
<text text-anchor="start" x="167.5" y="-208.5848" font-family="Times,serif" font-size="16.00" fill="#00ff00">seL4TimeServer</text>
<polygon fill="#00ff00" stroke="transparent" points="313.5,-200.3848 313.5,-224.3848 363.5,-224.3848 363.5,-200.3848 313.5,-200.3848"/>
<polygon fill="none" stroke="#000000" points="313.5,-200.3848 313.5,-224.3848 363.5,-224.3848 363.5,-200.3848 313.5,-200.3848"/>
<text text-anchor="start" x="320.5" y="-208.5848" font-family="Times,serif" font-size="16.00" fill="#000000">green</text>
<polygon fill="none" stroke="#000000" points="127.5,-176.3848 127.5,-200.3848 313.5,-200.3848 313.5,-176.3848 127.5,-176.3848"/>
<text text-anchor="start" x="130.5" y="-184.5848" font-family="Times,serif" font-size="16.00" fill="#a52a2a">seL4GlobalAsynchCallback</text>
<polygon fill="#a52a2a" stroke="transparent" points="313.5,-176.3848 313.5,-200.3848 363.5,-200.3848 363.5,-176.3848 313.5,-176.3848"/>
<polygon fill="none" stroke="#000000" points="313.5,-176.3848 313.5,-200.3848 363.5,-200.3848 363.5,-176.3848 313.5,-176.3848"/>
<text text-anchor="start" x="317.5" y="-184.5848" font-family="Times,serif" font-size="16.00" fill="#000000">brown</text>
<polygon fill="none" stroke="#000000" points="127.5,-152.3848 127.5,-176.3848 313.5,-176.3848 313.5,-152.3848 127.5,-152.3848"/>
<text text-anchor="start" x="137" y="-160.5848" font-family="Times,serif" font-size="16.00" fill="#ffff00">seL4VMDTBPassthrough</text>
<polygon fill="#ffff00" stroke="transparent" points="313.5,-152.3848 313.5,-176.3848 363.5,-176.3848 363.5,-152.3848 313.5,-152.3848"/>
<polygon fill="none" stroke="#000000" points="313.5,-152.3848 313.5,-176.3848 363.5,-176.3848 363.5,-152.3848 313.5,-152.3848"/>
<text text-anchor="start" x="316.5" y="-160.5848" font-family="Times,serif" font-size="16.00" fill="#000000">yellow</text>
<polygon fill="none" stroke="#000000" points="127.5,-128.3848 127.5,-152.3848 313.5,-152.3848 313.5,-128.3848 127.5,-128.3848"/>
<text text-anchor="start" x="136" y="-136.5848" font-family="Times,serif" font-size="16.00" fill="#ffc0cb">seL4SharedDataWithCaps</text>
<polygon fill="#ffc0cb" stroke="transparent" points="313.5,-128.3848 313.5,-152.3848 363.5,-152.3848 363.5,-128.3848 313.5,-128.3848"/>
<polygon fill="none" stroke="#000000" points="313.5,-128.3848 313.5,-152.3848 363.5,-152.3848 363.5,-128.3848 313.5,-128.3848"/>
<text text-anchor="start" x="323.5" y="-136.5848" font-family="Times,serif" font-size="16.00" fill="#000000">pink</text>
</g>
<!-- interfacetypekey -->
<g id="node6" class="node">
<title>interfacetypekey</title>
<polygon fill="none" stroke="#000000" points="171.5,-466.3848 171.5,-490.3848 319.5,-490.3848 319.5,-466.3848 171.5,-466.3848"/>
<text text-anchor="start" x="174.5" y="-475.5848" font-family="Times,serif" font-weight="bold" font-size="16.00" fill="#000000">Key: Interface Types</text>
<polygon fill="none" stroke="#000000" points="171.5,-442.3848 171.5,-466.3848 255.5,-466.3848 255.5,-442.3848 171.5,-442.3848"/>
<text text-anchor="start" x="187" y="-450.5848" font-family="Times,serif" font-size="16.00" fill="#ff0000">dataport</text>
<polygon fill="#ff0000" stroke="transparent" points="255.5,-442.3848 255.5,-466.3848 319.5,-466.3848 319.5,-442.3848 255.5,-442.3848"/>
<polygon fill="none" stroke="#000000" points="255.5,-442.3848 255.5,-466.3848 319.5,-466.3848 319.5,-442.3848 255.5,-442.3848"/>
<text text-anchor="start" x="277" y="-450.5848" font-family="Times,serif" font-size="16.00" fill="#000000">red</text>
<polygon fill="none" stroke="#000000" points="171.5,-418.3848 171.5,-442.3848 255.5,-442.3848 255.5,-418.3848 171.5,-418.3848"/>
<text text-anchor="start" x="196" y="-426.5848" font-family="Times,serif" font-size="16.00" fill="#0000ff">emits</text>
<polygon fill="#0000ff" stroke="transparent" points="255.5,-418.3848 255.5,-442.3848 319.5,-442.3848 319.5,-418.3848 255.5,-418.3848"/>
<polygon fill="none" stroke="#000000" points="255.5,-418.3848 255.5,-442.3848 319.5,-442.3848 319.5,-418.3848 255.5,-418.3848"/>
<text text-anchor="start" x="273.5" y="-426.5848" font-family="Times,serif" font-size="16.00" fill="#000000">blue</text>
<polygon fill="none" stroke="#000000" points="171.5,-394.3848 171.5,-418.3848 255.5,-418.3848 255.5,-394.3848 171.5,-394.3848"/>
<text text-anchor="start" x="181.5" y="-402.5848" font-family="Times,serif" font-size="16.00" fill="#0000ff">consumes</text>
<polygon fill="#0000ff" stroke="transparent" points="255.5,-394.3848 255.5,-418.3848 319.5,-418.3848 319.5,-394.3848 255.5,-394.3848"/>
<polygon fill="none" stroke="#000000" points="255.5,-394.3848 255.5,-418.3848 319.5,-418.3848 319.5,-394.3848 255.5,-394.3848"/>
<text text-anchor="start" x="273.5" y="-402.5848" font-family="Times,serif" font-size="16.00" fill="#000000">blue</text>
<polygon fill="none" stroke="#000000" points="171.5,-370.3848 171.5,-394.3848 255.5,-394.3848 255.5,-370.3848 171.5,-370.3848"/>
<text text-anchor="start" x="185.5" y="-378.5848" font-family="Times,serif" font-size="16.00" fill="#ffa500">provides</text>
<polygon fill="#ffa500" stroke="transparent" points="255.5,-370.3848 255.5,-394.3848 319.5,-394.3848 319.5,-370.3848 255.5,-370.3848"/>
<polygon fill="none" stroke="#000000" points="255.5,-370.3848 255.5,-394.3848 319.5,-394.3848 319.5,-370.3848 255.5,-370.3848"/>
<text text-anchor="start" x="265.5" y="-378.5848" font-family="Times,serif" font-size="16.00" fill="#000000">orange</text>
<polygon fill="none" stroke="#000000" points="171.5,-346.3848 171.5,-370.3848 255.5,-370.3848 255.5,-346.3848 171.5,-346.3848"/>
<text text-anchor="start" x="199.5" y="-354.5848" font-family="Times,serif" font-size="16.00" fill="#ffa500">uses</text>
<polygon fill="#ffa500" stroke="transparent" points="255.5,-346.3848 255.5,-370.3848 319.5,-370.3848 319.5,-346.3848 255.5,-346.3848"/>
<polygon fill="none" stroke="#000000" points="255.5,-346.3848 255.5,-370.3848 319.5,-370.3848 319.5,-346.3848 255.5,-346.3848"/>
<text text-anchor="start" x="265.5" y="-354.5848" font-family="Times,serif" font-size="16.00" fill="#000000">orange</text>
</g>
<!-- time_server&#45;&gt;dispatch_periodic_inst -->
<g id="conn10" class="edge">
<title>time_server:timer_notification&#45;&gt;dispatch_periodic_inst:timer_complete</title>
<path fill="none" stroke="#a52a2a" d="M662.8795,-18.3848C616.3136,-18.3848 551.8278,-18.3848 493.5477,-18.3848"/>
<polygon fill="#a52a2a" stroke="#a52a2a" points="493.5,-14.8849 483.5,-18.3848 493.5,-21.8849 493.5,-14.8849"/>
</g>
</g>
</svg>
