<?xml version="1.0" encoding="UTF-8" standalone="no"?>
<!DOCTYPE svg PUBLIC "-//W3C//DTD SVG 1.1//EN"
 "http://www.w3.org/Graphics/SVG/1.1/DTD/svg11.dtd">
<!-- Generated by graphviz version 2.40.1 (20161225.0304)
 -->
<!-- Title: %3 Pages: 1 -->
<svg width="2729pt" height="552pt"
 viewBox="0.00 0.00 2728.50 552.00" xmlns="http://www.w3.org/2000/svg" xmlns:xlink="http://www.w3.org/1999/xlink">
<g id="graph0" class="graph" transform="scale(1 1) rotate(0) translate(4 548)">
<title>%3</title>
<polygon fill="#ffffff" stroke="transparent" points="-4,4 -4,-548 2724.5,-548 2724.5,4 -4,4"/>
<!-- thermostat_regulate_temperature_manage_regulator_interface_mrit -->
<g id="node1" class="node">
<title>thermostat_regulate_temperature_manage_regulator_interface_mrit</title>
<path fill="none" stroke="#000000" d="M1935,-457C1935,-457 999,-457 999,-457 993,-457 987,-451 987,-445 987,-445 987,-433 987,-433 987,-427 993,-421 999,-421 999,-421 1935,-421 1935,-421 1941,-421 1947,-427 1947,-433 1947,-433 1947,-445 1947,-445 1947,-451 1941,-457 1935,-457"/>
<text text-anchor="middle" x="1467" y="-435.3" font-family="Times,serif" font-size="14.00" fill="#000000">thermostat_regulate_temperature_manage_regulator_interface_mrit::Manage_Regulator_Interface_impl_thermostat_regulate_temperature_manage_regulator_interface_mrit</text>
</g>
<!-- thermostat_regulate_temperature_manage_heat_source_mhst -->
<g id="node2" class="node">
<title>thermostat_regulate_temperature_manage_heat_source_mhst</title>
<path fill="none" stroke="#000000" d="M2708.5,-283C2708.5,-283 1879.5,-283 1879.5,-283 1873.5,-283 1867.5,-277 1867.5,-271 1867.5,-271 1867.5,-259 1867.5,-259 1867.5,-253 1873.5,-247 1879.5,-247 1879.5,-247 2708.5,-247 2708.5,-247 2714.5,-247 2720.5,-253 2720.5,-259 2720.5,-259 2720.5,-271 2720.5,-271 2720.5,-277 2714.5,-283 2708.5,-283"/>
<text text-anchor="middle" x="2294" y="-261.3" font-family="Times,serif" font-size="14.00" fill="#000000">thermostat_regulate_temperature_manage_heat_source_mhst::Manage_Heat_Source_impl_thermostat_regulate_temperature_manage_heat_source_mhst</text>
</g>
<!-- thermostat_regulate_temperature_manage_regulator_interface_mrit&#45;&gt;thermostat_regulate_temperature_manage_heat_source_mhst -->
<g id="edge16" class="edge">
<title>thermostat_regulate_temperature_manage_regulator_interface_mrit&#45;&gt;thermostat_regulate_temperature_manage_heat_source_mhst</title>
<path fill="none" stroke="#000000" d="M1340.5601,-418.6902C1272.2249,-402.5232 1209.0664,-375.5865 1248,-334 1269.7504,-310.7675 1580.0947,-292.3213 1857.1222,-280.3682"/>
<polygon fill="none" stroke="#000000" points="1351.5587,-417.0982 1349.7781,-424.8975 1341.9788,-423.117 1343.7593,-415.3176 1351.5587,-417.0982"/>
<polyline fill="none" stroke="#000000" points="1342.869,-419.2173 1340.9192,-418.7721 "/>
<polygon fill="none" stroke="#000000" points="1867.2051,-275.9317 1867.5483,-283.9244 1859.5557,-284.2675 1859.2125,-276.2749 1867.2051,-275.9317"/>
<polyline fill="none" stroke="#000000" points="1859.3841,-280.2712 1857.3859,-280.357 "/>
<text text-anchor="middle" x="1268" y="-348.3" font-family="Times,serif" font-size="14.00" fill="#000000">conn10</text>
</g>
<!-- thermostat_regulate_temperature_manage_regulator_interface_mrit&#45;&gt;thermostat_regulate_temperature_manage_heat_source_mhst -->
<g id="edge17" class="edge">
<title>thermostat_regulate_temperature_manage_regulator_interface_mrit&#45;&gt;thermostat_regulate_temperature_manage_heat_source_mhst</title>
<path fill="none" stroke="#000000" d="M1856.1394,-420.419C2085.4038,-407.5145 2334.2038,-389.2377 2352,-370 2373.9486,-346.2735 2347.9659,-312.7228 2324.1024,-289.9808"/>
<polygon fill="none" stroke="#000000" points="1846.1521,-424.9846 1845.7046,-416.9972 1853.6921,-416.5497 1854.1396,-424.5372 1846.1521,-424.9846"/>
<polyline fill="none" stroke="#000000" points="1853.9158,-420.5434 1855.9127,-420.4316 "/>
<polygon fill="none" stroke="#000000" points="2313.7891,-285.9512 2319.1958,-280.0547 2325.0923,-285.4614 2319.6856,-291.3578 2313.7891,-285.9512"/>
<polyline fill="none" stroke="#000000" points="2322.3889,-288.4096 2323.863,-289.7613 "/>
<text text-anchor="middle" x="2380" y="-348.3" font-family="Times,serif" font-size="14.00" fill="#000000">conn11</text>
</g>
<!-- thermostat_regulate_temperature_manage_regulator_mode_mrmt -->
<g id="node3" class="node">
<title>thermostat_regulate_temperature_manage_regulator_mode_mrmt</title>
<path fill="none" stroke="#000000" d="M2331,-370C2331,-370 1429,-370 1429,-370 1423,-370 1417,-364 1417,-358 1417,-358 1417,-346 1417,-346 1417,-340 1423,-334 1429,-334 1429,-334 2331,-334 2331,-334 2337,-334 2343,-340 2343,-346 2343,-346 2343,-358 2343,-358 2343,-364 2337,-370 2331,-370"/>
<text text-anchor="middle" x="1880" y="-348.3" font-family="Times,serif" font-size="14.00" fill="#000000">thermostat_regulate_temperature_manage_regulator_mode_mrmt::Manage_Regulator_Mode_impl_thermostat_regulate_temperature_manage_regulator_mode_mrmt</text>
</g>
<!-- thermostat_regulate_temperature_manage_regulator_interface_mrit&#45;&gt;thermostat_regulate_temperature_manage_regulator_mode_mrmt -->
<g id="edge18" class="edge">
<title>thermostat_regulate_temperature_manage_regulator_interface_mrit&#45;&gt;thermostat_regulate_temperature_manage_regulator_mode_mrmt</title>
<path fill="none" stroke="#000000" d="M1561.9379,-418.8587C1606.3058,-409.4589 1659.852,-398.1332 1708,-388 1732.4023,-382.8643 1758.7565,-377.3381 1783.3284,-372.1943"/>
<polygon fill="none" stroke="#000000" points="1552.8642,-424.8701 1551.2058,-417.0439 1559.032,-415.3855 1560.6904,-423.2118 1552.8642,-424.8701"/>
<polyline fill="none" stroke="#000000" points="1559.8612,-419.2987 1561.8178,-418.8841 "/>
<polygon fill="none" stroke="#000000" points="1792.5542,-366.1768 1794.193,-374.0072 1786.3627,-375.646 1784.7238,-367.8157 1792.5542,-366.1768"/>
<polyline fill="none" stroke="#000000" points="1785.5432,-371.7308 1783.5857,-372.1406 "/>
<text text-anchor="middle" x="1728" y="-391.8" font-family="Times,serif" font-size="14.00" fill="#000000">conn12</text>
</g>
<!-- operator_interface_oip_oit -->
<g id="node7" class="node">
<title>operator_interface_oip_oit</title>
<path fill="none" stroke="#000000" d="M1120.5,-370C1120.5,-370 653.5,-370 653.5,-370 647.5,-370 641.5,-364 641.5,-358 641.5,-358 641.5,-346 641.5,-346 641.5,-340 647.5,-334 653.5,-334 653.5,-334 1120.5,-334 1120.5,-334 1126.5,-334 1132.5,-340 1132.5,-346 1132.5,-346 1132.5,-358 1132.5,-358 1132.5,-364 1126.5,-370 1120.5,-370"/>
<text text-anchor="middle" x="887" y="-348.3" font-family="Times,serif" font-size="14.00" fill="#000000">operator_interface_oip_oit::operator_interface_thread_impl_operator_interface_oip_oit</text>
</g>
<!-- thermostat_regulate_temperature_manage_regulator_interface_mrit&#45;&gt;operator_interface_oip_oit -->
<g id="edge1" class="edge">
<title>thermostat_regulate_temperature_manage_regulator_interface_mrit&#45;&gt;operator_interface_oip_oit</title>
<path fill="none" stroke="#000000" d="M1309.3389,-419.6235C1270.5973,-414.5348 1229.2614,-408.8293 1191,-403 1152.6434,-397.1562 1143.2519,-394.4942 1105,-388 1073.434,-382.6409 1039.2775,-376.9495 1007.5754,-371.7121"/>
<polygon fill="none" stroke="#000000" points="1320.1772,-417.0063 1319.1402,-424.9388 1311.2077,-423.9018 1312.2447,-415.9692 1320.1772,-417.0063"/>
<polyline fill="none" stroke="#000000" points="1311.7262,-419.9355 1309.7431,-419.6762 "/>
<polygon fill="none" stroke="#000000" points="996.7237,-373.9752 998.0265,-366.082 1005.9197,-367.3848 1004.6169,-375.278 996.7237,-373.9752"/>
<polyline fill="none" stroke="#000000" points="1005.2683,-371.3314 1007.2416,-371.6571 "/>
<text text-anchor="middle" x="1208" y="-391.8" font-family="Times,serif" font-size="14.00" fill="#000000">conn1</text>
</g>
<!-- thermostat_regulate_temperature_manage_regulator_interface_mrit&#45;&gt;operator_interface_oip_oit -->
<g id="edge2" class="edge">
<title>thermostat_regulate_temperature_manage_regulator_interface_mrit&#45;&gt;operator_interface_oip_oit</title>
<path fill="none" stroke="#000000" d="M1029.8459,-420.2969C956.8213,-415.2965 902.0899,-409.4611 895,-403 888.6893,-397.249 885.9675,-388.7157 885.0375,-380.2672"/>
<polygon fill="none" stroke="#000000" points="1040.5364,-417.0059 1040.0002,-424.9879 1032.0182,-424.4517 1032.5544,-416.4697 1040.5364,-417.0059"/>
<polyline fill="none" stroke="#000000" points="1032.2863,-420.4607 1030.2908,-420.3267 "/>
<polygon fill="none" stroke="#000000" points="880.6736,-370.3423 888.6683,-370.0512 888.9594,-378.046 880.9647,-378.337 880.6736,-370.3423"/>
<polyline fill="none" stroke="#000000" points="884.9621,-378.1915 885.0348,-380.1902 "/>
<text text-anchor="middle" x="912" y="-391.8" font-family="Times,serif" font-size="14.00" fill="#000000">conn2</text>
</g>
<!-- conn18 -->
<g id="node10" class="node">
<title>conn18</title>
<polygon fill="none" stroke="#000000" points="1348,-370 1296.5544,-352 1348,-334 1399.4456,-352 1348,-370"/>
<text text-anchor="middle" x="1348" y="-348.3" font-family="Times,serif" font-size="14.00" fill="#000000">conn18</text>
</g>
<!-- thermostat_regulate_temperature_manage_regulator_interface_mrit&#45;&gt;conn18 -->
<g id="edge26" class="edge">
<title>thermostat_regulate_temperature_manage_regulator_interface_mrit&#45;&gt;conn18</title>
<path fill="none" stroke="#000000" d="M1436.7504,-420.9735C1415.6688,-406.6441 1388.2213,-386.6206 1369.3646,-371.8377"/>
<polygon fill="#000000" stroke="#000000" points="1371.3596,-368.952 1361.359,-365.4536 1366.9953,-374.4249 1371.3596,-368.952"/>
</g>
<!-- heat_source_cpi_heat_controller -->
<g id="node9" class="node">
<title>heat_source_cpi_heat_controller</title>
<path fill="none" stroke="#000000" d="M2212.5,-196C2212.5,-196 1751.5,-196 1751.5,-196 1745.5,-196 1739.5,-190 1739.5,-184 1739.5,-184 1739.5,-172 1739.5,-172 1739.5,-166 1745.5,-160 1751.5,-160 1751.5,-160 2212.5,-160 2212.5,-160 2218.5,-160 2224.5,-166 2224.5,-172 2224.5,-172 2224.5,-184 2224.5,-184 2224.5,-190 2218.5,-196 2212.5,-196"/>
<text text-anchor="middle" x="1982" y="-174.3" font-family="Times,serif" font-size="14.00" fill="#000000">heat_source_cpi_heat_controller::Heat_Source_impl_heat_source_cpi_heat_controller</text>
</g>
<!-- thermostat_regulate_temperature_manage_heat_source_mhst&#45;&gt;heat_source_cpi_heat_controller -->
<g id="edge3" class="edge">
<title>thermostat_regulate_temperature_manage_heat_source_mhst&#45;&gt;heat_source_cpi_heat_controller</title>
<path fill="none" stroke="#000000" d="M2219.3931,-244.1962C2170.0109,-230.4261 2105.5139,-212.4414 2056.2125,-198.6939"/>
<polygon fill="none" stroke="#000000" points="2230.4278,-243.1205 2228.279,-250.8266 2220.573,-248.6777 2222.7218,-240.9717 2230.4278,-243.1205"/>
<polyline fill="none" stroke="#000000" points="2221.6474,-244.8247 2219.7209,-244.2875 "/>
<polygon fill="none" stroke="#000000" points="2045.4894,-199.8564 2047.6382,-192.1504 2055.3442,-194.2992 2053.1954,-202.0052 2045.4894,-199.8564"/>
<polyline fill="none" stroke="#000000" points="2054.2698,-198.1522 2056.1963,-198.6894 "/>
<text text-anchor="middle" x="2173" y="-217.8" font-family="Times,serif" font-size="14.00" fill="#000000">conn3</text>
</g>
<!-- conn19 -->
<g id="node11" class="node">
<title>conn19</title>
<polygon fill="none" stroke="#000000" points="2294,-196 2242.5544,-178 2294,-160 2345.4456,-178 2294,-196"/>
<text text-anchor="middle" x="2294" y="-174.3" font-family="Times,serif" font-size="14.00" fill="#000000">conn19</text>
</g>
<!-- thermostat_regulate_temperature_manage_heat_source_mhst&#45;&gt;conn19 -->
<g id="edge28" class="edge">
<title>thermostat_regulate_temperature_manage_heat_source_mhst&#45;&gt;conn19</title>
<path fill="none" stroke="#000000" d="M2288.4073,-246.9735C2287.1404,-234.7205 2286.9137,-218.304 2287.7271,-204.5609"/>
<polygon fill="#000000" stroke="#000000" points="2291.2445,-204.503 2288.6025,-194.2429 2284.2696,-203.9112 2291.2445,-204.503"/>
</g>
<!-- thermostat_regulate_temperature_manage_regulator_mode_mrmt&#45;&gt;thermostat_regulate_temperature_manage_regulator_interface_mrit -->
<g id="edge19" class="edge">
<title>thermostat_regulate_temperature_manage_regulator_mode_mrmt&#45;&gt;thermostat_regulate_temperature_manage_regulator_interface_mrit</title>
<path fill="none" stroke="#000000" d="M1831.2381,-374.0857C1806.7217,-384.348 1776.2783,-395.8378 1748,-403 1722.0974,-409.5604 1694.5335,-414.9577 1667.18,-419.3901"/>
<polygon fill="none" stroke="#000000" points="1839.1043,-366.3957 1842.2339,-373.7581 1834.8714,-376.8877 1831.7418,-369.5253 1839.1043,-366.3957"/>
<polyline fill="none" stroke="#000000" points="1833.3066,-373.2065 1831.466,-373.9889 "/>
<polygon fill="none" stroke="#000000" points="1657.7394,-424.9308 1656.4912,-417.0287 1664.3933,-415.7805 1665.6415,-423.6826 1657.7394,-424.9308"/>
<polyline fill="none" stroke="#000000" points="1665.0174,-419.7316 1666.9929,-419.4195 "/>
<text text-anchor="middle" x="1812" y="-391.8" font-family="Times,serif" font-size="14.00" fill="#000000">conn13</text>
</g>
<!-- thermostat_regulate_temperature_manage_regulator_mode_mrmt&#45;&gt;thermostat_regulate_temperature_manage_heat_source_mhst -->
<g id="edge20" class="edge">
<title>thermostat_regulate_temperature_manage_regulator_mode_mrmt&#45;&gt;thermostat_regulate_temperature_manage_heat_source_mhst</title>
<path fill="none" stroke="#000000" d="M1975.9607,-331.8343C2042.7592,-317.797 2131.4701,-299.1548 2198.2274,-285.1261"/>
<polygon fill="none" stroke="#000000" points="1966.6037,-337.888 1964.9584,-330.059 1972.7874,-328.4138 1974.4327,-336.2428 1966.6037,-337.888"/>
<polyline fill="none" stroke="#000000" points="1973.6101,-332.3283 1975.5673,-331.9169 "/>
<polygon fill="none" stroke="#000000" points="2207.5062,-279.0889 2209.1515,-286.9179 2201.3225,-288.5631 2199.6772,-280.7341 2207.5062,-279.0889"/>
<polyline fill="none" stroke="#000000" points="2200.4998,-284.6486 2198.5426,-285.06 "/>
<text text-anchor="middle" x="2131" y="-304.8" font-family="Times,serif" font-size="14.00" fill="#000000">conn13</text>
</g>
<!-- conn20 -->
<g id="node12" class="node">
<title>conn20</title>
<polygon fill="none" stroke="#000000" points="1248,-283 1196.5544,-265 1248,-247 1299.4456,-265 1248,-283"/>
<text text-anchor="middle" x="1248" y="-261.3" font-family="Times,serif" font-size="14.00" fill="#000000">conn20</text>
</g>
<!-- thermostat_regulate_temperature_manage_regulator_mode_mrmt&#45;&gt;conn20 -->
<g id="edge30" class="edge">
<title>thermostat_regulate_temperature_manage_regulator_mode_mrmt&#45;&gt;conn20</title>
<path fill="none" stroke="#000000" d="M1743.4565,-333.9735C1601.5454,-314.7125 1387.4694,-285.1635 1294.1413,-271.8826"/>
<polygon fill="#000000" stroke="#000000" points="1294.5588,-268.4068 1284.1646,-270.459 1293.5699,-275.3366 1294.5588,-268.4068"/>
</g>
<!-- thermostat_monitor_temperature_manage_alarm_mat -->
<g id="node4" class="node">
<title>thermostat_monitor_temperature_manage_alarm_mat</title>
<path fill="none" stroke="#000000" d="M857,-109C857,-109 141,-109 141,-109 135,-109 129,-103 129,-97 129,-97 129,-85 129,-85 129,-79 135,-73 141,-73 141,-73 857,-73 857,-73 863,-73 869,-79 869,-85 869,-85 869,-97 869,-97 869,-103 863,-109 857,-109"/>
<text text-anchor="middle" x="499" y="-87.3" font-family="Times,serif" font-size="14.00" fill="#000000">thermostat_monitor_temperature_manage_alarm_mat::Manage_Alarm_impl_thermostat_monitor_temperature_manage_alarm_mat</text>
</g>
<!-- thermostat_monitor_temperature_manage_alarm_mat&#45;&gt;operator_interface_oip_oit -->
<g id="edge4" class="edge">
<title>thermostat_monitor_temperature_manage_alarm_mat&#45;&gt;operator_interface_oip_oit</title>
<path fill="none" stroke="#000000" d="M567.6326,-112.455C599.5142,-124.0334 637.1096,-140.0691 668,-160 687.5486,-172.613 684.8663,-186.2737 706,-196 775.8223,-228.134 805.8335,-187.5471 878,-214 889.1113,-218.0729 888.8494,-225.036 900,-229 944.5494,-244.837 1080.013,-212.1821 1112,-247 1150.7061,-289.1317 1088.8007,-315.8 1020.2036,-331.7143"/>
<polygon fill="none" stroke="#000000" points="556.5949,-112.7741 559.2762,-105.2368 566.8135,-107.9181 564.1322,-115.4554 556.5949,-112.7741"/>
<polyline fill="none" stroke="#000000" points="565.4728,-111.6868 567.3572,-112.3571 "/>
<polygon fill="none" stroke="#000000" points="1010.9179,-337.8885 1009.1728,-330.0812 1016.9801,-328.336 1018.7253,-336.1434 1010.9179,-337.8885"/>
<polyline fill="none" stroke="#000000" points="1017.8527,-332.2397 1019.8045,-331.8034 "/>
<text text-anchor="middle" x="917" y="-217.8" font-family="Times,serif" font-size="14.00" fill="#000000">conn4</text>
</g>
<!-- conn21 -->
<g id="node13" class="node">
<title>conn21</title>
<polygon fill="none" stroke="#000000" points="499,-36 447.5544,-18 499,0 550.4456,-18 499,-36"/>
<text text-anchor="middle" x="499" y="-14.3" font-family="Times,serif" font-size="14.00" fill="#000000">conn21</text>
</g>
<!-- thermostat_monitor_temperature_manage_alarm_mat&#45;&gt;conn21 -->
<g id="edge32" class="edge">
<title>thermostat_monitor_temperature_manage_alarm_mat&#45;&gt;conn21</title>
<path fill="none" stroke="#000000" d="M493.0843,-72.9551C492.2347,-64.3656 492.034,-53.9258 492.4822,-44.4622"/>
<polygon fill="#000000" stroke="#000000" points="495.9832,-44.5828 493.2639,-34.3429 489.004,-44.0435 495.9832,-44.5828"/>
</g>
<!-- thermostat_monitor_temperature_manage_monitor_interface_mmit -->
<g id="node5" class="node">
<title>thermostat_monitor_temperature_manage_monitor_interface_mmit</title>
<path fill="none" stroke="#000000" d="M970.5,-283C970.5,-283 39.5,-283 39.5,-283 33.5,-283 27.5,-277 27.5,-271 27.5,-271 27.5,-259 27.5,-259 27.5,-253 33.5,-247 39.5,-247 39.5,-247 970.5,-247 970.5,-247 976.5,-247 982.5,-253 982.5,-259 982.5,-259 982.5,-271 982.5,-271 982.5,-277 976.5,-283 970.5,-283"/>
<text text-anchor="middle" x="505" y="-261.3" font-family="Times,serif" font-size="14.00" fill="#000000">thermostat_monitor_temperature_manage_monitor_interface_mmit::Manage_Monitor_Interface_impl_thermostat_monitor_temperature_manage_monitor_interface_mmit</text>
</g>
<!-- thermostat_monitor_temperature_manage_monitor_interface_mmit&#45;&gt;thermostat_monitor_temperature_manage_alarm_mat -->
<g id="edge21" class="edge">
<title>thermostat_monitor_temperature_manage_monitor_interface_mmit&#45;&gt;thermostat_monitor_temperature_manage_alarm_mat</title>
<path fill="none" stroke="#000000" d="M504.0125,-236.3619C502.8937,-203.9185 501.0821,-151.3805 499.9705,-119.1431"/>
<polygon fill="none" stroke="#000000" points="508.3669,-246.5699 500.3716,-246.8457 500.0958,-238.8505 508.0911,-238.5747 508.3669,-246.5699"/>
<polyline fill="none" stroke="#000000" points="504.0935,-238.7126 504.0245,-236.7138 "/>
<polygon fill="none" stroke="#000000" points="495.6247,-109.185 503.6199,-108.9092 503.8957,-116.9045 495.9005,-117.1802 495.6247,-109.185"/>
<polyline fill="none" stroke="#000000" points="499.8981,-117.0423 499.967,-119.0411 "/>
<text text-anchor="middle" x="523" y="-174.3" font-family="Times,serif" font-size="14.00" fill="#000000">conn14</text>
</g>
<!-- thermostat_monitor_temperature_manage_monitor_interface_mmit&#45;&gt;thermostat_monitor_temperature_manage_alarm_mat -->
<g id="edge22" class="edge">
<title>thermostat_monitor_temperature_manage_monitor_interface_mmit&#45;&gt;thermostat_monitor_temperature_manage_alarm_mat</title>
<path fill="none" stroke="#000000" d="M481.6865,-238.8311C472.3968,-226.6933 462.7869,-211.5306 458,-196 453.2872,-180.7098 453.762,-175.4285 458,-160 462.158,-144.8627 470.5963,-129.6859 478.7425,-117.4358"/>
<polygon fill="none" stroke="#000000" points="491.1256,-244.2177 484.8815,-249.2188 479.8804,-242.9746 486.1245,-237.9735 491.1256,-244.2177"/>
<polyline fill="none" stroke="#000000" points="483.0024,-240.4741 481.7521,-238.913 "/>
<polygon fill="none" stroke="#000000" points="481.2733,-106.7915 487.841,-111.3594 483.2731,-117.9271 476.7054,-113.3592 481.2733,-106.7915"/>
<polyline fill="none" stroke="#000000" points="479.9893,-115.6432 478.8473,-117.2851 "/>
<text text-anchor="middle" x="478" y="-174.3" font-family="Times,serif" font-size="14.00" fill="#000000">conn15</text>
</g>
<!-- thermostat_monitor_temperature_manage_monitor_mode_mmmt -->
<g id="node6" class="node">
<title>thermostat_monitor_temperature_manage_monitor_mode_mmmt</title>
<path fill="none" stroke="#000000" d="M1624.5,-196C1624.5,-196 727.5,-196 727.5,-196 721.5,-196 715.5,-190 715.5,-184 715.5,-184 715.5,-172 715.5,-172 715.5,-166 721.5,-160 727.5,-160 727.5,-160 1624.5,-160 1624.5,-160 1630.5,-160 1636.5,-166 1636.5,-172 1636.5,-172 1636.5,-184 1636.5,-184 1636.5,-190 1630.5,-196 1624.5,-196"/>
<text text-anchor="middle" x="1176" y="-174.3" font-family="Times,serif" font-size="14.00" fill="#000000">thermostat_monitor_temperature_manage_monitor_mode_mmmt::Manage_Monitor_Mode_impl_thermostat_monitor_temperature_manage_monitor_mode_mmmt</text>
</g>
<!-- thermostat_monitor_temperature_manage_monitor_interface_mmit&#45;&gt;thermostat_monitor_temperature_manage_monitor_mode_mmmt -->
<g id="edge23" class="edge">
<title>thermostat_monitor_temperature_manage_monitor_interface_mmit&#45;&gt;thermostat_monitor_temperature_manage_monitor_mode_mmmt</title>
<path fill="none" stroke="#000000" d="M624.3381,-245.3666C687.713,-235.2836 766.9791,-223.2158 838,-214 884.5769,-207.9561 934.8622,-202.1907 982.0482,-197.1147"/>
<polygon fill="none" stroke="#000000" points="614.9372,-250.9171 613.6767,-243.0171 621.5767,-241.7565 622.8373,-249.6566 614.9372,-250.9171"/>
<polyline fill="none" stroke="#000000" points="622.207,-245.7066 624.182,-245.3914 "/>
<polygon fill="none" stroke="#000000" points="991.642,-192.0649 992.4935,-200.0194 984.539,-200.871 983.6874,-192.9164 991.642,-192.0649"/>
<polyline fill="none" stroke="#000000" points="984.1132,-196.8937 982.1245,-197.1066 "/>
<text text-anchor="middle" x="858" y="-217.8" font-family="Times,serif" font-size="14.00" fill="#000000">conn16</text>
</g>
<!-- thermostat_monitor_temperature_manage_monitor_interface_mmit&#45;&gt;operator_interface_oip_oit -->
<g id="edge5" class="edge">
<title>thermostat_monitor_temperature_manage_monitor_interface_mmit&#45;&gt;operator_interface_oip_oit</title>
<path fill="none" stroke="#000000" d="M747.3915,-284.3967C779.0651,-288.9603 806.0355,-294.4529 822,-301 836.5235,-306.9561 850.5083,-317.14 861.7608,-326.8486"/>
<polygon fill="none" stroke="#000000" points="736.8669,-286.972 737.9686,-279.0482 745.8924,-280.1498 744.7907,-288.0736 736.8669,-286.972"/>
<polyline fill="none" stroke="#000000" points="745.3415,-284.1117 747.3225,-284.3872 "/>
<polygon fill="none" stroke="#000000" points="872.1175,-330.7947 866.7629,-336.7385 860.8191,-331.3839 866.1737,-325.4401 872.1175,-330.7947"/>
<polyline fill="none" stroke="#000000" points="863.4964,-328.412 862.0104,-327.0734 "/>
<text text-anchor="middle" x="865" y="-304.8" font-family="Times,serif" font-size="14.00" fill="#000000">conn5</text>
</g>
<!-- conn22 -->
<g id="node14" class="node">
<title>conn22</title>
<polygon fill="none" stroke="#000000" points="608,-196 556.5544,-178 608,-160 659.4456,-178 608,-196"/>
<text text-anchor="middle" x="608" y="-174.3" font-family="Times,serif" font-size="14.00" fill="#000000">conn22</text>
</g>
<!-- thermostat_monitor_temperature_manage_monitor_interface_mmit&#45;&gt;conn22 -->
<g id="edge34" class="edge">
<title>thermostat_monitor_temperature_manage_monitor_interface_mmit&#45;&gt;conn22</title>
<path fill="none" stroke="#000000" d="M520.7489,-246.9735C536.9577,-231.9726 562.1134,-210.7314 581.3637,-195.7951"/>
<polygon fill="#000000" stroke="#000000" points="583.6384,-198.4621 589.4737,-189.619 579.3974,-192.8931 583.6384,-198.4621"/>
</g>
<!-- thermostat_monitor_temperature_manage_monitor_mode_mmmt&#45;&gt;thermostat_monitor_temperature_manage_alarm_mat -->
<g id="edge25" class="edge">
<title>thermostat_monitor_temperature_manage_monitor_mode_mmmt&#45;&gt;thermostat_monitor_temperature_manage_alarm_mat</title>
<path fill="none" stroke="#000000" d="M1025.74,-158.6904C913.6508,-144.286 761.1862,-124.6931 649.1286,-110.2927"/>
<polygon fill="none" stroke="#000000" points="1036.235,-156.0062 1035.2153,-163.9409 1027.2805,-162.9212 1028.3003,-154.9864 1036.235,-156.0062"/>
<polyline fill="none" stroke="#000000" points="1027.7904,-158.9538 1025.8067,-158.6989 "/>
<polygon fill="none" stroke="#000000" points="638.5853,-112.9707 639.605,-105.036 647.5398,-106.0557 646.52,-113.9905 638.5853,-112.9707"/>
<polyline fill="none" stroke="#000000" points="647.0299,-110.0231 649.0136,-110.278 "/>
<text text-anchor="middle" x="899" y="-130.8" font-family="Times,serif" font-size="14.00" fill="#000000">conn17</text>
</g>
<!-- thermostat_monitor_temperature_manage_monitor_mode_mmmt&#45;&gt;thermostat_monitor_temperature_manage_monitor_interface_mmit -->
<g id="edge24" class="edge">
<title>thermostat_monitor_temperature_manage_monitor_mode_mmmt&#45;&gt;thermostat_monitor_temperature_manage_monitor_interface_mmit</title>
<path fill="none" stroke="#000000" d="M1093.6892,-198.3584C1048.0717,-208.9529 990.185,-221.2719 938,-229 892.0218,-235.8089 843.0919,-241.4257 795.2948,-246.0298"/>
<polygon fill="none" stroke="#000000" points="1102.614,-192.1618 1104.4369,-199.9514 1096.6473,-201.7742 1094.8244,-193.9847 1102.614,-192.1618"/>
<polyline fill="none" stroke="#000000" points="1095.7359,-197.8795 1093.7885,-198.3352 "/>
<polygon fill="none" stroke="#000000" points="785.4924,-250.979 784.7358,-243.0149 792.6999,-242.2582 793.4566,-250.2224 785.4924,-250.979"/>
<polyline fill="none" stroke="#000000" points="793.0783,-246.2403 795.0693,-246.0511 "/>
<text text-anchor="middle" x="1038" y="-217.8" font-family="Times,serif" font-size="14.00" fill="#000000">conn17</text>
</g>
<!-- conn23 -->
<g id="node15" class="node">
<title>conn23</title>
<polygon fill="none" stroke="#000000" points="1176,-109 1124.5544,-91 1176,-73 1227.4456,-91 1176,-109"/>
<text text-anchor="middle" x="1176" y="-87.3" font-family="Times,serif" font-size="14.00" fill="#000000">conn23</text>
</g>
<!-- thermostat_monitor_temperature_manage_monitor_mode_mmmt&#45;&gt;conn23 -->
<g id="edge36" class="edge">
<title>thermostat_monitor_temperature_manage_monitor_mode_mmmt&#45;&gt;conn23</title>
<path fill="none" stroke="#000000" d="M1170.4073,-159.9735C1169.1404,-147.7205 1168.9137,-131.304 1169.7271,-117.5609"/>
<polygon fill="#000000" stroke="#000000" points="1173.2445,-117.503 1170.6025,-107.2429 1166.2696,-116.9112 1173.2445,-117.503"/>
</g>
<!-- operator_interface_oip_oit&#45;&gt;thermostat_regulate_temperature_manage_regulator_interface_mrit -->
<g id="edge6" class="edge">
<title>operator_interface_oip_oit&#45;&gt;thermostat_regulate_temperature_manage_regulator_interface_mrit</title>
<path fill="none" stroke="#000000" d="M931.5654,-374.2847C954.6895,-384.8187 983.7386,-396.4876 1011,-403 1038.5404,-409.579 1086.1212,-415.2862 1140.4405,-420.0968"/>
<polygon fill="none" stroke="#000000" points="920.6801,-373.6396 924.0499,-366.3839 931.3056,-369.7537 927.9358,-377.0094 920.6801,-373.6396"/>
<polyline fill="none" stroke="#000000" points="929.6207,-373.3816 931.4346,-374.224 "/>
<polygon fill="none" stroke="#000000" points="1151.0045,-416.9996 1150.312,-424.9696 1142.342,-424.277 1143.0346,-416.307 1151.0045,-416.9996"/>
<polyline fill="none" stroke="#000000" points="1142.6883,-420.292 1140.6958,-420.1189 "/>
<text text-anchor="middle" x="1028" y="-391.8" font-family="Times,serif" font-size="14.00" fill="#000000">conn6</text>
</g>
<!-- operator_interface_oip_oit&#45;&gt;thermostat_regulate_temperature_manage_regulator_interface_mrit -->
<g id="edge7" class="edge">
<title>operator_interface_oip_oit&#45;&gt;thermostat_regulate_temperature_manage_regulator_interface_mrit</title>
<path fill="none" stroke="#000000" d="M1001.4356,-372.6896C1016.373,-376.9435 1031.2497,-382.0037 1045,-388 1055.8477,-392.7305 1055.8594,-399.0078 1067,-403 1085.7492,-409.7186 1116.0503,-415.2314 1151.8139,-419.742"/>
<polygon fill="none" stroke="#000000" points="990.568,-373.8675 992.6761,-366.1503 1000.3934,-368.2584 998.2852,-375.9757 990.568,-373.8675"/>
<polyline fill="none" stroke="#000000" points="999.3393,-372.117 1001.2686,-372.6441 "/>
<polygon fill="none" stroke="#000000" points="1162.5245,-417.0171 1161.5571,-424.9584 1153.6158,-423.991 1154.5832,-416.0497 1162.5245,-417.0171"/>
<polyline fill="none" stroke="#000000" points="1154.0995,-420.0203 1152.1142,-419.7785 "/>
<text text-anchor="middle" x="1084" y="-391.8" font-family="Times,serif" font-size="14.00" fill="#000000">conn7</text>
</g>
<!-- operator_interface_oip_oit&#45;&gt;thermostat_monitor_temperature_manage_monitor_interface_mmit -->
<g id="edge8" class="edge">
<title>operator_interface_oip_oit&#45;&gt;thermostat_monitor_temperature_manage_monitor_interface_mmit</title>
<path fill="none" stroke="#000000" d="M824.2533,-330.7146C793.156,-320.7113 754.8813,-309.2095 720,-301 694.1937,-294.9264 666.4119,-289.4811 639.6682,-284.7751"/>
<polygon fill="none" stroke="#000000" points="835.3185,-330.0989 832.8499,-337.7085 825.2403,-335.2399 827.7088,-327.6303 835.3185,-330.0989"/>
<polyline fill="none" stroke="#000000" points="826.4745,-331.4351 824.5721,-330.818 "/>
<polygon fill="none" stroke="#000000" points="628.7921,-286.9491 630.1588,-279.0667 638.0412,-280.4334 636.6745,-288.3158 628.7921,-286.9491"/>
<polyline fill="none" stroke="#000000" points="637.3579,-284.3746 639.3285,-284.7163 "/>
<text text-anchor="middle" x="793" y="-304.8" font-family="Times,serif" font-size="14.00" fill="#000000">conn8</text>
</g>
<!-- operator_interface_oip_oit&#45;&gt;thermostat_monitor_temperature_manage_monitor_interface_mmit -->
<g id="edge9" class="edge">
<title>operator_interface_oip_oit&#45;&gt;thermostat_monitor_temperature_manage_monitor_interface_mmit</title>
<path fill="none" stroke="#000000" d="M761.5859,-332.1636C735.1938,-327.3783 707.5989,-321.9179 682,-316 645.2925,-307.514 604.8843,-296.0374 571.9559,-286.12"/>
<polygon fill="none" stroke="#000000" points="772.3408,-330.0269 770.9299,-337.9015 763.0553,-336.4905 764.4662,-328.6159 772.3408,-330.0269"/>
<polyline fill="none" stroke="#000000" points="763.7608,-332.5532 761.7921,-332.2005 "/>
<polygon fill="none" stroke="#000000" points="560.8283,-286.9251 563.1502,-279.2694 570.8058,-281.5913 568.4839,-289.247 560.8283,-286.9251"/>
<polyline fill="none" stroke="#000000" points="569.6449,-285.4192 571.5588,-285.9996 "/>
<text text-anchor="middle" x="699" y="-304.8" font-family="Times,serif" font-size="14.00" fill="#000000">conn8</text>
</g>
<!-- conn24 -->
<g id="node16" class="node">
<title>conn24</title>
<polygon fill="none" stroke="#000000" points="1052,-283 1000.5544,-265 1052,-247 1103.4456,-265 1052,-283"/>
<text text-anchor="middle" x="1052" y="-261.3" font-family="Times,serif" font-size="14.00" fill="#000000">conn24</text>
</g>
<!-- operator_interface_oip_oit&#45;&gt;conn24 -->
<g id="edge38" class="edge">
<title>operator_interface_oip_oit&#45;&gt;conn24</title>
<path fill="none" stroke="#000000" d="M915.5954,-333.9735C944.5869,-317.8057 989.1373,-294.389 1019.4585,-279.4298"/>
<polygon fill="#000000" stroke="#000000" points="1021.3121,-282.4199 1028.7653,-274.89 1018.2431,-276.1285 1021.3121,-282.4199"/>
</g>
<!-- temperature_sensor_cpi_thermostat -->
<g id="node8" class="node">
<title>temperature_sensor_cpi_thermostat</title>
<path fill="none" stroke="#000000" d="M2124.5,-544C2124.5,-544 1583.5,-544 1583.5,-544 1577.5,-544 1571.5,-538 1571.5,-532 1571.5,-532 1571.5,-520 1571.5,-520 1571.5,-514 1577.5,-508 1583.5,-508 1583.5,-508 2124.5,-508 2124.5,-508 2130.5,-508 2136.5,-514 2136.5,-520 2136.5,-520 2136.5,-532 2136.5,-532 2136.5,-538 2130.5,-544 2124.5,-544"/>
<text text-anchor="middle" x="1854" y="-522.3" font-family="Times,serif" font-size="14.00" fill="#000000">temperature_sensor_cpi_thermostat::Temperature_Sensor_impl_temperature_sensor_cpi_thermostat</text>
</g>
<!-- temperature_sensor_cpi_thermostat&#45;&gt;thermostat_regulate_temperature_manage_regulator_interface_mrit -->
<g id="edge13" class="edge">
<title>temperature_sensor_cpi_thermostat&#45;&gt;thermostat_regulate_temperature_manage_regulator_interface_mrit</title>
<path fill="none" stroke="#000000" d="M1763.8937,-505.7436C1701.6198,-491.744 1619.1179,-473.197 1556.8907,-459.208"/>
<polygon fill="none" stroke="#000000" points="1774.6907,-504.0709 1772.936,-511.8761 1765.1308,-510.1214 1766.8855,-502.3162 1774.6907,-504.0709"/>
<polyline fill="none" stroke="#000000" points="1766.0081,-506.2188 1764.0568,-505.7801 "/>
<polygon fill="none" stroke="#000000" points="1546.2066,-460.906 1547.9613,-453.1008 1555.7665,-454.8555 1554.0118,-462.6607 1546.2066,-460.906"/>
<polyline fill="none" stroke="#000000" points="1554.8891,-458.7581 1556.8404,-459.1968 "/>
<text text-anchor="middle" x="1700" y="-478.8" font-family="Times,serif" font-size="14.00" fill="#000000">conn9</text>
</g>
<!-- temperature_sensor_cpi_thermostat&#45;&gt;thermostat_regulate_temperature_manage_heat_source_mhst -->
<g id="edge14" class="edge">
<title>temperature_sensor_cpi_thermostat&#45;&gt;thermostat_regulate_temperature_manage_heat_source_mhst</title>
<path fill="none" stroke="#000000" d="M1990.2738,-506.322C2136.3834,-482.1071 2354.164,-435.9371 2404,-370 2427.9481,-338.3147 2385.7627,-307.609 2346.9008,-287.6736"/>
<polygon fill="none" stroke="#000000" points="1980.9668,-511.9035 1979.6707,-504.0092 1987.565,-502.7131 1988.8611,-510.6074 1980.9668,-511.9035"/>
<polyline fill="none" stroke="#000000" points="1988.2131,-506.6603 1990.1867,-506.3363 "/>
<polygon fill="none" stroke="#000000" points="2335.8782,-286.6759 2339.4302,-279.5077 2346.5984,-283.0597 2343.0464,-290.2279 2335.8782,-286.6759"/>
<polyline fill="none" stroke="#000000" points="2344.8224,-286.6438 2346.6145,-287.5318 "/>
<text text-anchor="middle" x="2402" y="-391.8" font-family="Times,serif" font-size="14.00" fill="#000000">conn9</text>
</g>
<!-- temperature_sensor_cpi_thermostat&#45;&gt;thermostat_regulate_temperature_manage_regulator_mode_mrmt -->
<g id="edge15" class="edge">
<title>temperature_sensor_cpi_thermostat&#45;&gt;thermostat_regulate_temperature_manage_regulator_mode_mrmt</title>
<path fill="none" stroke="#000000" d="M1907.6719,-502.9616C1926.4642,-491.9664 1945.4856,-476.807 1956,-457 1971.7296,-427.3688 1943.3666,-396.6411 1916.9302,-376.1424"/>
<polygon fill="none" stroke="#000000" points="1900.7323,-511.374 1896.8585,-504.3744 1903.8581,-500.5006 1907.7319,-507.5002 1900.7323,-511.374"/>
<polyline fill="none" stroke="#000000" points="1905.795,-504.0004 1907.5449,-503.0319 "/>
<polygon fill="none" stroke="#000000" points="1906.4508,-373.3307 1911.2265,-366.9125 1917.6447,-371.6882 1912.8691,-378.1064 1906.4508,-373.3307"/>
<polyline fill="none" stroke="#000000" points="1915.2569,-374.8973 1916.8614,-376.0912 "/>
<text text-anchor="middle" x="1977" y="-435.3" font-family="Times,serif" font-size="14.00" fill="#000000">conn9</text>
</g>
<!-- temperature_sensor_cpi_thermostat&#45;&gt;thermostat_monitor_temperature_manage_alarm_mat -->
<g id="edge11" class="edge">
<title>temperature_sensor_cpi_thermostat&#45;&gt;thermostat_monitor_temperature_manage_alarm_mat</title>
<path fill="none" stroke="#000000" d="M1561.0763,-519.5795C1038.5733,-507.149 0,-477.5877 0,-439 0,-439 0,-439 0,-178 0,-147.6779 144.8428,-124.7756 278.4564,-110.0994"/>
<polygon fill="none" stroke="#000000" points="1571.5038,-515.8258 1571.314,-523.8235 1563.3162,-523.6337 1563.5061,-515.6359 1571.5038,-515.8258"/>
<polyline fill="none" stroke="#000000" points="1563.4111,-519.6348 1561.4117,-519.5873 "/>
<polygon fill="none" stroke="#000000" points="288.0322,-105.0365 288.8956,-112.9897 280.9423,-113.8532 280.0789,-105.8999 288.0322,-105.0365"/>
<polyline fill="none" stroke="#000000" points="280.5106,-109.8765 278.5223,-110.0924 "/>
<text text-anchor="middle" x="17" y="-304.8" font-family="Times,serif" font-size="14.00" fill="#000000">conn9</text>
</g>
<!-- temperature_sensor_cpi_thermostat&#45;&gt;thermostat_monitor_temperature_manage_monitor_interface_mmit -->
<g id="edge10" class="edge">
<title>temperature_sensor_cpi_thermostat&#45;&gt;thermostat_monitor_temperature_manage_monitor_interface_mmit</title>
<path fill="none" stroke="#000000" d="M1561.1813,-519.1562C1318.5831,-512.6948 1004.2929,-502.1949 945,-490 799.0701,-459.9864 760.6593,-445.1209 632,-370 593.4333,-347.4819 554.6778,-313.383 530.3045,-290.2002"/>
<polygon fill="none" stroke="#000000" points="1571.3334,-515.424 1571.1213,-523.4211 1563.1241,-523.209 1563.3363,-515.2118 1571.3334,-515.424"/>
<polyline fill="none" stroke="#000000" points="1563.2302,-519.2104 1561.2309,-519.1574 "/>
<polygon fill="none" stroke="#000000" points="520.1405,-285.9669 525.6892,-280.2039 531.4522,-285.7526 525.9035,-291.5156 520.1405,-285.9669"/>
<polyline fill="none" stroke="#000000" points="528.6779,-288.6341 530.1186,-290.0213 "/>
<text text-anchor="middle" x="706" y="-391.8" font-family="Times,serif" font-size="14.00" fill="#000000">conn9</text>
</g>
<!-- temperature_sensor_cpi_thermostat&#45;&gt;thermostat_monitor_temperature_manage_monitor_mode_mmmt -->
<g id="edge12" class="edge">
<title>temperature_sensor_cpi_thermostat&#45;&gt;thermostat_monitor_temperature_manage_monitor_mode_mmmt</title>
<path fill="none" stroke="#000000" d="M1561.1989,-512.3529C1314.3671,-499.3826 998.0439,-478.6848 978,-457 967.1396,-445.2505 969.7171,-434.6892 978,-421 994.3633,-393.9565 1011.0999,-398.2516 1041,-388 1083.7176,-373.3537 1109.0326,-401.8966 1141,-370 1184.5774,-326.5192 1183.9294,-248.0486 1179.8809,-206.1536"/>
<polygon fill="none" stroke="#000000" points="1571.6312,-508.8933 1571.2131,-516.8824 1563.224,-516.4643 1563.6421,-508.4752 1571.6312,-508.8933"/>
<polyline fill="none" stroke="#000000" points="1563.4331,-512.4698 1561.4358,-512.3653 "/>
<polygon fill="none" stroke="#000000" points="1174.7973,-196.5293 1182.7493,-195.6538 1183.6247,-203.6058 1175.6727,-204.4812 1174.7973,-196.5293"/>
<polyline fill="none" stroke="#000000" points="1179.6487,-204.0435 1179.8676,-206.0315 "/>
<text text-anchor="middle" x="1182" y="-348.3" font-family="Times,serif" font-size="14.00" fill="#000000">conn9</text>
</g>
<!-- conn25 -->
<g id="node17" class="node">
<title>conn25</title>
<polygon fill="none" stroke="#000000" points="2526,-457 2474.5544,-439 2526,-421 2577.4456,-439 2526,-457"/>
<text text-anchor="middle" x="2526" y="-435.3" font-family="Times,serif" font-size="14.00" fill="#000000">conn25</text>
</g>
<!-- temperature_sensor_cpi_thermostat&#45;&gt;conn25 -->
<g id="edge40" class="edge">
<title>temperature_sensor_cpi_thermostat&#45;&gt;conn25</title>
<path fill="none" stroke="#000000" d="M2136.8205,-516.5156C2276.2896,-510.5129 2421.2131,-501.6679 2452,-490 2470.1051,-483.1384 2487.1889,-469.3334 2500.6142,-457.815"/>
<polygon fill="#000000" stroke="#000000" points="2503.1986,-460.2076 2508.4769,-451.0212 2498.6219,-454.9109 2503.1986,-460.2076"/>
</g>
<!-- conn26 -->
<g id="node18" class="node">
<title>conn26</title>
<polygon fill="none" stroke="#000000" points="1982,-109 1930.5544,-91 1982,-73 2033.4456,-91 1982,-109"/>
<text text-anchor="middle" x="1982" y="-87.3" font-family="Times,serif" font-size="14.00" fill="#000000">conn26</text>
</g>
<!-- heat_source_cpi_heat_controller&#45;&gt;conn26 -->
<g id="edge42" class="edge">
<title>heat_source_cpi_heat_controller&#45;&gt;conn26</title>
<path fill="none" stroke="#000000" d="M1976.4073,-159.9735C1975.1404,-147.7205 1974.9137,-131.304 1975.7271,-117.5609"/>
<polygon fill="#000000" stroke="#000000" points="1979.2445,-117.503 1976.6025,-107.2429 1972.2696,-116.9112 1979.2445,-117.503"/>
</g>
<!-- conn18&#45;&gt;thermostat_regulate_temperature_manage_regulator_interface_mrit -->
<g id="edge27" class="edge">
<title>conn18&#45;&gt;thermostat_regulate_temperature_manage_regulator_interface_mrit</title>
<path fill="none" stroke="#000000" d="M1367.8907,-363.1139C1387.7357,-376.0642 1418.0055,-397.8445 1439.9654,-414.7581"/>
<polygon fill="#000000" stroke="#000000" points="1437.8978,-417.5841 1447.9359,-420.9735 1442.2024,-412.0641 1437.8978,-417.5841"/>
</g>
<!-- conn19&#45;&gt;thermostat_regulate_temperature_manage_heat_source_mhst -->
<g id="edge29" class="edge">
<title>conn19&#45;&gt;thermostat_regulate_temperature_manage_heat_source_mhst</title>
<path fill="none" stroke="#000000" d="M2299.3975,-194.2429C2300.7806,-206.1852 2301.1029,-222.7181 2300.3643,-236.7997"/>
<polygon fill="#000000" stroke="#000000" points="2296.8591,-236.7375 2299.5927,-246.9735 2303.839,-237.2669 2296.8591,-236.7375"/>
</g>
<!-- conn20&#45;&gt;thermostat_regulate_temperature_manage_regulator_mode_mrmt -->
<g id="edge31" class="edge">
<title>conn20&#45;&gt;thermostat_regulate_temperature_manage_regulator_mode_mrmt</title>
<path fill="none" stroke="#000000" d="M1286.0144,-269.7795C1374.7126,-281.5001 1598.5143,-312.1965 1744.6913,-332.5848"/>
<polygon fill="#000000" stroke="#000000" points="1744.2541,-336.0577 1754.6419,-333.9735 1745.2217,-329.1248 1744.2541,-336.0577"/>
</g>
<!-- conn21&#45;&gt;thermostat_monitor_temperature_manage_alarm_mat -->
<g id="edge33" class="edge">
<title>conn21&#45;&gt;thermostat_monitor_temperature_manage_alarm_mat</title>
<path fill="none" stroke="#000000" d="M504.7361,-34.3429C505.6828,-42.761 505.9665,-53.2631 505.5874,-62.9306"/>
<polygon fill="#000000" stroke="#000000" points="502.0921,-62.7434 504.9157,-72.9551 509.0765,-63.2114 502.0921,-62.7434"/>
</g>
<!-- conn22&#45;&gt;thermostat_monitor_temperature_manage_monitor_interface_mmit -->
<g id="edge35" class="edge">
<title>conn22&#45;&gt;thermostat_monitor_temperature_manage_monitor_interface_mmit</title>
<path fill="none" stroke="#000000" d="M596.5471,-191.9962C582.7665,-205.1244 559.5315,-225.0338 539.8385,-240.7466"/>
<polygon fill="#000000" stroke="#000000" points="537.6236,-238.0358 531.9344,-246.9735 541.9555,-243.5344 537.6236,-238.0358"/>
</g>
<!-- conn23&#45;&gt;thermostat_monitor_temperature_manage_monitor_mode_mmmt -->
<g id="edge37" class="edge">
<title>conn23&#45;&gt;thermostat_monitor_temperature_manage_monitor_mode_mmmt</title>
<path fill="none" stroke="#000000" d="M1181.3975,-107.2429C1182.7806,-119.1852 1183.1029,-135.7181 1182.3643,-149.7997"/>
<polygon fill="#000000" stroke="#000000" points="1178.8591,-149.7375 1181.5927,-159.9735 1185.839,-150.2669 1178.8591,-149.7375"/>
</g>
<!-- conn24&#45;&gt;operator_interface_oip_oit -->
<g id="edge39" class="edge">
<title>conn24&#45;&gt;operator_interface_oip_oit</title>
<path fill="none" stroke="#000000" d="M1034.2895,-276.8748C1010.8537,-290.3363 969.0461,-312.5901 935.8829,-329.3912"/>
<polygon fill="#000000" stroke="#000000" points="934.1389,-326.3506 926.7808,-333.9735 937.2867,-332.603 934.1389,-326.3506"/>
</g>
<!-- conn25&#45;&gt;temperature_sensor_cpi_thermostat -->
<g id="edge41" class="edge">
<title>conn25&#45;&gt;temperature_sensor_cpi_thermostat</title>
<path fill="none" stroke="#000000" d="M2518.9152,-454.5551C2508.474,-466.6066 2489.8508,-482.4767 2470,-490 2438.7899,-501.8283 2290.2838,-510.7556 2146.9023,-516.7615"/>
<polygon fill="#000000" stroke="#000000" points="2146.4359,-513.2777 2136.5894,-517.1889 2146.7258,-520.2717 2146.4359,-513.2777"/>
</g>
<!-- conn26&#45;&gt;heat_source_cpi_heat_controller -->
<g id="edge43" class="edge">
<title>conn26&#45;&gt;heat_source_cpi_heat_controller</title>
<path fill="none" stroke="#000000" d="M1987.3975,-107.2429C1988.7806,-119.1852 1989.1029,-135.7181 1988.3643,-149.7997"/>
<polygon fill="#000000" stroke="#000000" points="1984.8591,-149.7375 1987.5927,-159.9735 1991.839,-150.2669 1984.8591,-149.7375"/>
</g>
</g>
</svg>
