<?xml version="1.0" encoding="UTF-8" standalone="no"?>
<!DOCTYPE svg PUBLIC "-//W3C//DTD SVG 1.1//EN"
 "http://www.w3.org/Graphics/SVG/1.1/DTD/svg11.dtd">
<!-- Generated by graphviz version 2.40.1 (20161225.0304)
 -->
<!-- Title: %3 Pages: 1 -->
<svg width="1172pt" height="552pt"
 viewBox="0.00 0.00 1172.47 552.00" xmlns="http://www.w3.org/2000/svg" xmlns:xlink="http://www.w3.org/1999/xlink">
<g id="graph0" class="graph" transform="scale(1 1) rotate(0) translate(4 548)">
<title>%3</title>
<polygon fill="#ffffff" stroke="transparent" points="-4,4 -4,-548 1168.4728,-548 1168.4728,4 -4,4"/>
<!-- mrit -->
<g id="node1" class="node">
<title>mrit</title>
<path fill="none" stroke="#000000" d="M738.5,-457C738.5,-457 523.5,-457 523.5,-457 517.5,-457 511.5,-451 511.5,-445 511.5,-445 511.5,-433 511.5,-433 511.5,-427 517.5,-421 523.5,-421 523.5,-421 738.5,-421 738.5,-421 744.5,-421 750.5,-427 750.5,-433 750.5,-433 750.5,-445 750.5,-445 750.5,-451 744.5,-457 738.5,-457"/>
<text text-anchor="middle" x="631" y="-435.3" font-family="Times,serif" font-size="14.00" fill="#000000">mrit::Manage_Regulator_Interface_impl</text>
</g>
<!-- mhst -->
<g id="node2" class="node">
<title>mhst</title>
<path fill="none" stroke="#000000" d="M1008,-283C1008,-283 828,-283 828,-283 822,-283 816,-277 816,-271 816,-271 816,-259 816,-259 816,-253 822,-247 828,-247 828,-247 1008,-247 1008,-247 1014,-247 1020,-253 1020,-259 1020,-259 1020,-271 1020,-271 1020,-277 1014,-283 1008,-283"/>
<text text-anchor="middle" x="918" y="-261.3" font-family="Times,serif" font-size="14.00" fill="#000000">mhst::Manage_Heat_Source_impl</text>
</g>
<!-- mrit&#45;&gt;mhst -->
<g id="edge16" class="edge">
<title>mrit&#45;&gt;mhst</title>
<path fill="none" stroke="#000000" d="M607.8315,-413.367C598.846,-404.4864 588.062,-395.0112 577,-388 558.4569,-376.2472 543.3763,-388.1329 531,-370 521.9802,-356.7847 520.7271,-346.2665 531,-334 565.5082,-292.795 704.0479,-276.174 805.5448,-269.4838"/>
<polygon fill="none" stroke="#000000" points="617.783,-417.8232 612.0629,-423.4161 606.47,-417.696 612.1901,-412.1031 617.783,-417.8232"/>
<polyline fill="none" stroke="#000000" points="609.33,-414.8996 607.9318,-413.4695 "/>
<polygon fill="none" stroke="#000000" points="815.3023,-264.856 815.8094,-272.8399 807.8255,-273.3471 807.3184,-265.3632 815.3023,-264.856"/>
<polyline fill="none" stroke="#000000" points="807.5719,-269.3551 805.576,-269.4819 "/>
<text text-anchor="middle" x="551" y="-348.3" font-family="Times,serif" font-size="14.00" fill="#000000">conn10</text>
</g>
<!-- mrit&#45;&gt;mhst -->
<g id="edge17" class="edge">
<title>mrit&#45;&gt;mhst</title>
<path fill="none" stroke="#000000" d="M752.7301,-419.1566C833.5111,-404.7446 926.8612,-385.1888 939,-370 956.6472,-347.9189 945.923,-315.0266 934.3043,-291.9552"/>
<polygon fill="none" stroke="#000000" points="743.1383,-424.9157 741.7445,-417.038 749.6222,-415.6442 751.016,-423.5219 743.1383,-424.9157"/>
<polyline fill="none" stroke="#000000" points="750.3191,-419.5831 752.2885,-419.2346 "/>
<polygon fill="none" stroke="#000000" points="925.9971,-284.9217 933.0485,-281.143 936.8272,-288.1944 929.7758,-291.9731 925.9971,-284.9217"/>
<polyline fill="none" stroke="#000000" points="933.3015,-290.0837 934.2462,-291.8466 "/>
<text text-anchor="middle" x="968" y="-348.3" font-family="Times,serif" font-size="14.00" fill="#000000">conn11</text>
</g>
<!-- mrmt -->
<g id="node3" class="node">
<title>mrmt</title>
<path fill="none" stroke="#000000" d="M918,-370C918,-370 712,-370 712,-370 706,-370 700,-364 700,-358 700,-358 700,-346 700,-346 700,-340 706,-334 712,-334 712,-334 918,-334 918,-334 924,-334 930,-340 930,-346 930,-346 930,-358 930,-358 930,-364 924,-370 918,-370"/>
<text text-anchor="middle" x="815" y="-348.3" font-family="Times,serif" font-size="14.00" fill="#000000">mrmt::Manage_Regulator_Mode_impl</text>
</g>
<!-- mrit&#45;&gt;mrmt -->
<g id="edge18" class="edge">
<title>mrit&#45;&gt;mrmt</title>
<path fill="none" stroke="#000000" d="M652.3837,-413.1038C661.0535,-404.0277 671.6898,-394.4904 683,-388 692.8795,-382.3306 703.6894,-377.522 714.7344,-373.4507"/>
<polygon fill="none" stroke="#000000" points="648.5458,-423.2395 642.6379,-417.8452 648.0322,-411.9374 653.94,-417.3316 648.5458,-423.2395"/>
<polyline fill="none" stroke="#000000" points="650.9861,-414.6345 652.3346,-413.1576 "/>
<polygon fill="none" stroke="#000000" points="723.1696,-366.2815 725.7979,-373.8375 718.2419,-376.4658 715.6136,-368.9098 723.1696,-366.2815"/>
<polyline fill="none" stroke="#000000" points="716.9278,-372.6878 715.0388,-373.3449 "/>
<text text-anchor="middle" x="703" y="-391.8" font-family="Times,serif" font-size="14.00" fill="#000000">conn12</text>
</g>
<!-- oit -->
<g id="node7" class="node">
<title>oit</title>
<path fill="none" stroke="#000000" d="M404,-370C404,-370 218,-370 218,-370 212,-370 206,-364 206,-358 206,-358 206,-346 206,-346 206,-340 212,-334 218,-334 218,-334 404,-334 404,-334 410,-334 416,-340 416,-346 416,-346 416,-358 416,-358 416,-364 410,-370 404,-370"/>
<text text-anchor="middle" x="311" y="-348.3" font-family="Times,serif" font-size="14.00" fill="#000000">oit::operator_interface_thread_impl</text>
</g>
<!-- mrit&#45;&gt;oit -->
<g id="edge1" class="edge">
<title>mrit&#45;&gt;oit</title>
<path fill="none" stroke="#000000" d="M573.0425,-417.1231C562.8761,-412.7697 552.5129,-407.9902 543,-403 532.1927,-397.3308 531.3593,-392.4614 520,-388 510.4419,-384.2461 469.524,-376.9273 426.3936,-369.8636"/>
<polygon fill="none" stroke="#000000" points="583.838,-417.3054 580.7492,-424.6851 573.3695,-421.5962 576.4584,-414.2166 583.838,-417.3054"/>
<polyline fill="none" stroke="#000000" points="574.9139,-417.9064 573.069,-417.1342 "/>
<polygon fill="none" stroke="#000000" points="415.6457,-372.1675 416.9306,-364.2713 424.8267,-365.5562 423.5419,-373.4523 415.6457,-372.1675"/>
<polyline fill="none" stroke="#000000" points="424.1843,-369.5042 426.1583,-369.8254 "/>
<text text-anchor="middle" x="560" y="-391.8" font-family="Times,serif" font-size="14.00" fill="#000000">conn1</text>
</g>
<!-- mrit&#45;&gt;oit -->
<g id="edge2" class="edge">
<title>mrit&#45;&gt;oit</title>
<path fill="none" stroke="#000000" d="M501.2905,-429.7589C426.2431,-423.3187 343.9044,-413.9392 330,-403 322.7945,-397.3311 318.3216,-388.6328 315.545,-380.0159"/>
<polygon fill="none" stroke="#000000" points="511.6847,-426.6227 511.0113,-434.5943 503.0397,-433.9208 503.7131,-425.9492 511.6847,-426.6227"/>
<polyline fill="none" stroke="#000000" points="503.3764,-429.935 501.3835,-429.7667 "/>
<polygon fill="none" stroke="#000000" points="309.1285,-371.12 316.8767,-369.1285 318.8682,-376.8766 311.12,-378.8682 309.1285,-371.12"/>
<polyline fill="none" stroke="#000000" points="314.9941,-377.8724 315.492,-379.8095 "/>
<text text-anchor="middle" x="347" y="-391.8" font-family="Times,serif" font-size="14.00" fill="#000000">conn2</text>
</g>
<!-- conn18 -->
<g id="node10" class="node">
<title>conn18</title>
<polygon fill="none" stroke="#000000" points="631,-370 579.5544,-352 631,-334 682.4456,-352 631,-370"/>
<text text-anchor="middle" x="631" y="-348.3" font-family="Times,serif" font-size="14.00" fill="#000000">conn18</text>
</g>
<!-- mrit&#45;&gt;conn18 -->
<g id="edge26" class="edge">
<title>mrit&#45;&gt;conn18</title>
<path fill="none" stroke="#000000" d="M625.4073,-420.9735C624.1404,-408.7205 623.9137,-392.304 624.7271,-378.5609"/>
<polygon fill="#000000" stroke="#000000" points="628.2445,-378.503 625.6025,-368.2429 621.2696,-377.9112 628.2445,-378.503"/>
</g>
<!-- heat_controller -->
<g id="node9" class="node">
<title>heat_controller</title>
<path fill="none" stroke="#000000" d="M837,-196C837,-196 653,-196 653,-196 647,-196 641,-190 641,-184 641,-184 641,-172 641,-172 641,-166 647,-160 653,-160 653,-160 837,-160 837,-160 843,-160 849,-166 849,-172 849,-172 849,-184 849,-184 849,-190 843,-196 837,-196"/>
<text text-anchor="middle" x="745" y="-174.3" font-family="Times,serif" font-size="14.00" fill="#000000">heat_controller::Heat_Source_impl</text>
</g>
<!-- mhst&#45;&gt;heat_controller -->
<g id="edge3" class="edge">
<title>mhst&#45;&gt;heat_controller</title>
<path fill="none" stroke="#000000" d="M873.1269,-242.4338C847.5245,-229.5586 815.5337,-213.4707 789.923,-200.5913"/>
<polygon fill="none" stroke="#000000" points="883.9514,-243.4 880.3572,-250.5471 873.21,-246.9528 876.8043,-239.8057 883.9514,-243.4"/>
<polyline fill="none" stroke="#000000" points="875.0071,-243.3793 873.2204,-242.4807 "/>
<polygon fill="none" stroke="#000000" points="779.0027,-199.5769 782.5969,-192.4298 789.7441,-196.0241 786.1498,-203.1712 779.0027,-199.5769"/>
<polyline fill="none" stroke="#000000" points="787.9469,-199.5976 789.7337,-200.4962 "/>
<text text-anchor="middle" x="858" y="-217.8" font-family="Times,serif" font-size="14.00" fill="#000000">conn3</text>
</g>
<!-- conn19 -->
<g id="node11" class="node">
<title>conn19</title>
<polygon fill="none" stroke="#000000" points="918,-196 866.5544,-178 918,-160 969.4456,-178 918,-196"/>
<text text-anchor="middle" x="918" y="-174.3" font-family="Times,serif" font-size="14.00" fill="#000000">conn19</text>
</g>
<!-- mhst&#45;&gt;conn19 -->
<g id="edge28" class="edge">
<title>mhst&#45;&gt;conn19</title>
<path fill="none" stroke="#000000" d="M912.4073,-246.9735C911.1404,-234.7205 910.9137,-218.304 911.7271,-204.5609"/>
<polygon fill="#000000" stroke="#000000" points="915.2445,-204.503 912.6025,-194.2429 908.2696,-203.9112 915.2445,-204.503"/>
</g>
<!-- mrmt&#45;&gt;mrit -->
<g id="edge19" class="edge">
<title>mrmt&#45;&gt;mrit</title>
<path fill="none" stroke="#000000" d="M772.3575,-375.0654C764.5688,-379.3335 756.5268,-383.7768 749,-388 737.3655,-394.5279 735.0234,-397.2197 723,-403 712.7181,-407.9431 701.5683,-412.7478 690.6957,-417.1524"/>
<polygon fill="none" stroke="#000000" points="779.4208,-366.6489 783.2561,-373.6697 776.2354,-377.505 772.4001,-370.4842 779.4208,-366.6489"/>
<polyline fill="none" stroke="#000000" points="774.3177,-373.9946 772.5625,-374.9534 "/>
<polygon fill="none" stroke="#000000" points="682.7198,-424.6303 679.7626,-417.1968 687.196,-414.2397 690.1532,-421.6731 682.7198,-424.6303"/>
<polyline fill="none" stroke="#000000" points="688.6746,-417.9564 690.533,-417.2171 "/>
<text text-anchor="middle" x="769" y="-391.8" font-family="Times,serif" font-size="14.00" fill="#000000">conn13</text>
</g>
<!-- mrmt&#45;&gt;mhst -->
<g id="edge20" class="edge">
<title>mrmt&#45;&gt;mhst</title>
<path fill="none" stroke="#000000" d="M844.1928,-327.342C858.1627,-315.5422 874.8471,-301.4495 888.8159,-289.6506"/>
<polygon fill="none" stroke="#000000" points="838.9228,-337.0293 833.7605,-330.9177 839.8722,-325.7555 845.0344,-331.8671 838.9228,-337.0293"/>
<polyline fill="none" stroke="#000000" points="842.4533,-328.8113 843.9812,-327.5207 "/>
<polygon fill="none" stroke="#000000" points="894.1046,-279.9476 899.2668,-286.0592 893.1552,-291.2214 887.9929,-285.1098 894.1046,-279.9476"/>
<polyline fill="none" stroke="#000000" points="890.5741,-288.1656 889.0462,-289.4562 "/>
<text text-anchor="middle" x="892" y="-304.8" font-family="Times,serif" font-size="14.00" fill="#000000">conn13</text>
</g>
<!-- conn20 -->
<g id="node12" class="node">
<title>conn20</title>
<polygon fill="none" stroke="#000000" points="531,-283 479.5544,-265 531,-247 582.4456,-265 531,-283"/>
<text text-anchor="middle" x="531" y="-261.3" font-family="Times,serif" font-size="14.00" fill="#000000">conn20</text>
</g>
<!-- mrmt&#45;&gt;conn20 -->
<g id="edge30" class="edge">
<title>mrmt&#45;&gt;conn20</title>
<path fill="none" stroke="#000000" d="M750.5623,-333.9735C693.408,-317.0025 612.1768,-292.0446 566.167,-277.265"/>
<polygon fill="#000000" stroke="#000000" points="567.2232,-273.9282 556.6314,-274.1832 565.0704,-280.589 567.2232,-273.9282"/>
</g>
<!-- mat -->
<g id="node4" class="node">
<title>mat</title>
<path fill="none" stroke="#000000" d="M199,-109C199,-109 59,-109 59,-109 53,-109 47,-103 47,-97 47,-97 47,-85 47,-85 47,-79 53,-73 59,-73 59,-73 199,-73 199,-73 205,-73 211,-79 211,-85 211,-85 211,-97 211,-97 211,-103 205,-109 199,-109"/>
<text text-anchor="middle" x="129" y="-87.3" font-family="Times,serif" font-size="14.00" fill="#000000">mat::Manage_Alarm_impl</text>
</g>
<!-- mat&#45;&gt;oit -->
<g id="edge4" class="edge">
<title>mat&#45;&gt;oit</title>
<path fill="none" stroke="#000000" d="M221.1965,-112.5263C248.954,-122.9107 277.4627,-138.0632 298,-160 320.0924,-183.5979 297.2122,-207.1121 321,-229 345.9081,-251.9187 374.0847,-220.3874 395,-247 417.0198,-275.018 382.913,-306.9558 351.7851,-328.1769"/>
<polygon fill="none" stroke="#000000" points="210.0829,-112.8173 212.765,-105.2803 220.302,-107.9624 217.6199,-115.4994 210.0829,-112.8173"/>
<polyline fill="none" stroke="#000000" points="218.9609,-111.7309 220.8452,-112.4014 "/>
<polygon fill="none" stroke="#000000" points="345.3313,-337.2081 340.9358,-330.5238 347.6202,-326.1283 352.0157,-332.8126 345.3313,-337.2081"/>
<polyline fill="none" stroke="#000000" points="349.8179,-329.4705 351.489,-328.3716 "/>
<text text-anchor="middle" x="338" y="-217.8" font-family="Times,serif" font-size="14.00" fill="#000000">conn4</text>
</g>
<!-- conn21 -->
<g id="node13" class="node">
<title>conn21</title>
<polygon fill="none" stroke="#000000" points="129,-36 77.5544,-18 129,0 180.4456,-18 129,-36"/>
<text text-anchor="middle" x="129" y="-14.3" font-family="Times,serif" font-size="14.00" fill="#000000">conn21</text>
</g>
<!-- mat&#45;&gt;conn21 -->
<g id="edge32" class="edge">
<title>mat&#45;&gt;conn21</title>
<path fill="none" stroke="#000000" d="M123.0843,-72.9551C122.2347,-64.3656 122.034,-53.9258 122.4822,-44.4622"/>
<polygon fill="#000000" stroke="#000000" points="125.9832,-44.5828 123.2639,-34.3429 119.004,-44.0435 125.9832,-44.5828"/>
</g>
<!-- mmit -->
<g id="node5" class="node">
<title>mmit</title>
<path fill="none" stroke="#000000" d="M253.5,-283C253.5,-283 40.5,-283 40.5,-283 34.5,-283 28.5,-277 28.5,-271 28.5,-271 28.5,-259 28.5,-259 28.5,-253 34.5,-247 40.5,-247 40.5,-247 253.5,-247 253.5,-247 259.5,-247 265.5,-253 265.5,-259 265.5,-259 265.5,-271 265.5,-271 265.5,-277 259.5,-283 253.5,-283"/>
<text text-anchor="middle" x="147" y="-261.3" font-family="Times,serif" font-size="14.00" fill="#000000">mmit::Manage_Monitor_Interface_impl</text>
</g>
<!-- mmit&#45;&gt;mat -->
<g id="edge21" class="edge">
<title>mmit&#45;&gt;mat</title>
<path fill="none" stroke="#000000" d="M143.0118,-236.6245C141.3362,-224.1745 139.445,-209.377 138,-196 135.2057,-170.1316 132.7386,-140.6013 131.0974,-119.4604"/>
<polygon fill="none" stroke="#000000" points="148.3753,-246.3245 140.449,-247.4084 139.3652,-239.4821 147.2915,-238.3983 148.3753,-246.3245"/>
<polyline fill="none" stroke="#000000" points="143.3283,-238.9402 143.0574,-236.9586 "/>
<polygon fill="none" stroke="#000000" points="126.3288,-109.5379 134.3056,-108.9293 134.9143,-116.9061 126.9374,-117.5147 126.3288,-109.5379"/>
<polyline fill="none" stroke="#000000" points="130.9258,-117.2104 131.078,-119.2046 "/>
<text text-anchor="middle" x="158" y="-174.3" font-family="Times,serif" font-size="14.00" fill="#000000">conn14</text>
</g>
<!-- mmit&#45;&gt;mat -->
<g id="edge22" class="edge">
<title>mmit&#45;&gt;mat</title>
<path fill="none" stroke="#000000" d="M119.1314,-239.3823C108.1284,-227.4086 96.7543,-212.2214 91,-196 81.5293,-169.3019 95.2513,-138.872 108.7748,-117.6691"/>
<polygon fill="none" stroke="#000000" points="129.1259,-243.9897 123.3652,-249.5408 117.8141,-243.78 123.5749,-238.229 129.1259,-243.9897"/>
<polyline fill="none" stroke="#000000" points="120.6945,-241.0045 119.3068,-239.5643 "/>
<polygon fill="none" stroke="#000000" points="111.1728,-106.95 117.8077,-111.4197 113.3381,-118.0546 106.7031,-113.5849 111.1728,-106.95"/>
<polyline fill="none" stroke="#000000" points="110.0206,-115.8198 108.9032,-117.4785 "/>
<text text-anchor="middle" x="111" y="-174.3" font-family="Times,serif" font-size="14.00" fill="#000000">conn15</text>
</g>
<!-- mmmt -->
<g id="node6" class="node">
<title>mmmt</title>
<path fill="none" stroke="#000000" d="M562.5,-196C562.5,-196 357.5,-196 357.5,-196 351.5,-196 345.5,-190 345.5,-184 345.5,-184 345.5,-172 345.5,-172 345.5,-166 351.5,-160 357.5,-160 357.5,-160 562.5,-160 562.5,-160 568.5,-160 574.5,-166 574.5,-172 574.5,-172 574.5,-184 574.5,-184 574.5,-190 568.5,-196 562.5,-196"/>
<text text-anchor="middle" x="460" y="-174.3" font-family="Times,serif" font-size="14.00" fill="#000000">mmmt::Manage_Monitor_Mode_impl</text>
</g>
<!-- mmit&#45;&gt;mmmt -->
<g id="edge23" class="edge">
<title>mmit&#45;&gt;mmmt</title>
<path fill="none" stroke="#000000" d="M189.976,-242.3721C210.414,-232.4131 235.4751,-221.3355 259,-214 283.2758,-206.4304 309.7276,-200.2764 335.2304,-195.339"/>
<polygon fill="none" stroke="#000000" points="182.7086,-250.436 179.1575,-243.2673 186.3261,-239.7161 189.8773,-246.8848 182.7086,-250.436"/>
<polyline fill="none" stroke="#000000" points="188.1017,-243.3005 189.8939,-242.4127 "/>
<polygon fill="none" stroke="#000000" points="344.5883,-189.5058 346.0694,-197.3675 338.2077,-198.8486 336.7266,-190.9869 344.5883,-189.5058"/>
<polyline fill="none" stroke="#000000" points="337.4671,-194.9177 335.5017,-195.288 "/>
<text text-anchor="middle" x="279" y="-217.8" font-family="Times,serif" font-size="14.00" fill="#000000">conn16</text>
</g>
<!-- mmit&#45;&gt;oit -->
<g id="edge5" class="edge">
<title>mmit&#45;&gt;oit</title>
<path fill="none" stroke="#000000" d="M224.9904,-286.6202C235.3858,-290.7506 245.6662,-295.5283 255,-301 266.8157,-307.9266 278.2868,-317.6592 287.7376,-326.7679"/>
<polygon fill="none" stroke="#000000" points="214.0206,-286.7492 216.8498,-279.2662 224.3328,-282.0953 221.5037,-289.5784 214.0206,-286.7492"/>
<polyline fill="none" stroke="#000000" points="222.9183,-285.8369 224.789,-286.5442 "/>
<polygon fill="none" stroke="#000000" points="297.6787,-331.0435 292.0252,-336.7038 286.3649,-331.0503 292.0184,-325.39 297.6787,-331.0435"/>
<polyline fill="none" stroke="#000000" points="289.1916,-328.2202 287.7765,-326.8068 "/>
<text text-anchor="middle" x="293" y="-304.8" font-family="Times,serif" font-size="14.00" fill="#000000">conn5</text>
</g>
<!-- conn22 -->
<g id="node14" class="node">
<title>conn22</title>
<polygon fill="none" stroke="#000000" points="238,-196 186.5544,-178 238,-160 289.4456,-178 238,-196"/>
<text text-anchor="middle" x="238" y="-174.3" font-family="Times,serif" font-size="14.00" fill="#000000">conn22</text>
</g>
<!-- mmit&#45;&gt;conn22 -->
<g id="edge34" class="edge">
<title>mmit&#45;&gt;conn22</title>
<path fill="none" stroke="#000000" d="M160.2625,-246.9735C174.0507,-232.3455 195.528,-211.7835 212.5271,-196.9204"/>
<polygon fill="#000000" stroke="#000000" points="215.1368,-199.2938 220.459,-190.1327 210.5855,-193.9753 215.1368,-199.2938"/>
</g>
<!-- mmmt&#45;&gt;mat -->
<g id="edge25" class="edge">
<title>mmmt&#45;&gt;mat</title>
<path fill="none" stroke="#000000" d="M410.8477,-155.8823C387.109,-145.8983 357.9807,-134.6542 331,-127 295.7544,-117.0011 256.2254,-109.2259 221.5433,-103.5014"/>
<polygon fill="none" stroke="#000000" points="421.9013,-156.2448 418.7649,-163.6043 411.4053,-160.468 414.5417,-153.1084 421.9013,-156.2448"/>
<polyline fill="none" stroke="#000000" points="412.9735,-156.7882 411.1336,-156.0041 "/>
<polygon fill="none" stroke="#000000" points="210.785,-105.8147 212.0613,-97.9171 219.9589,-99.1935 218.6825,-107.091 210.785,-105.8147"/>
<polyline fill="none" stroke="#000000" points="219.3207,-103.1423 221.2951,-103.4613 "/>
<text text-anchor="middle" x="395" y="-130.8" font-family="Times,serif" font-size="14.00" fill="#000000">conn17</text>
</g>
<!-- mmmt&#45;&gt;mmit -->
<g id="edge24" class="edge">
<title>mmmt&#45;&gt;mmit</title>
<path fill="none" stroke="#000000" d="M421.1857,-201.041C402.8748,-211.0004 380.3895,-221.9615 359,-229 342.5797,-234.4033 310.2963,-240.6085 275.7757,-246.3282"/>
<polygon fill="none" stroke="#000000" points="428.1426,-192.6051 432.0249,-199.6 425.03,-203.4822 421.1477,-196.4873 428.1426,-192.6051"/>
<polyline fill="none" stroke="#000000" points="423.0888,-199.9848 421.3401,-200.9553 "/>
<polygon fill="none" stroke="#000000" points="266.1454,-251.9542 264.8557,-244.0589 272.751,-242.7691 274.0408,-250.6645 266.1454,-251.9542"/>
<polyline fill="none" stroke="#000000" points="273.3959,-246.7168 275.3697,-246.3944 "/>
<text text-anchor="middle" x="414" y="-217.8" font-family="Times,serif" font-size="14.00" fill="#000000">conn17</text>
</g>
<!-- conn23 -->
<g id="node15" class="node">
<title>conn23</title>
<polygon fill="none" stroke="#000000" points="460,-109 408.5544,-91 460,-73 511.4456,-91 460,-109"/>
<text text-anchor="middle" x="460" y="-87.3" font-family="Times,serif" font-size="14.00" fill="#000000">conn23</text>
</g>
<!-- mmmt&#45;&gt;conn23 -->
<g id="edge36" class="edge">
<title>mmmt&#45;&gt;conn23</title>
<path fill="none" stroke="#000000" d="M454.4073,-159.9735C453.1404,-147.7205 452.9137,-131.304 453.7271,-117.5609"/>
<polygon fill="#000000" stroke="#000000" points="457.2445,-117.503 454.6025,-107.2429 450.2696,-116.9112 457.2445,-117.503"/>
</g>
<!-- oit&#45;&gt;mrit -->
<g id="edge6" class="edge">
<title>oit&#45;&gt;mrit</title>
<path fill="none" stroke="#000000" d="M356.1102,-374.4227C377.7225,-384.4009 404.2395,-395.5528 429,-403 452.0859,-409.9435 477.0827,-415.7317 501.3668,-420.4902"/>
<polygon fill="none" stroke="#000000" points="345.1613,-373.7076 348.5571,-366.4641 355.8007,-369.8599 352.4049,-377.1034 345.1613,-373.7076"/>
<polyline fill="none" stroke="#000000" points="354.1028,-373.4817 355.9137,-374.3306 "/>
<polygon fill="none" stroke="#000000" points="512.1074,-418.4698 510.6061,-426.3277 502.7483,-424.8264 504.2495,-416.9686 512.1074,-418.4698"/>
<polyline fill="none" stroke="#000000" points="503.4989,-420.8975 501.5344,-420.5222 "/>
<text text-anchor="middle" x="446" y="-391.8" font-family="Times,serif" font-size="14.00" fill="#000000">conn6</text>
</g>
<!-- oit&#45;&gt;mrit -->
<g id="edge7" class="edge">
<title>oit&#45;&gt;mrit</title>
<path fill="none" stroke="#000000" d="M424.2448,-372.9769C437.6138,-377.1482 450.8196,-382.1098 463,-388 472.6858,-392.6838 472.3248,-398.2943 482,-403 494.1324,-408.9007 507.3027,-413.8762 520.6242,-418.0614"/>
<polygon fill="none" stroke="#000000" points="413.3535,-373.9113 415.6338,-366.2432 423.3019,-368.5235 421.0216,-376.1916 413.3535,-373.9113"/>
<polyline fill="none" stroke="#000000" points="422.1618,-372.3575 424.0788,-372.9276 "/>
<polygon fill="none" stroke="#000000" points="531.4861,-417.1394 529.1905,-424.803 521.5269,-422.5074 523.8225,-414.8438 531.4861,-417.1394"/>
<polyline fill="none" stroke="#000000" points="522.6747,-418.6756 520.7588,-418.1017 "/>
<text text-anchor="middle" x="499" y="-391.8" font-family="Times,serif" font-size="14.00" fill="#000000">conn7</text>
</g>
<!-- oit&#45;&gt;mmit -->
<g id="edge8" class="edge">
<title>oit&#45;&gt;mmit</title>
<path fill="none" stroke="#000000" d="M246.0327,-330.0918C236.0762,-325.8926 226.0946,-321.1713 217,-316 207.6474,-310.682 206.6201,-307.4379 198,-301 192.7574,-297.0846 187.151,-293.0137 181.6439,-289.0784"/>
<polygon fill="none" stroke="#000000" points="257.0469,-330.2496 254.0353,-337.6611 246.6238,-334.6495 249.6354,-327.238 257.0469,-330.2496"/>
<polyline fill="none" stroke="#000000" points="248.1296,-330.9438 246.2767,-330.1909 "/>
<polygon fill="none" stroke="#000000" points="170.8248,-286.3108 175.452,-279.7847 181.9781,-284.4119 177.3509,-290.938 170.8248,-286.3108"/>
<polyline fill="none" stroke="#000000" points="179.6645,-287.6749 181.296,-288.8317 "/>
<text text-anchor="middle" x="234" y="-304.8" font-family="Times,serif" font-size="14.00" fill="#000000">conn8</text>
</g>
<!-- oit&#45;&gt;mmit -->
<g id="edge9" class="edge">
<title>oit&#45;&gt;mmit</title>
<path fill="none" stroke="#000000" d="M196.0436,-332.4383C179.7923,-327.7981 166.4214,-322.3223 160,-316 153.9569,-310.0501 150.5869,-301.711 148.7461,-293.4971"/>
<polygon fill="none" stroke="#000000" points="206.9462,-331.2093 204.8824,-338.9385 197.1531,-336.8747 199.217,-329.1454 206.9462,-331.2093"/>
<polyline fill="none" stroke="#000000" points="198.1851,-333.0101 196.2528,-332.4941 "/>
<polygon fill="none" stroke="#000000" points="143.1948,-283.972 151.0972,-282.726 152.3433,-290.6284 144.4409,-291.8744 143.1948,-283.972"/>
<polyline fill="none" stroke="#000000" points="148.3921,-291.2514 148.7036,-293.227 "/>
<text text-anchor="middle" x="177" y="-304.8" font-family="Times,serif" font-size="14.00" fill="#000000">conn8</text>
</g>
<!-- conn24 -->
<g id="node16" class="node">
<title>conn24</title>
<polygon fill="none" stroke="#000000" points="335,-283 283.5544,-265 335,-247 386.4456,-265 335,-283"/>
<text text-anchor="middle" x="335" y="-261.3" font-family="Times,serif" font-size="14.00" fill="#000000">conn24</text>
</g>
<!-- oit&#45;&gt;conn24 -->
<g id="edge38" class="edge">
<title>oit&#45;&gt;conn24</title>
<path fill="none" stroke="#000000" d="M310.3801,-333.9735C312.6043,-321.0774 317.2529,-303.5692 322.1273,-289.4199"/>
<polygon fill="#000000" stroke="#000000" points="325.4901,-290.4176 325.685,-279.8246 318.9268,-287.984 325.4901,-290.4176"/>
</g>
<!-- thermostat -->
<g id="node8" class="node">
<title>thermostat</title>
<path fill="none" stroke="#000000" d="M864.5,-544C864.5,-544 661.5,-544 661.5,-544 655.5,-544 649.5,-538 649.5,-532 649.5,-532 649.5,-520 649.5,-520 649.5,-514 655.5,-508 661.5,-508 661.5,-508 864.5,-508 864.5,-508 870.5,-508 876.5,-514 876.5,-520 876.5,-520 876.5,-532 876.5,-532 876.5,-538 870.5,-544 864.5,-544"/>
<text text-anchor="middle" x="763" y="-522.3" font-family="Times,serif" font-size="14.00" fill="#000000">thermostat::Temperature_Sensor_impl</text>
</g>
<!-- thermostat&#45;&gt;mrit -->
<g id="edge13" class="edge">
<title>thermostat&#45;&gt;mrit</title>
<path fill="none" stroke="#000000" d="M727.0403,-502.2993C708.3365,-489.9718 685.541,-474.9475 666.8528,-462.6303"/>
<polygon fill="none" stroke="#000000" points="737.8508,-504.6337 733.4482,-511.3134 726.7686,-506.9108 731.1711,-500.2312 737.8508,-504.6337"/>
<polyline fill="none" stroke="#000000" points="728.9698,-503.571 727.2999,-502.4704 "/>
<polygon fill="none" stroke="#000000" points="656.1142,-460.3432 660.5167,-453.6635 667.1964,-458.0661 662.7939,-464.7457 656.1142,-460.3432"/>
<polyline fill="none" stroke="#000000" points="664.9951,-461.4059 666.665,-462.5065 "/>
<text text-anchor="middle" x="721" y="-478.8" font-family="Times,serif" font-size="14.00" fill="#000000">conn9</text>
</g>
<!-- thermostat&#45;&gt;mhst -->
<g id="edge14" class="edge">
<title>thermostat&#45;&gt;mhst</title>
<path fill="none" stroke="#000000" d="M823.497,-503.9739C878.6426,-480.27 956.714,-436.7331 992,-370 1007.5208,-340.647 979.958,-309.9209 954.1756,-289.3475"/>
<polygon fill="none" stroke="#000000" points="815.7173,-511.5775 812.6209,-504.201 819.9974,-501.1046 823.0938,-508.4811 815.7173,-511.5775"/>
<polyline fill="none" stroke="#000000" points="821.5456,-504.7929 823.3898,-504.0188 "/>
<polygon fill="none" stroke="#000000" points="943.4947,-286.2169 948.3536,-279.8614 954.709,-284.7203 949.8502,-291.0757 943.4947,-286.2169"/>
<polyline fill="none" stroke="#000000" points="952.2796,-287.898 953.8685,-289.1127 "/>
<text text-anchor="middle" x="997" y="-391.8" font-family="Times,serif" font-size="14.00" fill="#000000">conn9</text>
</g>
<!-- thermostat&#45;&gt;mrmt -->
<g id="edge15" class="edge">
<title>thermostat&#45;&gt;mrmt</title>
<path fill="none" stroke="#000000" d="M771.4194,-497.8274C781.1408,-465.2979 797.0312,-412.1264 806.7013,-379.7689"/>
<polygon fill="none" stroke="#000000" points="772.2991,-508.8532 764.6341,-506.5624 766.9249,-498.8974 774.5899,-501.1882 772.2991,-508.8532"/>
<polyline fill="none" stroke="#000000" points="770.7574,-500.0428 771.3301,-498.1265 "/>
<polygon fill="none" stroke="#000000" points="805.7741,-368.9017 813.4391,-371.1925 811.1484,-378.8575 803.4833,-376.5667 805.7741,-368.9017"/>
<polyline fill="none" stroke="#000000" points="807.3159,-377.7121 806.7432,-379.6284 "/>
<text text-anchor="middle" x="811" y="-435.3" font-family="Times,serif" font-size="14.00" fill="#000000">conn9</text>
</g>
<!-- thermostat&#45;&gt;mat -->
<g id="edge11" class="edge">
<title>thermostat&#45;&gt;mat</title>
<path fill="none" stroke="#000000" d="M639.0517,-524.3056C422.9496,-519.6856 0,-502.5286 0,-439 0,-439 0,-439 0,-178 0,-147.1655 25.6469,-126.5315 54.0696,-113.1318"/>
<polygon fill="none" stroke="#000000" points="649.2666,-520.5171 649.1002,-528.5154 641.102,-528.349 641.2683,-520.3507 649.2666,-520.5171"/>
<polyline fill="none" stroke="#000000" points="641.1851,-524.3498 639.1856,-524.3082 "/>
<polygon fill="none" stroke="#000000" points="61.7521,-105.3718 64.9804,-112.6916 57.6606,-115.9198 54.4324,-108.6001 61.7521,-105.3718"/>
<polyline fill="none" stroke="#000000" points="56.0465,-112.26 54.2166,-113.067 "/>
<text text-anchor="middle" x="17" y="-304.8" font-family="Times,serif" font-size="14.00" fill="#000000">conn9</text>
</g>
<!-- thermostat&#45;&gt;mmit -->
<g id="edge10" class="edge">
<title>thermostat&#45;&gt;mmit</title>
<path fill="none" stroke="#000000" d="M639.1568,-516.7846C563.6803,-510.2944 474.8751,-500.8497 438,-490 323.2109,-456.2258 292.4037,-442.2175 197,-370 171.1604,-350.4402 159.968,-346.1171 148,-316 145.167,-308.8709 144.1368,-300.7269 144.0136,-293.0712"/>
<polygon fill="none" stroke="#000000" points="649.575,-513.6551 648.8979,-521.6264 640.9266,-520.9492 641.6038,-512.978 649.575,-513.6551"/>
<polyline fill="none" stroke="#000000" points="641.2652,-516.9636 639.2723,-516.7943 "/>
<polygon fill="none" stroke="#000000" points="140.3258,-282.9513 148.3219,-283.1996 148.0737,-291.1957 140.0775,-290.9475 140.3258,-282.9513"/>
<polyline fill="none" stroke="#000000" points="144.0756,-291.0716 144.0135,-293.0706 "/>
<text text-anchor="middle" x="258" y="-391.8" font-family="Times,serif" font-size="14.00" fill="#000000">conn9</text>
</g>
<!-- thermostat&#45;&gt;mmmt -->
<g id="edge12" class="edge">
<title>thermostat&#45;&gt;mmmt</title>
<path fill="none" stroke="#000000" d="M639.4363,-514.1969C552.6526,-502.3578 452,-479.8264 452,-439 452,-439 452,-439 452,-265 452,-245.4654 454.0247,-223.5669 456.037,-206.6269"/>
<polygon fill="none" stroke="#000000" points="649.9276,-511.5532 648.8758,-519.4838 640.9453,-518.4319 641.9971,-510.5014 649.9276,-511.5532"/>
<polyline fill="none" stroke="#000000" points="641.4712,-514.4667 639.4885,-514.2037 "/>
<polygon fill="none" stroke="#000000" points="453.3673,-195.7871 461.3049,-196.7843 460.3077,-204.7219 452.3701,-203.7247 453.3673,-195.7871"/>
<polyline fill="none" stroke="#000000" points="456.3389,-204.2233 456.0896,-206.2077 "/>
<text text-anchor="middle" x="469" y="-348.3" font-family="Times,serif" font-size="14.00" fill="#000000">conn9</text>
</g>
<!-- conn25 -->
<g id="node17" class="node">
<title>conn25</title>
<polygon fill="none" stroke="#000000" points="1113,-457 1061.5544,-439 1113,-421 1164.4456,-439 1113,-457"/>
<text text-anchor="middle" x="1113" y="-435.3" font-family="Times,serif" font-size="14.00" fill="#000000">conn25</text>
</g>
<!-- thermostat&#45;&gt;conn25 -->
<g id="edge40" class="edge">
<title>thermostat&#45;&gt;conn25</title>
<path fill="none" stroke="#000000" d="M876.6381,-517.1177C939.1288,-511.1907 1009.7179,-502.2242 1039,-490 1056.7577,-482.5868 1073.7543,-468.9374 1087.2061,-457.6238"/>
<polygon fill="#000000" stroke="#000000" points="1089.7172,-460.0843 1095.0987,-450.958 1085.2005,-454.7364 1089.7172,-460.0843"/>
</g>
<!-- conn26 -->
<g id="node18" class="node">
<title>conn26</title>
<polygon fill="none" stroke="#000000" points="745,-109 693.5544,-91 745,-73 796.4456,-91 745,-109"/>
<text text-anchor="middle" x="745" y="-87.3" font-family="Times,serif" font-size="14.00" fill="#000000">conn26</text>
</g>
<!-- heat_controller&#45;&gt;conn26 -->
<g id="edge42" class="edge">
<title>heat_controller&#45;&gt;conn26</title>
<path fill="none" stroke="#000000" d="M739.4073,-159.9735C738.1404,-147.7205 737.9137,-131.304 738.7271,-117.5609"/>
<polygon fill="#000000" stroke="#000000" points="742.2445,-117.503 739.6025,-107.2429 735.2696,-116.9112 742.2445,-117.503"/>
</g>
<!-- conn18&#45;&gt;mrit -->
<g id="edge27" class="edge">
<title>conn18&#45;&gt;mrit</title>
<path fill="none" stroke="#000000" d="M636.3975,-368.2429C637.7806,-380.1852 638.1029,-396.7181 637.3643,-410.7997"/>
<polygon fill="#000000" stroke="#000000" points="633.8591,-410.7375 636.5927,-420.9735 640.839,-411.2669 633.8591,-410.7375"/>
</g>
<!-- conn19&#45;&gt;mhst -->
<g id="edge29" class="edge">
<title>conn19&#45;&gt;mhst</title>
<path fill="none" stroke="#000000" d="M923.3975,-194.2429C924.7806,-206.1852 925.1029,-222.7181 924.3643,-236.7997"/>
<polygon fill="#000000" stroke="#000000" points="920.8591,-236.7375 923.5927,-246.9735 927.839,-237.2669 920.8591,-236.7375"/>
</g>
<!-- conn20&#45;&gt;mrmt -->
<g id="edge31" class="edge">
<title>conn20&#45;&gt;mrmt</title>
<path fill="none" stroke="#000000" d="M560.6461,-272.8344C605.8028,-285.8089 692.4974,-312.1821 752.0636,-330.9189"/>
<polygon fill="#000000" stroke="#000000" points="751.158,-334.3032 761.7477,-333.9735 753.2638,-327.6274 751.158,-334.3032"/>
</g>
<!-- conn21&#45;&gt;mat -->
<g id="edge33" class="edge">
<title>conn21&#45;&gt;mat</title>
<path fill="none" stroke="#000000" d="M134.7361,-34.3429C135.6828,-42.761 135.9665,-53.2631 135.5874,-62.9306"/>
<polygon fill="#000000" stroke="#000000" points="132.0921,-62.7434 134.9157,-72.9551 139.0765,-63.2114 132.0921,-62.7434"/>
</g>
<!-- conn22&#45;&gt;mmit -->
<g id="edge35" class="edge">
<title>conn22&#45;&gt;mmit</title>
<path fill="none" stroke="#000000" d="M227.9744,-192.5465C216.0801,-205.5231 196.2446,-224.7965 179.0985,-240.2033"/>
<polygon fill="#000000" stroke="#000000" points="176.6173,-237.7253 171.448,-246.9735 181.2563,-242.9675 176.6173,-237.7253"/>
</g>
<!-- conn23&#45;&gt;mmmt -->
<g id="edge37" class="edge">
<title>conn23&#45;&gt;mmmt</title>
<path fill="none" stroke="#000000" d="M465.3975,-107.2429C466.7806,-119.1852 467.1029,-135.7181 466.3643,-149.7997"/>
<polygon fill="#000000" stroke="#000000" points="462.8591,-149.7375 465.5927,-159.9735 469.839,-150.2669 462.8591,-149.7375"/>
</g>
<!-- conn24&#45;&gt;oit -->
<g id="edge39" class="edge">
<title>conn24&#45;&gt;oit</title>
<path fill="none" stroke="#000000" d="M335.6239,-283.0034C333.5745,-294.8967 329.4601,-310.72 325.0076,-324.2132"/>
<polygon fill="#000000" stroke="#000000" points="321.5907,-323.3787 321.5655,-333.9735 328.1922,-325.7069 321.5907,-323.3787"/>
</g>
<!-- conn25&#45;&gt;thermostat -->
<g id="edge41" class="edge">
<title>conn25&#45;&gt;thermostat</title>
<path fill="none" stroke="#000000" d="M1105.345,-454.6879C1094.7494,-466.4788 1076.3254,-481.9324 1057,-490 1026.8494,-502.5868 952.9055,-511.7197 886.6875,-517.637"/>
<polygon fill="#000000" stroke="#000000" points="886.2147,-514.1649 876.5577,-518.523 886.8246,-521.1383 886.2147,-514.1649"/>
</g>
<!-- conn26&#45;&gt;heat_controller -->
<g id="edge43" class="edge">
<title>conn26&#45;&gt;heat_controller</title>
<path fill="none" stroke="#000000" d="M750.3975,-107.2429C751.7806,-119.1852 752.1029,-135.7181 751.3643,-149.7997"/>
<polygon fill="#000000" stroke="#000000" points="747.8591,-149.7375 750.5927,-159.9735 754.839,-150.2669 747.8591,-149.7375"/>
</g>
</g>
</svg>
